<svg xmlns="http://www.w3.org/2000/svg" xmlns:xlink="http://www.w3.org/1999/xlink" viewBox="0 0 429.5 119.31"><defs><style>.cls-1{isolation:isolate;}.cls-2{fill:url(#linear-gradient);}.cls-3{opacity:0.64;mix-blend-mode:screen;fill:url(#radial-gradient);}.cls-4,.cls-5,.cls-6,.cls-7{mix-blend-mode:multiply;}.cls-5,.cls-6,.cls-7{opacity:0.58;}.cls-5{fill:url(#linear-gradient-2);}.cls-6{fill:url(#linear-gradient-3);}.cls-7{fill:url(#linear-gradient-4);}</style><linearGradient id="linear-gradient" x1="214.75" y1="-1.2" x2="214.75" y2="118.9" gradientUnits="userSpaceOnUse"><stop offset="0.1" stop-color="#0088da"/><stop offset="0.25" stop-color="#0088da"/><stop offset="0.82" stop-color="#0052da"/><stop offset="1" stop-color="#0070da"/></linearGradient><radialGradient id="radial-gradient" cx="201.33" cy="-133.23" r="575.05" gradientUnits="userSpaceOnUse"><stop offset="0" stop-color="#fff"/><stop offset="0.01" stop-color="#fbfbfb"/><stop offset="0.13" stop-color="#c1c1c1"/><stop offset="0.25" stop-color="#8e8e8e"/><stop offset="0.37" stop-color="#626262"/><stop offset="0.5" stop-color="#3f3f3f"/><stop offset="0.62" stop-color="#232323"/><stop offset="0.74" stop-color="#101010"/><stop offset="0.87" stop-color="#040404"/><stop offset="1"/></radialGradient><linearGradient id="linear-gradient-2" x1="67.97" y1="28.68" x2="67.97" y2="88.1" gradientUnits="userSpaceOnUse"><stop offset="0" stop-color="#4eb9f8"/><stop offset="0.25" stop-color="#0088da"/><stop offset="0.82" stop-color="#0052da"/><stop offset="1" stop-color="#0070da"/></linearGradient><linearGradient id="linear-gradient-3" x1="88.36" y1="28.68" x2="88.36" y2="88.1" xlink:href="#linear-gradient-2"/><linearGradient id="linear-gradient-4" x1="108.75" y1="28.68" x2="108.75" y2="88.1" xlink:href="#linear-gradient-2"/></defs><title>BtnBlue</title><g class="cls-1"><g id="Capa_2" data-name="Capa 2"><g id="Capa_1-2" data-name="Capa 1"><rect class="cls-2" width="429.5" height="119.31" rx="59.65"/><path class="cls-3" d="M369.85,11.36H59.65A48.35,48.35,0,0,0,11.36,59.65c0,1.17.1,2.32.18,3.47H418c.08-1.15.18-2.3.18-3.47A48.35,48.35,0,0,0,369.85,11.36Z"/><g class="cls-4"><polygon class="cls-5" points="65.93 26.6 56.46 26.6 70.01 60.43 56.46 92.7 65.93 92.7 79.48 60.43 65.93 26.6"/><polygon class="cls-6" points="86.32 26.6 76.85 26.6 90.41 60.43 76.85 92.7 86.32 92.7 99.87 60.43 86.32 26.6"/><polygon class="cls-7" points="106.72 26.6 97.25 26.6 110.8 60.43 97.25 92.7 106.72 92.7 120.26 60.43 106.72 26.6"/></g></g></g></g></svg>