<svg xmlns="http://www.w3.org/2000/svg" viewBox="0 0 26.82 26.8"><defs><style>.cls-1,.cls-2{fill-rule:evenodd;}.cls-2{fill:#fff;}</style></defs><title>TwitterSocialIcono</title><g id="Capa_2" data-name="Capa 2"><g id="Capa_1-2" data-name="Capa 1"><path class="cls-1" d="M13.35,0A13.4,13.4,0,1,1,0,13.28,13.29,13.29,0,0,1,13.35,0Zm.52,11a12,12,0,0,1-8.13-4c-1,2-.39,3.52.8,5.06l-1.23-.14-.38.33L7.34,15.7,6.2,16l3.72,2.89L5.19,20.43c6.05,3.87,14.67.09,16.3-7.17.39-1.74.15-3.71,1.91-5l-1.3.19L23,6.91c-.05-.13-.11-.25-.17-.37-1.24,1-2.27.67-3.47,0a3.89,3.89,0,0,0-2.74-.16C14.53,7,13.74,8.63,13.87,11Z"/><path class="cls-2" d="M13.87,11c-.13-2.33.66-4,2.79-4.59a3.89,3.89,0,0,1,2.74.16c1.2.68,2.23,1,3.47,0,.06.12.12.24.17.37L22.1,8.44l1.3-.19c-1.76,1.3-1.52,3.27-1.91,5-1.63,7.26-10.25,11-16.3,7.17l4.73-1.51L6.2,16l1.14-.33L4.93,12.19l.38-.33L6.54,12c-1.19-1.54-1.76-3.07-.8-5.06A12,12,0,0,0,13.87,11Z"/></g></g></svg>