<?xml version="1.0" standalone="no"?>
<!DOCTYPE svg PUBLIC "-//W3C//DTD SVG 1.1//EN" "http://www.w3.org/Graphics/SVG/1.1/DTD/svg11.dtd" >
<svg xmlns="http://www.w3.org/2000/svg">
<metadata>Generated by IcoMoon</metadata>
<defs>
<font id="icomoon" horiz-adv-x="1024">
<font-face units-per-em="1024" ascent="960" descent="-64" />
<missing-glyph horiz-adv-x="1024" />
<glyph unicode="&#x20;" horiz-adv-x="512" d="" />
<glyph unicode="&#xe900;" glyph-name="DireccionDomicilioIcono" d="M1024 426.155l-157.696 167.253v193.877c0.109 1.351 0.171 2.924 0.171 4.512 0 32.99-26.744 59.733-59.733 59.733s-59.733-26.744-59.733-59.733c0-1.588 0.062-3.161 0.184-4.718l-0.013 0.206v-66.219l-119.125 124.587c-27.433 28.519-65.92 46.236-108.544 46.236s-81.111-17.716-108.497-46.187l-0.047-0.049-393.899-419.499c-10.544-11.957-16.98-27.755-16.98-45.056s6.436-33.099 17.045-45.13l-0.064 0.074c10.6-11.189 25.564-18.151 42.155-18.151s31.554 6.962 42.13 18.125l0.025 0.026 44.032 46.763c-0.261-1.488-0.411-3.201-0.411-4.949s0.149-3.461 0.436-5.128l-0.025 0.178v-268.288c-0.029-0.955-0.046-2.077-0.046-3.204 0-59.362 46.627-107.834 105.254-110.79l0.264-0.011h170.667v282.283h193.536v-282.283h170.667c59.616 1.868 107.233 50.644 107.233 110.541 0 1.218-0.020 2.432-0.059 3.641l0.005-0.176v268.288c0.261 1.488 0.411 3.201 0.411 4.949s-0.149 3.461-0.436 5.128l0.025-0.178 44.032-46.763c10.587-11.158 25.441-18.177 41.937-18.431l0.047-0.001c0.516-0.016 1.123-0.025 1.732-0.025 17.013 0 32.375 7.072 43.305 18.437l0.019 0.020c10.544 11.957 16.98 27.755 16.98 45.056s-6.436 33.099-17.045 45.13l0.064-0.074z" />
<glyph unicode="&#xe901;" glyph-name="EmailIcono" d="M948.148 865.185h-860.16s364.089-303.407 384.569-322.75c10.213-8.082 23.28-12.964 37.487-12.964 15.657 0 29.929 5.93 40.692 15.666l-0.052-0.047c24.273 18.963 397.464 320.095 397.464 320.095zM542.341 355.84c-8.934-7.323-20.478-11.762-33.058-11.762-0.245 0-0.489 0.002-0.733 0.005h0.037c-13.339 0.124-25.521 4.977-34.973 12.962l0.082-0.067-473.695 396.705v-652.705c-0.017-0.584-0.027-1.271-0.027-1.961 0-37.692 29.722-68.443 67.007-70.093l0.149-0.005h881.019c37.398 1.447 67.168 32.114 67.168 69.735 0 0.817-0.014 1.632-0.042 2.442l0.003-0.118v636.776z" />
<glyph unicode="&#xe902;" horiz-adv-x="1026" d="M0 442.7c-0.011 1.249-0.017 2.727-0.017 4.206 0 283.355 229.705 513.060 513.060 513.060s513.060-229.705 513.060-513.060c0-281.262-226.323-509.663-506.789-513.023l-0.318-0.003c-3.029-0.065-6.598-0.102-10.176-0.102-281.013 0-508.82 227.806-508.82 508.82 0 0.036 0 0.072 0 0.108v-0.006zM661.89 689.901c5.088 29.681 9.328 56.394 13.993 84.803-27.939 11.862-60.433 18.757-94.538 18.757-38.521 0-74.988-8.796-107.502-24.489l1.48 0.644c-67.843-37.313-50.458-108.972-59.362-169.607l-65.299-10.176v-94.132l70.387-9.328v-377.375h130.173v379.071l91.588 8.48c9.752 74.203 9.752 74.203-91.164 110.244-0.424 80.139 3.816 85.651 110.244 83.107z" />
<glyph unicode="&#xe903;" horiz-adv-x="1026" d="M661.89 689.901c-106.428 2.544-112.788-2.968-111.092-84.803 100.916-36.041 100.916-36.041 91.164-110.244l-91.588-8.48v-378.647h-129.325v377.375l-70.387 9.328v95.828l65.299 10.176c8.904 60.21-8.48 131.869 59.362 169.607 31.034 15.049 67.5 23.845 106.022 23.845 34.105 0 66.599-6.895 96.165-19.366l-1.627 0.609c-4.664-27.137-8.904-55.546-13.993-85.227z" />
<glyph unicode="&#xe904;" horiz-adv-x="1025" d="M511.301-64c-281.862 1.197-509.893 229.966-509.893 511.996 0 282.77 229.23 512 512 512 281.662 0 510.204-227.438 511.989-508.68l0.001-0.17c0.034-2.194 0.054-4.784 0.054-7.379 0-280.454-227.353-507.806-507.806-507.806-2.231 0-4.458 0.014-6.681 0.043l0.337-0.003zM511.301 167.711h201.305c2.641-0.354 5.695-0.556 8.796-0.556 38.603 0 69.898 31.294 69.898 69.898 0 2.658-0.148 5.282-0.437 7.863l0.029-0.317q0 201.305 0 402.61c0.527 3.176 0.829 6.837 0.829 10.567 0 37.445-30.355 67.801-67.801 67.801-3.623 0-7.18-0.284-10.649-0.831l0.384 0.050c-134.203 0-268.057 0-402.261 0-3.022 0.477-6.506 0.75-10.055 0.75-37.445 0-67.801-30.355-67.801-67.801 0-3.222 0.225-6.392 0.66-9.495l-0.041 0.358c0-134.203 0-268.057 0-402.261 0-58.015 21.668-77.237 82.13-78.285s130.709-0.349 195.713-0.349z" />
<glyph unicode="&#xe905;" horiz-adv-x="1025" d="M512 167.711c-65.005 0-130.359 0-195.364 0s-81.78 20.27-82.13 78.285c0 134.203 0 268.057 0 402.261-0.469 2.994-0.736 6.448-0.736 9.964 0 37.445 30.355 67.801 67.801 67.801 3.839 0 7.603-0.319 11.268-0.932l-0.397 0.055c134.203 0 268.057 0 402.261 0 3.085 0.497 6.642 0.782 10.265 0.782 37.445 0 67.801-30.355 67.801-67.801 0-3.731-0.301-7.391-0.881-10.958l0.052 0.39q0-201.305 0-402.61c0.26-2.264 0.408-4.887 0.408-7.545 0-38.603-31.294-69.898-69.898-69.898-3.101 0-6.155 0.202-9.149 0.593l0.353-0.038h-201.655zM706.315 494.831l-16.775-9.786c0-3.495-4.543-6.99-4.194-10.135 0.972-6.972 1.527-15.028 1.527-23.213 0-95.324-75.273-173.067-169.622-177.032l-0.359-0.012c-97.158-3.844-160.066 62.908-174.744 185.928 0 10.135-12.232 19.222-18.523 29.008-8.388-10.485-23.416-20.27-24.115-30.755-1.241-23.841-1.949-51.758-1.949-79.842 0-38.68 1.342-77.046 3.981-115.055l-0.285 5.125c0-13.63 28.658-34.949 44.734-34.949 111.137-3.145 222.624 0 334.111-2.097 32.502 0 50.676 10.834 50.326 46.132 0 57.666 0 115.331 0 172.647-5.461 16.949-13.693 31.614-24.279 44.237l0.164-0.202zM515.844 552.846c-0.613 0.013-1.335 0.020-2.059 0.020-57.905 0-104.846-46.941-104.846-104.846s46.941-104.846 104.846-104.846c56.915 0 103.238 45.35 104.805 101.885l0.003 0.145c0.024 0.839 0.038 1.826 0.038 2.816 0 57.181-45.775 103.671-102.68 104.824l-0.108 0.002zM620.691 607.017c-6.99-46.132 18.523-54.87 57.316-55.569s51.724 20.969 52.074 56.967-13.63 55.219-53.821 55.219-63.257-12.931-56.268-56.617z" />
<glyph unicode="&#xe906;" horiz-adv-x="1025" d="M706.315 494.831c9.358-12.719 16.581-27.665 20.771-43.831l0.199-0.903c2.446-57.316 0-114.982 0-172.647 0-34.949-17.824-46.132-50.326-46.132-111.487 0-222.973 0-334.111 2.097-16.076 0-43.686 22.018-44.734 34.949-2.354 32.884-3.696 71.251-3.696 109.93 0 28.083 0.707 56.001 2.105 83.737l-0.156-3.895c0 10.485 15.727 20.27 24.115 30.755 6.291-9.786 17.125-18.872 18.523-29.008 16.426-123.020 79.334-189.772 174.744-185.928 94.707 3.977 169.98 81.72 169.98 177.044 0 8.185-0.555 16.241-1.629 24.131l0.102-0.918c0 3.145 2.796 6.64 4.194 10.135z" />
<glyph unicode="&#xe907;" horiz-adv-x="1025" d="M515.844 552.846c56.052-2.338 100.608-48.346 100.608-104.761 0-57.905-46.941-104.846-104.846-104.846s-104.846 46.941-104.846 104.846c0 1.076 0.016 2.148 0.048 3.216l-0.004-0.157c1.704 56.574 47.973 101.787 104.802 101.787 1.491 0 2.974-0.031 4.45-0.093l-0.211 0.007z" />
<glyph unicode="&#xe908;" horiz-adv-x="1025" d="M619.992 607.017c-6.99 43.686 14.678 56.268 55.569 56.617s54.171-16.775 53.821-55.219-9.786-57.316-52.074-56.967-64.306 9.436-57.316 55.569z" />
<glyph unicode="&#xe909;" d="M1024.464 459.842c0.063-3.001 0.1-6.538 0.1-10.083 0-282.129-228.71-510.839-510.839-510.839s-510.839 228.71-510.839 510.839c0 273.436 214.834 496.695 484.919 510.193l1.207 0.048c7.379 0.381 16.020 0.598 24.713 0.598 278.583 0 505.082-222.998 510.731-500.228l0.008-0.528zM652.945 239.717h81.734c0 75.233 2.786 146.286 0 216.874 0.099 1.578 0.155 3.423 0.155 5.281 0 49.757-40.336 90.093-90.093 90.093-7.471 0-14.73-0.909-21.672-2.624l0.619 0.129c-31.978-7.114-60.040-16.861-86.535-29.382l2.479 1.053c1.033 4.093 2.146 7.499 3.456 10.804l-0.205-0.588-83.592 15.325v-307.897h80.805c0 65.48-2.786 126.781 0 185.76-0.085 1.182-0.134 2.56-0.134 3.95 0 32.317 26.198 58.514 58.514 58.514 1.846 0 3.671-0.085 5.473-0.253l-0.231 0.017c40.867 0 46.44-32.972 46.44-65.945 0-58.979 0-117.957 0-181.116zM293.965 542.041v-305.11h73.839v305.11zM293.965 582.444l77.555 6.037v70.124h-79.412z" />
<glyph unicode="&#xe90a;" d="M650.159 239.717c0 63.158 0 122.137 0 181.116 0 32.972-6.966 64.087-46.44 65.945-1.678 0.171-3.626 0.268-5.596 0.268-32.317 0-58.514-26.198-58.514-58.514 0-0.584 0.009-1.166 0.026-1.747l-0.002 0.085c-3.715-60.836 0-122.137 0-185.76h-82.199v306.039l83.592-15.325c-1.105-2.718-2.217-6.124-3.119-9.614l-0.132-0.603c24.016 11.467 52.079 21.214 81.334 27.812l2.722 0.516c6.323 1.585 13.582 2.494 21.053 2.494 49.757 0 90.093-40.336 90.093-90.093 0-1.858-0.056-3.702-0.167-5.532l0.012 0.252c3.251-70.589 0-141.642 0-216.874z" />
<glyph unicode="&#xe90b;" d="M293.965 542.041h73.839v-305.11h-73.839z" />
<glyph unicode="&#xe90c;" d="M292.107 583.837v74.768h79.412v-70.124z" />
<glyph unicode="&#xe90d;" d="M511.911-47.881c-273.916 0-495.97 222.053-495.97 495.97s222.053 495.97 495.97 495.97c273.916 0 495.97-222.053 495.97-495.97v0c0-273.916-222.053-495.97-495.97-495.97v0z" />
<glyph unicode="&#xe90e;" d="M511.911 927.939c0.053 0 0.115 0 0.177 0 265.112 0 480.028-214.916 480.028-480.028s-214.916-480.028-480.028-480.028c-265.112 0-480.028 214.916-480.028 480.028 0 0.062 0 0.125 0 0.187v-0.010c0.403 264.852 214.999 479.448 479.812 479.85h0.039zM511.911 960c-0.053 0-0.115 0-0.177 0-282.819 0-512.089-229.27-512.089-512.089s229.27-512.089 512.089-512.089c282.819 0 512.089 229.27 512.089 512.089 0 0.062 0 0.124 0 0.187v-0.010c0 282.721-229.191 511.911-511.911 511.911v0z" />
<glyph unicode="&#xe90f;" d="M746.434 561.099c41.118 5.819 88.613 9.141 136.884 9.141 33.318 0 66.266-1.583 98.773-4.677l-4.145 0.319c-54.083 210.697-242.311 363.921-466.328 363.921-265.503 0-480.736-215.233-480.736-480.736 0-108.233 35.767-208.112 96.127-288.461l-0.891 1.238c75.99 194.491 316.712 358.692 620.316 399.255z" />
<glyph unicode="&#xe910;" d="M817.464 228.445c3.016 3.367 4.86 7.838 4.86 12.741 0 5.525-2.342 10.504-6.088 13.996l-0.011 0.010-159.419 144.54c-3.34 3.006-7.783 4.844-12.655 4.844-5.494 0-10.442-2.337-13.903-6.072l-0.011-0.012-56.859-62.882c-3.001-3.315-4.837-7.733-4.837-12.579 0-5.55 2.408-10.538 6.236-13.975l0.017-0.015 159.419-144.717c3.315-3.001 7.733-4.837 12.579-4.837 5.55 0 10.538 2.408 13.975 6.236l0.015 0.017z" />
<glyph unicode="&#xe911;" d="M435.922 736.637c0.038 0 0.084 0 0.129 0 115.143 0 208.484-93.342 208.484-208.484s-93.342-208.484-208.484-208.484c-115.143 0-208.484 93.342-208.484 208.484 0 90.668 57.877 167.818 138.702 196.519l1.458 0.451c20.319 7.275 43.762 11.491 68.186 11.514h0.010zM435.922 680.131c-17.778-0.001-34.828-3.116-50.635-8.83l1.038 0.328c-60.917-20.731-103.96-77.436-103.96-144.194 0-83.936 68.043-151.979 151.979-151.979 0.555 0 1.108 0.003 1.662 0.009l-0.084-0.001c59.653 0.274 111.207 34.674 136.169 84.67l0.4 0.885c9.858 19.586 15.631 42.685 15.631 67.133 0 83.936-68.043 151.979-151.979 151.979-0.078 0-0.155 0-0.232 0h0.012z" />
<glyph unicode="&#xe912;" glyph-name="TelefonoContactoIcono" d="M519.831 699.482h100.593c47.080 1.478 84.684 39.998 84.684 87.301 0 1.073-0.019 2.142-0.058 3.206l0.004-0.154v79.812c0.034 0.91 0.053 1.979 0.053 3.052 0 47.303-37.604 85.823-84.548 87.297l-0.135 0.003h-100.593c-46.984 0-96.376-63.247-131.313-150.588-36.444-99.615-57.522-214.627-57.522-334.562 0-8.594 0.108-17.163 0.323-25.705l-0.025 1.265c-0.206-7.363-0.324-16.028-0.324-24.721 0-116.52 21.1-228.112 59.687-331.163l-2.14 6.519c34.936-88.245 84.329-150.588 131.313-150.588h100.593c47.139 1.813 84.665 40.465 84.665 87.882 0 0.869-0.013 1.735-0.038 2.597l0.003-0.127v79.511c0.028 0.823 0.043 1.79 0.043 2.761 0 47.36-37.565 85.946-84.524 87.588l-0.15 0.004h-100.593c-63.849 0-81.92 171.972-81.92 244.555s18.071 244.254 81.92 244.254z" />
<glyph unicode="&#xe913;" horiz-adv-x="1025" d="M510.090 960c0.561 0.002 1.225 0.003 1.89 0.003 282.77 0 512-229.23 512-512s-229.23-512-512-512c-282.77 0-512 229.23-512 512 0 1.611 0.007 3.22 0.022 4.827l-0.002-0.246c0.215 280.286 227.481 507.42 507.797 507.42 0.806 0 1.612-0.002 2.417-0.006h-0.124zM529.958 539.701c-124.040 8.963-233.238 66.009-310.241 152.381l-0.398 0.455c-38.209-76.418-14.901-134.496 30.567-193.337l-46.997 5.349-14.519-12.609 92.084-131.821-43.558-11.463 142.137-110.424-180.728-58.842c231.164-147.869 560.525-3.439 622.806 273.958 14.901 66.484 5.731 141.755 72.979 191.045l-49.672-7.26 34.388 58.842c-1.91 4.967-4.203 9.552-6.496 14.137-47.379-38.209-86.734-25.6-132.585 0-17.779 8.118-38.564 12.85-60.454 12.85-15.793 0-31.012-2.463-45.291-7.027l1.052 0.29c-79.857-23.69-110.042-85.97-105.075-176.525z" />
<glyph unicode="&#xe914;" horiz-adv-x="1025" d="M529.958 539.701c-4.967 89.027 25.218 152.836 106.603 175.379 13.227 4.273 28.445 6.736 44.239 6.736 21.89 0 42.674-4.732 61.387-13.229l-0.933 0.379c45.851-25.982 85.206-38.209 132.585 0 2.293-4.585 4.585-9.17 6.496-14.137l-35.916-57.313 49.672 7.26c-67.248-49.672-58.078-124.943-72.979-191.045-62.281-277.397-391.642-420.299-622.806-273.958l180.728 57.696-142.137 111.188 43.558 12.609-92.084 132.967 14.519 12.609 46.997-5.349c-45.469 58.842-67.248 117.301-30.567 193.337 77.086-87.692 186.301-145.537 309.070-155.031l1.569-0.098z" />
<glyph unicode="&#xe915;" glyph-name="paint-format" d="M1024 384v384h-192v64c0 35.2-28.8 64-64 64h-704c-35.2 0-64-28.8-64-64v-192c0-35.2 28.8-64 64-64h704c35.2 0 64 28.8 64 64v64h128v-256h-576v-128h-32c-17.674 0-32-14.326-32-32v-320c0-17.674 14.326-32 32-32h128c17.674 0 32 14.326 32 32v320c0 17.674-14.326 32-32 32h-32v64h576zM768 768h-704v64h704v-64z" />
<glyph unicode="&#xe93a;" glyph-name="cart" d="M384 32c0-53.019-42.981-96-96-96s-96 42.981-96 96c0 53.019 42.981 96 96 96s96-42.981 96-96zM1024 32c0-53.019-42.981-96-96-96s-96 42.981-96 96c0 53.019 42.981 96 96 96s96-42.981 96-96zM1024 448v384h-768c0 35.346-28.654 64-64 64h-192v-64h128l48.074-412.054c-29.294-23.458-48.074-59.5-48.074-99.946 0-70.696 57.308-128 128-128h768v64h-768c-35.346 0-64 28.654-64 64 0 0.218 0.014 0.436 0.016 0.656l831.984 127.344z" />
<glyph unicode="&#xe947;" glyph-name="location" d="M512 960c-176.732 0-320-143.268-320-320 0-320 320-704 320-704s320 384 320 704c0 176.732-143.27 320-320 320zM512 448c-106.040 0-192 85.96-192 192s85.96 192 192 192 192-85.96 192-192-85.96-192-192-192z" />
<glyph unicode="&#xe958;" glyph-name="mobile" d="M736 960h-448c-52.8 0-96-43.2-96-96v-832c0-52.8 43.2-96 96-96h448c52.8 0 96 43.2 96 96v832c0 52.8-43.2 96-96 96zM384 912h256v-32h-256v32zM512 0c-35.346 0-64 28.654-64 64s28.654 64 64 64 64-28.654 64-64-28.654-64-64-64zM768 192h-512v640h512v-640z" />
<glyph unicode="&#xe97c;" glyph-name="spinner3" d="M512 656.904c-32.964 0-59.686 26.724-59.686 59.686v179.060c0 32.964 26.722 59.686 59.686 59.686 32.962 0 59.688-26.722 59.688-59.686v-179.060c0-32.964-26.726-59.686-59.688-59.686zM512-36.956c-20.602 0-37.304 16.702-37.304 37.304v179.060c0 20.602 16.702 37.304 37.304 37.304 20.604 0 37.304-16.704 37.304-37.304v-179.060c0-20.602-16.7-37.304-37.304-37.304zM377.756 624.64c-19.34 0-38.146 10.034-48.512 27.988l-89.53 155.070c-15.452 26.764-6.282 60.986 20.482 76.438 26.762 15.45 60.986 6.284 76.438-20.482l89.53-155.072c15.452-26.764 6.282-60.986-20.482-76.438-8.81-5.084-18.432-7.504-27.926-7.504zM735.856 26.744c-11.602 0-22.886 6.022-29.108 16.792l-89.53 155.070c-9.27 16.056-3.77 36.592 12.29 45.864 16.056 9.264 36.59 3.77 45.864-12.292l89.532-155.068c9.27-16.058 3.768-36.592-12.292-45.864-5.286-3.048-11.060-4.502-16.756-4.502zM279.344 530.060c-8.86 0-17.838 2.256-26.064 7.006l-155.072 89.53c-24.978 14.422-33.538 46.362-19.116 71.342 14.42 24.978 46.364 33.538 71.342 19.116l155.070-89.53c24.98-14.422 33.538-46.362 19.116-71.34-9.668-16.756-27.226-26.124-45.276-26.124zM899.648 194.326c-5.064 0-10.196 1.29-14.894 4.004l-155.068 89.53c-14.274 8.24-19.164 26.494-10.924 40.768 8.242 14.276 26.496 19.166 40.766 10.924l155.070-89.532c14.274-8.24 19.164-26.492 10.924-40.766-5.53-9.574-15.562-14.928-25.874-14.928zM243.41 399.504h-179.060c-26.784 0-48.496 21.712-48.496 48.496s21.712 48.496 48.496 48.496h179.060c26.784 0 48.496-21.712 48.496-48.496s-21.712-48.496-48.496-48.496zM959.65 418.156c-0.002 0 0 0 0 0h-179.060c-16.482 0.002-29.844 13.364-29.844 29.844s13.364 29.844 29.844 29.844c0.002 0 0 0 0 0h179.060c16.482 0 29.844-13.362 29.844-29.844 0-16.48-13.364-29.844-29.844-29.844zM124.366 179.402c-15.472 0-30.518 8.028-38.81 22.39-12.362 21.41-5.026 48.79 16.384 61.148l155.072 89.532c21.41 12.368 48.79 5.028 61.15-16.384 12.362-21.412 5.026-48.79-16.384-61.15l-155.072-89.53c-7.050-4.070-14.748-6.006-22.34-6.006zM744.632 552.448c-10.314 0-20.346 5.352-25.874 14.926-8.24 14.274-3.35 32.526 10.924 40.768l155.070 89.528c14.272 8.236 32.526 3.352 40.768-10.922 8.24-14.274 3.35-32.526-10.924-40.768l-155.070-89.528c-4.7-2.714-9.83-4.004-14.894-4.004zM288.136 19.284c-6.962 0-14.016 1.774-20.48 5.504-19.626 11.332-26.35 36.428-15.020 56.054l89.53 155.070c11.33 19.628 36.426 26.352 56.054 15.022 19.626-11.332 26.35-36.43 15.020-56.054l-89.53-155.072c-7.598-13.166-21.392-20.524-35.574-20.524zM646.266 650.758c-5.062 0-10.196 1.29-14.894 4.002-14.274 8.242-19.164 26.494-10.924 40.766l89.534 155.070c8.24 14.274 26.492 19.166 40.766 10.922 14.274-8.242 19.164-26.494 10.924-40.766l-89.532-155.070c-5.53-9.57-15.56-14.924-25.874-14.924z" />
<glyph unicode="&#xe98d;" glyph-name="key" d="M704 960c-176.73 0-320-143.268-320-320 0-20.026 1.858-39.616 5.376-58.624l-389.376-389.376v-192c0-35.346 28.654-64 64-64h64v64h128v128h128v128h128l83.042 83.042c34.010-12.316 70.696-19.042 108.958-19.042 176.73 0 320 143.268 320 320s-143.27 320-320 320zM799.874 639.874c-53.020 0-96 42.98-96 96s42.98 96 96 96 96-42.98 96-96-42.98-96-96-96z" />
<glyph unicode="&#xe994;" glyph-name="cog" d="M933.79 349.75c-53.726 93.054-21.416 212.304 72.152 266.488l-100.626 174.292c-28.75-16.854-62.176-26.518-97.846-26.518-107.536 0-194.708 87.746-194.708 195.99h-201.258c0.266-33.41-8.074-67.282-25.958-98.252-53.724-93.056-173.156-124.702-266.862-70.758l-100.624-174.292c28.97-16.472 54.050-40.588 71.886-71.478 53.638-92.908 21.512-211.92-71.708-266.224l100.626-174.292c28.65 16.696 61.916 26.254 97.4 26.254 107.196 0 194.144-87.192 194.7-194.958h201.254c-0.086 33.074 8.272 66.57 25.966 97.218 53.636 92.906 172.776 124.594 266.414 71.012l100.626 174.29c-28.78 16.466-53.692 40.498-71.434 71.228zM512 240.668c-114.508 0-207.336 92.824-207.336 207.334 0 114.508 92.826 207.334 207.336 207.334 114.508 0 207.332-92.826 207.332-207.334-0.002-114.51-92.824-207.334-207.332-207.334z" />
<glyph unicode="&#xe9b0;" glyph-name="truck" d="M1024 384l-128 256h-192v128c0 35.2-28.8 64-64 64h-576c-35.2 0-64-28.8-64-64v-512l64-64h81.166c-10.898-18.832-17.166-40.678-17.166-64 0-70.692 57.308-128 128-128s128 57.308 128 128c0 23.322-6.268 45.168-17.166 64h354.334c-10.898-18.832-17.168-40.678-17.168-64 0-70.692 57.308-128 128-128s128 57.308 128 128c0 23.322-6.27 45.168-17.168 64h81.168v192zM704 384v192h132.668l96-192h-228.668z" />
<glyph unicode="&#xea93;" glyph-name="whatsapp" d="M873 811.2c-95.8 96-223.2 148.8-359 148.8-279.6 0-507.2-227.6-507.2-507.4 0-89.4 23.4-176.8 67.8-253.6l-72-263 269 70.6c74.2-40.4 157.6-61.8 242.4-61.8h0.2c0 0 0 0 0 0 279.6 0 507.4 227.6 507.4 507.4 0 135.6-52.8 263-148.6 359zM514.2 30.4v0c-75.8 0-150 20.4-214.8 58.8l-15.4 9.2-159.6-41.8 42.6 155.6-10 16c-42.4 67-64.6 144.6-64.6 224.4 0 232.6 189.2 421.8 422 421.8 112.6 0 218.6-44 298.2-123.6 79.6-79.8 123.4-185.6 123.4-298.4-0.2-232.8-189.4-422-421.8-422zM745.4 346.4c-12.6 6.4-75 37-86.6 41.2s-20 6.4-28.6-6.4c-8.4-12.6-32.8-41.2-40.2-49.8-7.4-8.4-14.8-9.6-27.4-3.2s-53.6 19.8-102 63c-37.6 33.6-63.2 75.2-70.6 87.8s-0.8 19.6 5.6 25.8c5.8 5.6 12.6 14.8 19 22.2s8.4 12.6 12.6 21.2c4.2 8.4 2.2 15.8-1 22.2s-28.6 68.8-39 94.2c-10.2 24.8-20.8 21.4-28.6 21.8-7.4 0.4-15.8 0.4-24.2 0.4s-22.2-3.2-33.8-15.8c-11.6-12.6-44.4-43.4-44.4-105.8s45.4-122.6 51.8-131.2c6.4-8.4 89.4-136.6 216.6-191.4 30.2-13 53.8-20.8 72.2-26.8 30.4-9.6 58-8.2 79.8-5 24.4 3.6 75 30.6 85.6 60.2s10.6 55 7.4 60.2c-3 5.6-11.4 8.8-24.2 15.2z" />
</font>
</defs>
</svg>
