<svg xmlns="http://www.w3.org/2000/svg" viewBox="0 0 291.91 86.64"><defs><style>.cls-1{fill:#abacaf;}.cls-1,.cls-2,.cls-3,.cls-4,.cls-5,.cls-6,.cls-7{fill-rule:evenodd;}.cls-2{fill:#030303;}.cls-3{fill:#fcfcfc;}.cls-4{fill:#f3f3f3;}.cls-5{fill:#f6f6f6;}.cls-6{fill:#ececec;}.cls-7{fill:#080808;}</style></defs><title>AppStore</title><g id="Capa_2" data-name="Capa 2"><g id="Capa_1-2" data-name="Capa 1"><path class="cls-1" d="M145.9.11c44.83,0,89.66.1,134.5-.11a11.28,11.28,0,0,1,11.5,11.39c-.3,21.59-.11,43.19-.11,64.78a10,10,0,0,1-10.41,10.46H10.3A10,10,0,0,1,0,76.37Q0,43.58,0,10.8C0,4.31,4.17.11,10.62.11Zm0,84.58H280.61c5.94,0,9.11-3.17,9.11-9.06q0-32.27,0-64.52a9.45,9.45,0,0,0-1.06-5c-2.12-3.64-5.55-4.28-9.35-4.28q-100.27,0-200.55,0H11.66C5.38,1.86,1.8,5,1.78,11q-.13,32.38,0,64.78c0,5.93,3.41,9,9.35,9Z"/><path class="cls-2" d="M145.87,84.69H11.13c-5.94,0-9.32-3-9.35-9Q1.63,43.36,1.78,11c0-5.94,3.6-9.1,9.88-9.11H78.77q100.28,0,200.55,0c3.8,0,7.23.64,9.35,4.28a9.45,9.45,0,0,1,1.06,5q0,32.27,0,64.52c0,5.89-3.17,9.06-9.11,9.06ZM27.59,43.62a35.62,35.62,0,0,0,9.12,22.52c2.42,2.5,5.27,3.4,8.44,1.92a13.45,13.45,0,0,1,11.93,0,6.77,6.77,0,0,0,8.25-1.78A34.05,34.05,0,0,0,72,55.62c.39-1,.45-1.5-.68-2.24-7.77-5.09-8.45-13.91-1.51-20,1.22-1.07,1.08-1.55.08-2.53-4-4-8.93-5.11-14-3.14-3.79,1.46-7.09,1.92-10.79,0a9.12,9.12,0,0,0-6.58-.34C31.69,29.19,27.55,35.27,27.59,43.62ZM148.3,50c-.66-.61-.32-1.3-.55-1.81-.69-1.52-2.07-.59-3.13-.78s-1,.51-1,1.3c.05,8.79.13,17.58.05,26.37,0,2.24,1.35,1.69,2.53,1.71s2.42.38,2.28-1.67c-.17-2.76,0-5.55,0-8.57,5,3.17,9.92,2.69,12.81-1s3.27-10.3,1-14.21A8.1,8.1,0,0,0,154,47.09,9,9,0,0,0,148.3,50Zm-23.81,0c-.67-.61-.45-1.17-.55-1.65-.44-1.92-2-.74-3-1s-1.26.38-1.25,1.35c.06,8.78.15,17.57.07,26.36,0,2.28,1.42,1.61,2.57,1.67s2.37.31,2.23-1.7c-.19-2.75,0-5.53,0-8.6,6.38,4.61,13.11,1.38,14.7-4.63a15.38,15.38,0,0,0,.47-5.89c-.47-3.7-1.86-6.92-5.57-8.33A8.26,8.26,0,0,0,124.49,50.05Zm-33,18.55c2.1-.93,4.65,1.44,5.56-2.14.56-2.22.56-5.34,2.31-6.33s4.69-.24,7.1-.38a1.94,1.94,0,0,1,2.35,1.69,38.93,38.93,0,0,0,1.91,5.89c1,2.21,3,1,4.51.89,1.12-.08.21-1.41,0-2.11C112.67,58,110,49.94,107.48,41.8c-.58-1.95-1.37-2.6-3.34-2.44s-3.77-.3-4.1,2.5a24.8,24.8,0,0,1-1.38,4.42C96.33,53.55,94,60.82,91.52,68.6Zm88.07.1c5.8.07,9.79-2.44,10.61-6.68.9-4.67-1.24-7.8-7-10.3a34.21,34.21,0,0,1-3.68-1.85,3.48,3.48,0,0,1-1.82-3.94A3.67,3.67,0,0,1,181,43.07a9.43,9.43,0,0,1,5.56.56c1,.45,1.79.64,1.88-.76.08-1,1.73-2.37-.59-3.07-3.5-1-7-1.28-10.34.25A7.41,7.41,0,0,0,173,48c.42,3.91,3.33,5.61,6.47,7,1.56.71,3.25,1.17,4.57,2.33a4,4,0,0,1-1.26,7,9.2,9.2,0,0,1-7.29-.47c-1.71-.81-2.23-.47-2.72,1.31s.13,2.19,1.46,2.63A16.75,16.75,0,0,0,179.59,68.7ZM257,59.05c1.81,0,3.62,0,5.43,0,.68,0,1.44.11,1.53-.9.44-4.74-1.29-9.73-6.15-10.88-5.7-1.36-10.39,1.68-11.88,7.51-1.63,6.36,1.08,12,6.63,13.48a17.38,17.38,0,0,0,8.68-.23c1.42-.35,1.68-1,1.34-2.39s-1-1.35-2.18-1a12.58,12.58,0,0,1-5.63.28,5.44,5.44,0,0,1-4.23-3.4c-.56-1.34-.86-2.73,1.55-2.48A47.25,47.25,0,0,0,257,59.05ZM208.16,57.9c-.07,6.46,3.68,10.7,9.56,10.81,6.51.11,10.71-4.08,10.84-10.82.12-6.36-3.93-10.75-9.94-10.8C212.19,47.05,208.24,51.13,208.16,57.9Zm-7.67-15.56c-2.1.84-5.2.1-4.6,4,.22,1.5-1,1.09-1.76,1-1.57-.1-1.31.94-1.34,1.87s-.16,2,1.37,1.73,1.8.61,1.77,1.95c-.08,3-.05,6,0,9.05.07,5.28,2.87,7.51,8,6.64,1.58-.26,1.35-1.18,1.36-2.21s-.05-1.78-1.51-1.59c-2.4.31-3.19-1.19-3.2-3.31,0-2.41.18-4.85-.06-7.24-.27-2.67.58-3.78,3.3-3.3,1.22.22,1.88-.13,1.84-1.63s-.33-2.2-1.86-1.92c-2.72.5-3.7-.64-3.24-3.28A9.71,9.71,0,0,0,200.49,42.34Zm35.92,7.93a13.62,13.62,0,0,1,0-1.43c.19-2-1.27-1.34-2.25-1.45-1.22-.14-1.91.13-1.88,1.63.14,5.94.23,11.88.21,17.83,0,2.14,1.42,1.42,2.47,1.52s2.19.14,2.11-1.63c-.13-3-.09-6,0-9,.1-4,1.36-5.51,5.31-6.22,2.21-.4.77-2,1-3.08.33-1.24-.6-1.35-1.57-1.3C239.54,47.21,238.09,48.59,236.41,50.27ZM94.31,22.09v3.62c0,3.72,0,3.72,3.74,3.59,4.52-.15,7-1.88,7.76-5.35,1.26-6-1.66-9-8.41-9-2.25,0-3.57.37-3.13,3.05A24.72,24.72,0,0,1,94.31,22.09ZM61.15,15.21c.07-1.68,0-1.77-1.37-1.57-4.94.7-9.71,6.1-9.91,11.12-.06,1.44.41,1.68,1.79,1.47C56.64,25.48,60.92,20.6,61.15,15.21Zm64,11.16c-.63-2.49-1.21-4.47-1.6-6.48-.22-1.14-.94-1.08-1.7-1-1.21.13-.69,1-.53,1.57.68,2.48,1.41,4.94,2.15,7.41.22.74.42,1.42,1.51,1.37s1.32-.51,1.56-1.36c.51-1.78,1.1-3.55,1.76-5.63.63,2.08,1.19,3.79,1.66,5.52.23.81.41,1.39,1.45,1.47,1.24.08,1.37-.71,1.63-1.54.71-2.29,1.5-4.56,2.13-6.88.16-.57,1.05-1.51-.23-1.89-1.12-.33-1.66.22-1.89,1.41-.37,1.84-1,3.62-1.59,5.85-.68-2.31-1.24-4.11-1.74-5.93-.2-.68-.28-1.34-1.22-1.39s-1.3.52-1.52,1.37C126.43,22.13,125.83,24,125.11,26.37Zm65.7-4.6c0-2.15,0-4.3,0-6.45,0-.69-.18-1.13-1-1.11s-1.37.14-1.33,1.11c0,.51,0,1,0,1.54,0,1.45.39,3-2.14,2a3.53,3.53,0,0,0-4.24,1.71,6.59,6.59,0,0,0-.35,6.63,3.89,3.89,0,0,0,3.76,2.26c1.48,0,2.77-1.34,4.5-.33.85.49.79-.77.8-1.39C190.82,25.73,190.81,23.75,190.81,21.77Zm52.28-2.09c0-1.53,0-2.83,0-4.12,0-.68.09-1.36-1-1.36s-1.28.53-1.27,1.44c0,4.05,0,8.11,0,12.16,0,.93.16,1.41,1.25,1.43,1.33,0,1-.87,1-1.57,0-1.64,0-3.28.06-4.91a2,2,0,0,1,2.25-2c1.24,0,1.81.88,1.81,2.08,0,1.64,0,3.28,0,4.91,0,.77-.18,1.53,1.09,1.51s1.43-.56,1.39-1.58c-.06-1.3,0-2.59,0-3.89C249.61,19,247.55,17.68,243.09,19.68Zm-42.91,4.4c0,3.24,2,5.43,4.94,5.41a5.16,5.16,0,0,0,5.18-5.55c0-3.16-2.12-5.27-5.13-5.23S200.18,20.88,200.18,24.08Zm-52.79,1.05h-.09a25.09,25.09,0,0,0,0-3.36,3.36,3.36,0,0,0-4.28-3c-1.14.26-2.16,1.44-3.45.14-.29-.3-1.16-.17-1.14.81.07,2.76.09,5.52.08,8.28,0,.9.37,1.19,1.24,1.2s1.14-.48,1.13-1.29c0-1.64,0-3.28.06-4.92.07-1.38.8-2.33,2.28-2.26s1.84,1.11,1.88,2.34c0,1.64,0,3.29,0,4.92,0,.85.19,1.24,1.14,1.22s1.19-.42,1.16-1.26S147.39,26.07,147.39,25.13Zm111.4-.49c.8-.73,3,1.41,3.13-1.39a4.08,4.08,0,0,0-3.38-4.5,4.37,4.37,0,0,0-5.06,2.68,6,6,0,0,0,.43,6.15c1.43,2,3.56,1.81,5.65,1.64.81-.06,1.94.05,1.68-1.32s-1.23-.2-1.85-.36a11.43,11.43,0,0,0-1.55,0c-1.3-.17-2.54-.82-2.4-2.19s1.56-.46,2.38-.69A4.23,4.23,0,0,1,258.79,24.64Zm-145-6c-3.1,0-5.12,2.24-5.07,5.56s2.1,5.34,5.1,5.26,4.92-2.29,4.93-5.48S116.76,18.67,113.74,18.68ZM167,24.08c0-3.33-1.81-5.34-4.88-5.37s-5.15,2.17-5.13,5.48c0,3.13,2.14,5.35,5.06,5.29S167,27.29,167,24.08Zm10.88,1c0-5.41-1.7-7.28-5.75-6.22-.69.18-2,.15-1.58,1.49s1.24.11,1.87.12c.43,0,.86-.11,1.28-.08a1.65,1.65,0,0,1,1.69,1.33c.14,1.12-1,.68-1.49.89s-1.21.18-1.76.39c-1.91.74-3.06,2.09-2.44,4.2s2.37,2.47,4.35,2c.74-.18,1.28-.84,2.31-.15s1.69-.06,1.54-1.36A22.35,22.35,0,0,1,177.85,25.1Zm35.61-1.28V27.7c0,.8-.1,1.52,1.13,1.52s1.22-.57,1.2-1.45c0-1.55-.09-3.11,0-4.65.1-1.3.72-2.36,2.22-2.39s2,1.16,2,2.44c.07,1.55.06,3.1,0,4.65,0,.95.17,1.42,1.26,1.41s1.11-.5,1.09-1.29c0-1.9.09-3.81-.08-5.69-.28-3-2.63-4.28-5.39-3.1-.42.18-.73,1-1.24.54-2.56-2.07-2.24,0-2.26,1.54C213.45,22.1,213.46,23,213.46,23.82Zm19.45.23a24,24,0,0,0,0,2.81,2.47,2.47,0,0,0,3,2.45c.59-.06,1.48.31,1.57-.81.06-.77-.45-.81-1-1.11-2.35-1.22-.86-3.51-1.25-5.3-.26-1.22.47-1.46,1.5-1.39.67.05.88-.43.86-1s-.48-.85-1.06-.83c-.74,0-1.39,0-1.33-1.05,0-.57.12-1.3-.85-1.18-.63.07-1.37.23-1.39.91,0,1-.54,1.23-1.32,1.54-.52.21-.48,1.19-.09,1.31C233.71,21,232.49,22.79,232.91,24.05Zm-79.33-2.26c0-2,0-4,0-6,0-.75.16-1.56-1.08-1.61s-1.15.7-1.15,1.51c0,4,0,7.94,0,11.92,0,.73-.23,1.54,1.06,1.57,1.45,0,1.17-.91,1.17-1.72C153.58,25.59,153.58,23.68,153.58,21.79Z"/><path class="cls-3" d="M27.59,43.62c0-8.35,4.1-14.43,10.93-16.24a9.12,9.12,0,0,1,6.58.34c3.7,1.92,7,1.46,10.79,0,5.11-2,10-.86,14,3.14,1,1,1.14,1.46-.08,2.53-6.94,6.08-6.26,14.9,1.51,20,1.13.74,1.07,1.28.68,2.24a34.05,34.05,0,0,1-6.71,10.65,6.77,6.77,0,0,1-8.25,1.78,13.45,13.45,0,0,0-11.93,0c-3.17,1.48-6,.58-8.44-1.92A35.62,35.62,0,0,1,27.59,43.62Z"/><path class="cls-4" d="M148.3,50A9,9,0,0,1,154,47.09a8.1,8.1,0,0,1,8.18,4.29c2.29,3.91,1.83,10.65-1,14.21s-7.79,4.14-12.81,1c0,3-.13,5.81,0,8.57.14,2.05-1.12,1.7-2.28,1.67s-2.55.53-2.53-1.71c.08-8.79,0-17.58-.05-26.37,0-.79,0-1.47,1-1.3s2.44-.74,3.13.78C148,48.71,147.64,49.4,148.3,50Zm.12,8.08c0,5,2.22,7.52,6,6.84,2.61-.46,4.32-3,4.47-6.73.18-4.18-2-7.25-5.15-7.36-3.4-.11-5.33,2.41-5.36,7Z"/><path class="cls-4" d="M124.49,50.05a8.26,8.26,0,0,1,9.67-2.4c3.71,1.41,5.1,4.63,5.57,8.33a15.38,15.38,0,0,1-.47,5.89c-1.59,6-8.32,9.24-14.7,4.63,0,3.07-.15,5.85,0,8.6.14,2-1,1.77-2.23,1.7s-2.59.61-2.57-1.67c.08-8.79,0-17.58-.07-26.36,0-1,.21-1.6,1.25-1.35s2.52-.94,3,1C124,48.88,123.82,49.44,124.49,50.05Zm.07,8c0,4.2,1.23,6.35,3.94,6.9,3.48.7,5.84-1.45,6.47-5.9s-1.61-8-5-8.18S124.56,53.28,124.56,58Z"/><path class="cls-5" d="M91.52,68.6c2.49-7.78,4.81-15,7.14-22.32A24.8,24.8,0,0,0,100,41.86c.33-2.8,2.23-2.34,4.1-2.5s2.76.49,3.34,2.44c2.47,8.14,5.19,16.2,7.77,24.31.22.7,1.13,2,0,2.11-1.46.09-3.55,1.32-4.51-.89a38.93,38.93,0,0,1-1.91-5.89,1.94,1.94,0,0,0-2.35-1.69c-2.41.14-5.27-.67-7.1.38s-1.75,4.11-2.31,6.33C96.17,70,93.62,67.67,91.52,68.6ZM100,56.22h6.36c.58,0,1.09-.14.87-.86-1.15-3.7-2.33-7.39-3.6-11.4Z"/><path class="cls-5" d="M179.59,68.69a16.46,16.46,0,0,1-5.34-.83c-1.33-.44-1.91-1-1.46-2.63s1-2.12,2.72-1.31a9.2,9.2,0,0,0,7.29.47,4,4,0,0,0,1.26-7c-1.32-1.16-3-1.62-4.57-2.33-3.14-1.43-6.05-3.13-6.47-7a7.41,7.41,0,0,1,4.51-8c3.39-1.53,6.84-1.3,10.34-.25,2.32.7.67,2,.59,3.07-.09,1.4-.84,1.21-1.88.76a9.43,9.43,0,0,0-5.56-.56,3.67,3.67,0,0,0-3.28,2.86,3.48,3.48,0,0,0,1.82,3.94,34.21,34.21,0,0,0,3.68,1.85c5.72,2.5,7.86,5.63,7,10.3C189.38,66.26,185.39,68.77,179.59,68.69Z"/><path class="cls-4" d="M257,59.05a47.25,47.25,0,0,1-4.91,0c-2.41-.25-2.11,1.14-1.55,2.48a5.44,5.44,0,0,0,4.23,3.4,12.58,12.58,0,0,0,5.63-.28c1.16-.33,1.81-.49,2.18,1s.08,2-1.34,2.39a17.38,17.38,0,0,1-8.68.23c-5.55-1.48-8.26-7.12-6.63-13.48,1.49-5.83,6.18-8.87,11.88-7.51,4.86,1.15,6.59,6.14,6.15,10.88-.09,1-.85.9-1.53.9C260.64,59.06,258.83,59.05,257,59.05Zm-2.26-3.36a26.7,26.7,0,0,1,2.83,0c2.11.21,2.33-.7,1.63-2.42a4.16,4.16,0,0,0-3.29-2.9,4.36,4.36,0,0,0-4.5,1.83c-.66.91-1.5,2-1,3s1.69.29,2.56.42A12.14,12.14,0,0,0,254.76,55.69Z"/><path class="cls-5" d="M208.16,57.9c.08-6.77,4-10.85,10.46-10.81,6,0,10.06,4.44,9.94,10.8-.13,6.74-4.33,10.93-10.84,10.82C211.84,68.6,208.09,64.36,208.16,57.9Zm4.71.05c0,4.17,2.09,7.17,5,7.37s5.26-2.39,5.74-6.72c.45-4.09-1.92-7.91-5-8.15C215.3,50.2,212.82,53.46,212.87,58Z"/><path class="cls-5" d="M200.49,42.34a9.71,9.71,0,0,1,.08,1.78c-.46,2.64.52,3.78,3.24,3.28,1.53-.28,1.83.52,1.86,1.92s-.62,1.85-1.84,1.63c-2.72-.48-3.57.63-3.3,3.3.24,2.39,0,4.83.06,7.24,0,2.12.8,3.62,3.2,3.31,1.46-.19,1.53.54,1.51,1.59s.22,2-1.36,2.21c-5.16.87-8-1.36-8-6.64,0-3-.06-6,0-9.05,0-1.34-.15-2.23-1.77-1.95s-1.39-.76-1.37-1.73-.23-2,1.34-1.87c.73,0,2,.46,1.76-1C195.29,42.44,198.39,43.18,200.49,42.34Z"/><path class="cls-5" d="M236.41,50.27c1.68-1.68,3.13-3.06,5.44-3.18,1-.05,1.9.06,1.57,1.3-.28,1,1.16,2.68-1,3.08-4,.71-5.21,2.17-5.31,6.22-.07,3-.11,6,0,9,.08,1.77-.92,1.74-2.11,1.63s-2.48.62-2.47-1.52c0-5.95-.07-11.89-.21-17.83,0-1.5.66-1.77,1.88-1.63,1,.11,2.44-.53,2.25,1.45A13.62,13.62,0,0,0,236.41,50.27Z"/><path class="cls-4" d="M94.31,22.09a24.72,24.72,0,0,0,0-4.13c-.44-2.68.88-3.05,3.13-3.05,6.75,0,9.67,3,8.41,9-.72,3.47-3.24,5.2-7.76,5.35-3.73.13-3.73.13-3.74-3.59Zm2.47-.2a11.23,11.23,0,0,0,0,2.32c.22,1.08-.84,2.69.66,3.18a4.73,4.73,0,0,0,4.36-1.12c2.1-1.71,2.42-6,.61-8a4.67,4.67,0,0,0-5-1.38C96,17.31,97,19,96.8,20.08A9.92,9.92,0,0,0,96.78,21.89Z"/><path class="cls-5" d="M61.15,15.21c-.23,5.39-4.51,10.27-9.49,11-1.38.21-1.85,0-1.79-1.47.2-5,5-10.42,9.91-11.12C61.14,13.44,61.22,13.53,61.15,15.21Z"/><path class="cls-6" d="M125.11,26.37c.72-2.38,1.32-4.24,1.83-6.13.22-.85.52-1.42,1.52-1.37s1,.71,1.22,1.39c.5,1.82,1.06,3.62,1.74,5.93.62-2.23,1.22-4,1.59-5.85.23-1.19.77-1.74,1.89-1.41,1.28.38.39,1.32.23,1.89-.63,2.32-1.42,4.59-2.13,6.88-.26.83-.39,1.62-1.63,1.54-1-.08-1.22-.66-1.45-1.47-.47-1.73-1-3.44-1.66-5.52-.66,2.08-1.25,3.85-1.76,5.63-.24.85-.57,1.31-1.56,1.36s-1.29-.63-1.51-1.37c-.74-2.47-1.47-4.93-2.15-7.41-.16-.58-.68-1.44.53-1.57.76-.08,1.48-.14,1.7,1C123.9,21.9,124.48,23.88,125.11,26.37Z"/><path class="cls-4" d="M190.81,21.77c0,2,0,4,0,5.94,0,.62,0,1.88-.8,1.39-1.73-1-3,.34-4.5.33a3.89,3.89,0,0,1-3.76-2.26,6.59,6.59,0,0,1,.35-6.63,3.53,3.53,0,0,1,4.24-1.71c2.53,1,2.17-.52,2.14-2,0-.51,0-1,0-1.54,0-1,.53-1.09,1.33-1.11s1,.42,1,1.11C190.8,17.47,190.81,19.62,190.81,21.77Zm-2.31,2.39c0-1.86-.42-3.62-2.5-3.57s-2.53,1.71-2.53,3.53.52,3.23,2.43,3.33C188.11,27.56,188.39,25.8,188.5,24.16Z"/><path class="cls-4" d="M243.09,19.68c4.46-2,6.52-.66,6.6,4.08,0,1.3-.05,2.59,0,3.89,0,1-.18,1.57-1.39,1.58s-1.09-.74-1.09-1.51c0-1.63,0-3.27,0-4.91,0-1.2-.57-2-1.81-2.08a2,2,0,0,0-2.25,2c-.1,1.63,0,3.27-.06,4.91,0,.7.31,1.59-1,1.57-1.09,0-1.26-.5-1.25-1.43,0-4.05,0-8.11,0-12.16,0-.91.17-1.45,1.27-1.44s1,.68,1,1.36C243.09,16.85,243.09,18.15,243.09,19.68Z"/><path class="cls-6" d="M200.18,24.08c0-3.2,2-5.32,5-5.37s5.09,2.07,5.13,5.23a5.16,5.16,0,0,1-5.18,5.55C202.16,29.51,200.16,27.32,200.18,24.08Zm2.47.11c0,1.67.42,3.38,2.49,3.41s2.61-1.73,2.64-3.44-.47-3.7-2.68-3.65C203.07,20.56,202.65,22.32,202.65,24.19Z"/><path class="cls-6" d="M147.39,25.13c0,.94,0,1.89,0,2.84s-.23,1.24-1.16,1.26-1.16-.37-1.14-1.22c0-1.63,0-3.28,0-4.92,0-1.23-.47-2.28-1.88-2.34s-2.21.88-2.28,2.26c-.09,1.64-.07,3.28-.06,4.92,0,.81-.17,1.3-1.13,1.29s-1.24-.3-1.24-1.2c0-2.76,0-5.52-.08-8.28,0-1,.85-1.11,1.14-.81,1.29,1.3,2.31.12,3.45-.14a3.36,3.36,0,0,1,4.28,3,25.09,25.09,0,0,1,0,3.36Z"/><path class="cls-4" d="M258.79,24.64a4.23,4.23,0,0,0-1,0c-.82.23-2.24-.62-2.38.69s1.1,2,2.4,2.19a11.43,11.43,0,0,1,1.55,0c.62.16,1.58-1,1.85.36s-.87,1.26-1.68,1.32c-2.09.17-4.22.35-5.65-1.64a6,6,0,0,1-.43-6.15,4.37,4.37,0,0,1,5.06-2.68,4.08,4.08,0,0,1,3.38,4.5C261.79,26.05,259.59,23.91,258.79,24.64ZM257.65,23c.45-.71,2,.76,1.93-.95a1.77,1.77,0,0,0-1.89-1.69,2,2,0,0,0-2.24,1.92C255.5,23.53,256.83,22.59,257.65,23Z"/><path class="cls-6" d="M113.74,18.68c3,0,5,2.09,5,5.34s-2,5.4-4.93,5.48-5-2-5.1-5.26S110.64,18.69,113.74,18.68Zm2.47,5.81c0-2.36-1-4-2.39-4.07s-2.92,1.68-2.8,3.66c.1,1.67.48,3.49,2.59,3.51S116.06,25.85,116.21,24.49Z"/><path class="cls-4" d="M167,24.08c0,3.21-2,5.33-4.95,5.4s-5-2.16-5.06-5.29c0-3.31,2-5.5,5.13-5.48S167,20.75,167,24.08ZM159.3,24c0,1.95,1.1,3.65,2.56,3.62,2.17-.05,2.57-1.76,2.75-3.4.21-1.95-1.23-4-2.65-3.8C159.93,20.69,159.51,22.31,159.3,24Z"/><path class="cls-4" d="M177.85,25.1a22.35,22.35,0,0,0,0,2.59c.15,1.3-.55,2-1.54,1.36s-1.57,0-2.31.15c-2,.49-3.72.21-4.35-2s.53-3.46,2.44-4.2c.55-.21,1.2-.18,1.76-.39s1.63.23,1.49-.89a1.65,1.65,0,0,0-1.69-1.33c-.42,0-.85.09-1.28.08-.63,0-1.45,1.19-1.87-.12s.89-1.31,1.58-1.49C176.15,17.82,177.85,19.69,177.85,25.1Zm-2.22.24c.08-.87-.26-1.38-1.16-1.19-1.15.25-2.47.38-2.5,2a1.28,1.28,0,0,0,1.41,1.45A2.21,2.21,0,0,0,175.63,25.34Z"/><path class="cls-5" d="M213.46,23.82c0-.86,0-1.72,0-2.59,0-1.57-.3-3.61,2.26-1.54.51.41.82-.36,1.24-.54,2.76-1.18,5.11.1,5.39,3.1.17,1.88,0,3.79.08,5.69,0,.79-.1,1.27-1.09,1.29s-1.3-.46-1.26-1.41c0-1.55.06-3.1,0-4.65-.06-1.28-.42-2.47-2-2.44s-2.12,1.09-2.22,2.39c-.11,1.54-.05,3.1,0,4.65,0,.88,0,1.46-1.2,1.45s-1.14-.72-1.13-1.52Z"/><path class="cls-6" d="M232.91,24.05c-.42-1.26.8-3-1.39-3.65-.39-.12-.43-1.1.09-1.31.78-.31,1.28-.56,1.32-1.54,0-.68.76-.84,1.39-.91,1-.12.89.61.85,1.18-.06,1.05.59,1.07,1.33,1.05.58,0,1,.16,1.06.83s-.19,1.05-.86,1c-1-.07-1.76.17-1.5,1.39.39,1.79-1.1,4.08,1.25,5.3.58.3,1.09.34,1,1.11-.09,1.12-1,.75-1.57.81a2.47,2.47,0,0,1-3-2.45A24,24,0,0,1,232.91,24.05Z"/><path class="cls-3" d="M153.58,21.79c0,1.89,0,3.8,0,5.7,0,.81.28,1.75-1.17,1.72-1.29,0-1.06-.84-1.06-1.57,0-4,0-7.95,0-11.92,0-.81-.08-1.56,1.15-1.51s1.08.86,1.08,1.61C153.59,17.81,153.58,19.8,153.58,21.79Z"/><path class="cls-7" d="M148.42,58.09v-.26c0-4.58,2-7.1,5.36-7,3.18.11,5.33,3.18,5.15,7.36-.15,3.7-1.86,6.27-4.47,6.73C150.64,65.61,148.38,63.05,148.42,58.09Z"/><path class="cls-7" d="M124.56,58c0-4.75,2-7.35,5.42-7.18s5.62,3.83,5,8.18-3,6.6-6.47,5.9C125.79,64.38,124.56,62.23,124.56,58Z"/><path class="cls-7" d="M100,56.22,103.59,44c1.27,4,2.45,7.7,3.6,11.4.22.72-.29.86-.87.86Z"/><path class="cls-7" d="M254.76,55.69a12.14,12.14,0,0,1-1.81,0c-.87-.13-2.13.56-2.56-.42s.38-2.12,1-3a4.36,4.36,0,0,1,4.5-1.83,4.16,4.16,0,0,1,3.29,2.9c.7,1.72.48,2.63-1.63,2.42A26.7,26.7,0,0,0,254.76,55.69Z"/><path class="cls-7" d="M212.87,58c-.05-4.49,2.43-7.75,5.71-7.5,3.13.24,5.5,4.06,5,8.15-.48,4.33-2.69,6.93-5.74,6.72S212.92,62.12,212.87,58Z"/><path class="cls-7" d="M96.78,21.89a9.92,9.92,0,0,1,0-1.81c.21-1.1-.78-2.77.66-3.21a4.67,4.67,0,0,1,5,1.38c1.81,2,1.49,6.31-.61,8a4.73,4.73,0,0,1-4.36,1.12c-1.5-.49-.44-2.1-.66-3.18A11.23,11.23,0,0,1,96.78,21.89Z"/><path class="cls-7" d="M188.5,24.16c-.11,1.64-.39,3.4-2.6,3.29-1.91-.1-2.43-1.6-2.43-3.33s.54-3.49,2.53-3.53S188.49,22.3,188.5,24.16Z"/><path class="cls-7" d="M202.65,24.19c0-1.87.42-3.63,2.45-3.68,2.21-.05,2.7,1.85,2.68,3.65s-.57,3.48-2.64,3.44S202.66,25.86,202.65,24.19Z"/><path class="cls-7" d="M257.65,23c-.82-.43-2.15.51-2.2-.72a2,2,0,0,1,2.24-1.92,1.77,1.77,0,0,1,1.89,1.69C259.62,23.78,258.1,22.31,257.65,23Z"/><path class="cls-7" d="M116.21,24.49c-.15,1.36-.48,3.13-2.6,3.1s-2.49-1.84-2.59-3.51c-.12-2,1.35-3.77,2.8-3.66S116.25,22.13,116.21,24.49Z"/><path class="cls-7" d="M159.3,24c.21-1.7.63-3.32,2.66-3.58,1.42-.18,2.86,1.85,2.65,3.8-.18,1.64-.58,3.35-2.75,3.4C160.4,27.66,159.27,26,159.3,24Z"/><path class="cls-7" d="M175.63,25.34a2.21,2.21,0,0,1-2.25,2.29A1.28,1.28,0,0,1,172,26.18c0-1.65,1.35-1.78,2.5-2C175.37,24,175.71,24.47,175.63,25.34Z"/></g></g></svg>