<svg xmlns="http://www.w3.org/2000/svg" xmlns:xlink="http://www.w3.org/1999/xlink" viewBox="0 0 286.33 79.54"><defs><style>.cls-1{isolation:isolate;}.cls-2{fill:#006691;}.cls-3{opacity:0.64;mix-blend-mode:screen;fill:url(#radial-gradient);}.cls-4{mix-blend-mode:multiply;}</style><radialGradient id="radial-gradient" cx="134.22" cy="-88.82" r="383.36" gradientUnits="userSpaceOnUse"><stop offset="0" stop-color="#fff"/><stop offset="0.01" stop-color="#fbfbfb"/><stop offset="0.13" stop-color="#c1c1c1"/><stop offset="0.25" stop-color="#8e8e8e"/><stop offset="0.37" stop-color="#626262"/><stop offset="0.5" stop-color="#3f3f3f"/><stop offset="0.62" stop-color="#232323"/><stop offset="0.74" stop-color="#101010"/><stop offset="0.87" stop-color="#040404"/><stop offset="1"/></radialGradient></defs><title>BtnBlue2</title><g class="cls-1"><g id="Capa_2" data-name="Capa 2"><g id="Capa_1-2" data-name="Capa 1"><path class="cls-2" d="M246.57,79.54H39.77A39.77,39.77,0,0,1,0,39.77H0A39.76,39.76,0,0,1,39.77,0h206.8a39.76,39.76,0,0,1,39.76,39.77h0A39.77,39.77,0,0,1,246.57,79.54Z"/><path class="cls-3" d="M246.57,7.58H39.77A32.23,32.23,0,0,0,7.58,39.77c0,.78.06,1.54.11,2.31h271c.06-.77.12-1.53.12-2.31A32.23,32.23,0,0,0,246.57,7.58Z"/><text class="cls-4"/></g></g></g></svg>