<svg xmlns="http://www.w3.org/2000/svg" xmlns:xlink="http://www.w3.org/1999/xlink" viewBox="0 0 381.8 106.06"><defs><style>.cls-1{isolation:isolate;}.cls-2{fill:url(#linear-gradient);}.cls-3{fill:url(#linear-gradient-2);}.cls-4,.cls-5,.cls-6{opacity:0.58;mix-blend-mode:multiply;}.cls-4{fill:url(#linear-gradient-3);}.cls-5{fill:url(#linear-gradient-4);}.cls-6{fill:url(#linear-gradient-5);}.cls-7{opacity:0.64;mix-blend-mode:screen;fill:url(#radial-gradient);}.cls-8{font-size:60.23px;fill:#1181d2;font-family:Lato-Black, Lato;font-weight:800;}</style><linearGradient id="linear-gradient" x1="190.9" y1="-1.06" x2="190.9" y2="105.7" gradientUnits="userSpaceOnUse"><stop offset="0.1" stop-color="#fff"/><stop offset="0.25" stop-color="#dedede"/><stop offset="0.82" stop-color="#9e9e9e"/></linearGradient><linearGradient id="linear-gradient-2" x1="320.08" y1="3.33" x2="320.08" y2="98.67" gradientUnits="userSpaceOnUse"><stop offset="0" stop-color="#4eb9f8"/><stop offset="0.25" stop-color="#0088da"/><stop offset="0.82" stop-color="#0052da"/><stop offset="1" stop-color="#0070da"/></linearGradient><linearGradient id="linear-gradient-3" x1="289.67" y1="3.33" x2="289.67" y2="98.67" xlink:href="#linear-gradient-2"/><linearGradient id="linear-gradient-4" x1="322.39" y1="3.33" x2="322.39" y2="98.67" xlink:href="#linear-gradient-2"/><linearGradient id="linear-gradient-5" x1="355.1" y1="3.33" x2="355.1" y2="98.67" xlink:href="#linear-gradient-2"/><radialGradient id="radial-gradient" cx="132.12" cy="-85.39" r="507.88" gradientUnits="userSpaceOnUse"><stop offset="0" stop-color="#fff"/><stop offset="0.01" stop-color="#fbfbfb"/><stop offset="0.13" stop-color="#c1c1c1"/><stop offset="0.25" stop-color="#8e8e8e"/><stop offset="0.37" stop-color="#626262"/><stop offset="0.5" stop-color="#3f3f3f"/><stop offset="0.62" stop-color="#232323"/><stop offset="0.74" stop-color="#101010"/><stop offset="0.87" stop-color="#040404"/><stop offset="1"/></radialGradient></defs><title>BtnVinculate</title><g class="cls-1"><g id="Capa_2" data-name="Capa 2"><g id="Capa_1-2" data-name="Capa 1"><rect class="cls-2" width="381.8" height="106.06" rx="9.52"/><path class="cls-3" d="M381.8,96.54v-87A9.52,9.52,0,0,0,372.28,0H258.36l21.73,54.27-21.73,51.79H372.28A9.52,9.52,0,0,0,381.8,96.54Z"/><polygon class="cls-4" points="286.4 0 271.21 0 292.95 54.27 271.21 106.06 286.4 106.06 308.14 54.27 286.4 0"/><polygon class="cls-5" points="319.12 0 303.92 0 325.66 54.27 303.92 106.06 319.12 106.06 340.85 54.27 319.12 0"/><polygon class="cls-6" points="351.83 0 336.64 0 358.38 54.27 336.64 106.06 351.83 106.06 373.57 54.27 351.83 0"/><path class="cls-7" d="M371.7,58.29V23.93a10.2,10.2,0,0,0-10.2-10.19H20.29A10.19,10.19,0,0,0,10.1,23.93V58.29Z"/><text class="cls-8" transform="translate(11.64 74.08) scale(0.94 1)">Vinculate</text></g></g></g></svg>