<svg xmlns="http://www.w3.org/2000/svg" viewBox="0 0 29.34 29.3"><defs><style>.cls-1,.cls-2{fill-rule:evenodd;}.cls-2{fill:#fff;}</style></defs><title>IntagramSocialIcono</title><g id="Capa_2" data-name="Capa 2"><g id="Capa_1-2" data-name="Capa 1"><path class="cls-1" d="M14.63,29.3A14.65,14.65,0,1,1,29.34,14.56,14.53,14.53,0,0,1,14.63,29.3Zm0-6.63h5.76a2,2,0,0,0,2.24-2.2q0-5.76,0-11.52a1.94,1.94,0,0,0-2.21-2.22c-3.84,0-7.67,0-11.51,0A1.94,1.94,0,0,0,6.7,8.91c0,3.84,0,7.67,0,11.51,0,1.66.62,2.21,2.35,2.24S12.79,22.67,14.65,22.67Z"/><path class="cls-2" d="M14.65,22.67c-1.86,0-3.73,0-5.59,0s-2.34-.58-2.35-2.24c0-3.84,0-7.67,0-11.51A1.94,1.94,0,0,1,8.94,6.72c3.84,0,7.67,0,11.51,0a1.94,1.94,0,0,1,2.21,2.22q0,5.76,0,11.52a2,2,0,0,1-2.24,2.2H14.65Zm5.56-9.36-.48.28c0,.1-.13.2-.12.29a5.07,5.07,0,0,1-4.82,5.73c-2.78.11-4.58-1.8-5-5.32,0-.29-.35-.55-.53-.83-.24.3-.67.58-.69.88a46.83,46.83,0,0,0,.05,5.43c0,.39.82,1,1.28,1,3.18.09,6.37,0,9.56.06.93,0,1.45-.31,1.44-1.32,0-1.65,0-3.3,0-4.94A3.72,3.72,0,0,0,20.21,13.31Zm-5.45-1.66a3,3,0,1,0,2.94,3.08A3,3,0,0,0,14.76,11.65Zm3-1.55c-.2,1.32.53,1.57,1.64,1.59s1.48-.6,1.49-1.63-.39-1.58-1.54-1.58S17.54,8.85,17.74,10.1Z"/><path class="cls-1" d="M20.21,13.31a3.72,3.72,0,0,1,.6,1.28c.07,1.64,0,3.29,0,4.94,0,1-.51,1.32-1.44,1.32-3.19,0-6.38,0-9.56-.06-.46,0-1.25-.63-1.28-1a46.83,46.83,0,0,1-.05-5.43c0-.3.45-.58.69-.88.18.28.49.54.53.83.47,3.52,2.27,5.43,5,5.32a5.07,5.07,0,0,0,4.82-5.73c0-.09.08-.19.12-.29Z"/><path class="cls-1" d="M14.76,11.65a3,3,0,1,1-3.12,2.91A3,3,0,0,1,14.76,11.65Z"/><path class="cls-1" d="M17.74,10.1c-.2-1.25.42-1.61,1.59-1.62s1.55.48,1.54,1.58-.28,1.64-1.49,1.63S17.54,11.42,17.74,10.1Z"/></g></g></svg>