<svg xmlns="http://www.w3.org/2000/svg" viewBox="0 0 22.06 22.05"><defs><style>.cls-1,.cls-2{fill-rule:evenodd;}.cls-2{fill:#fff;}</style></defs><title>LinkedinSocialIcono</title><g id="Capa_2" data-name="Capa 2"><g id="Capa_1-2" data-name="Capa 1"><path class="cls-1" d="M22.06,10.77A11,11,0,1,1,10.53,0,11,11,0,0,1,22.06,10.77Zm-8,4.74h1.76c0-1.62.06-3.15,0-4.67a1.94,1.94,0,0,0-2.39-2,8.77,8.77,0,0,0-1.81.61,1.87,1.87,0,0,1,.07-.22l-1.8-.33v6.63h1.74c0-1.41-.06-2.73,0-4A1.26,1.26,0,0,1,13,10.19c.88,0,1,.71,1,1.42C14,12.88,14,14.15,14,15.51ZM6.33,9v6.57H7.92V9Zm0-.87L8,8V6.49H6.29Z"/><path class="cls-2" d="M14,15.51c0-1.36,0-2.63,0-3.9,0-.71-.15-1.38-1-1.42a1.26,1.26,0,0,0-1.38,1.29c-.08,1.31,0,2.63,0,4H9.85V8.89l1.8.33a1.87,1.87,0,0,0-.07.22,8.77,8.77,0,0,1,1.81-.61,1.94,1.94,0,0,1,2.39,2c.07,1.52,0,3.05,0,4.67Z"/><path class="cls-2" d="M6.33,9H7.92v6.57H6.33Z"/><path class="cls-2" d="M6.29,8.1V6.49H8V8Z"/></g></g></svg>