<svg aria-hidden="true" style="position: absolute; width: 0; height: 0; overflow: hidden;" version="1.1" xmlns="http://www.w3.org/2000/svg" xmlns:xlink="http://www.w3.org/1999/xlink">
<defs>
<symbol id="icon-WhiteMail" viewBox="0 0 32 32">
<path fill="none" stroke="#fff" stroke-width="0.9275" stroke-miterlimit="10" stroke-linecap="butt" stroke-linejoin="miter" style="stroke: var(--color1, #fff)" d="M31.536 16c0 8.58-6.956 15.536-15.536 15.536s-15.536-6.956-15.536-15.536c0-8.58 6.956-15.536 15.536-15.536s15.536 6.956 15.536 15.536z"></path>
<path fill="#fff" style="fill: var(--color1, #fff)" d="M26.277 9.637v12.893c-0.192 0.937-1.006 1.634-1.984 1.642h-0.001c-5.445 0-10.88 0-16.325 0-0.005 0-0.010 0-0.016 0-0.852 0-1.575-0.549-1.835-1.313l-0.004-0.014c0-0.102-0.083-0.213-0.13-0.325v-12.883c0.191-0.939 1.005-1.638 1.984-1.651h16.326c0.009-0 0.021-0 0.032-0 0.834 0 1.546 0.527 1.819 1.267l0.004 0.013c0.028 0.13 0.083 0.25 0.13 0.371zM24.246 10.017c-0.132-0.022-0.284-0.035-0.439-0.035-0.522 0-1.011 0.144-1.429 0.394l0.013-0.007c-1.911 1.234-3.877 2.402-5.806 3.608-0.118 0.097-0.27 0.156-0.436 0.156s-0.318-0.059-0.437-0.157l0.001 0.001c-1.948-1.234-3.942-2.402-5.881-3.664-0.39-0.221-0.856-0.351-1.353-0.351-0.157 0-0.312 0.013-0.462 0.038l0.016-0.002v12.141h2.041v-8.877l6.066 3.84 6.122-3.877v8.904h2.003z"></path>
</symbol>
<symbol id="icon-GooglePlay" viewBox="0 0 107 32">
<path fill="#929292" style="fill: var(--color2, #929292)" d="M0 3.833c0.268 0.261 0.158 0.599 0.158 0.903q0 11.258 0 22.523c0 0.305 0.11 0.639-0.154 0.903q-0.004-12.165-0.004-24.33z"></path>
<path fill="#929292" style="fill: var(--color2, #929292)" d="M4.531 0.033c-0.086 0.109-0.219 0.179-0.367 0.179s-0.281-0.070-0.366-0.178l-0.001-0.001z"></path>
<path fill="#929292" style="fill: var(--color2, #929292)" d="M103.487 0.044c-0.087 0.108-0.219 0.177-0.367 0.177s-0.28-0.069-0.366-0.176l-0.001-0.001z"></path>
<path fill="#010101" style="fill: var(--color3, #010101)" d="M53.645 31.211q-24.399 0-48.806 0c-0.896 0-1.781 0-2.552-0.551-0.919-0.581-1.521-1.592-1.521-2.743 0-0.019 0-0.038 0-0.058l-0 0.003q0-11.845 0-23.691c-0-0.021-0.001-0.047-0.001-0.072 0-1.781 1.41-3.234 3.174-3.302l0.006-0c0.367-0.026 0.76-0.022 1.142-0.022h97.23c2.974 0 4.201 1.234 4.197 4.219v22.178c0.007 2.765-1.27 4.039-4.072 4.039zM21.543 19.343c1.3-0.734 2.614-1.406 3.896-2.155s1.245-1.652 0.037-2.379-2.57-1.469-3.844-2.203c-3.698-2.104-7.38-4.245-11.115-6.282-0.621-0.338-1.469-1.164-2.232-0.077-0.204 0.266-0.327 0.604-0.327 0.971 0 0.067 0.004 0.133 0.012 0.197l-0.001-0.008v17.133c0 0.474 0 0.962 0.433 1.296 0.496 0.643 1.069 0.367 1.597 0.092 1.248-0.676 2.486-1.373 3.716-2.060q3.911-2.266 7.828-4.524zM40.412 18.359c-0.602 0-1.208 0.040-1.807 0-0.679-0.062-0.679 0.323-0.683 0.815s0.044 0.789 0.654 0.734c0.694-0.051 1.399 0 2.093-0.022 0.61-0.029 0.694 0.191 0.507 0.734-0.499 1.447-2.299 2.361-3.988 1.957-1.513-0.298-2.673-1.511-2.888-3.029l-0.002-0.019c-0.051-0.226-0.081-0.486-0.081-0.753 0-1.244 0.64-2.339 1.609-2.973l0.014-0.008c1.355-0.947 2.82-0.988 4.168-0.040 0.8 0.562 1.035-0.106 1.333-0.466 0.411-0.503-0.239-0.621-0.481-0.786-0.823-0.547-1.833-0.873-2.92-0.873-1.836 0-3.455 0.93-4.411 2.345l-0.012 0.019c-0.556 0.816-0.887 1.824-0.887 2.909 0 1.788 0.9 3.366 2.272 4.305l0.018 0.012c3.029 2.075 7.711 0.672 7.935-3.437 0.081-1.421 0.129-1.417-1.3-1.414zM63.122 23.529c0.095 0.969-0.088 1.737-0.936 2.093-0.226 0.117-0.494 0.186-0.778 0.186-0.625 0-1.172-0.333-1.472-0.832l-0.004-0.008c-0.477-0.701-0.918-0.073-1.274 0.084-0.558 0.246-0.029 0.584 0.121 0.8 0.804 1.168 2.247 1.605 3.712 1.179 1.303-0.367 2.082-1.428 2.141-3.132 0.066-1.931 0-3.863 0.033-5.794 0-0.485-0.213-0.683-0.617-0.551-0.848 0.279-1.627 0.062-2.427-0.184-0.099-0.021-0.213-0.033-0.33-0.033-0.183 0-0.358 0.030-0.522 0.084l0.012-0.003c-1.289 0.244-2.295 1.229-2.566 2.487l-0.004 0.021c-0.085 0.276-0.133 0.593-0.133 0.921 0 1.090 0.537 2.055 1.361 2.645l0.010 0.007c1.138 0.867 2.372 0.918 3.675 0.040zM77.241 18.965c0 1.469 0 2.937 0 4.377 0 0.22-0.129 0.496 0.253 0.613 0.834 0.257 1.296-0.055 1.3-0.925 0-0.253 0-0.507 0-0.76 0-2.067 0-2.067 2.023-2.093 1.858-0.022 3.235-1.278 3.272-2.985 0.040-1.799-1.248-3.125-3.161-3.198-1.013-0.040-2.031 0.026-3.040 0-0.573-0.026-0.676 0.198-0.665 0.709 0.037 1.421 0.018 2.846 0.018 4.274zM91.506 19.953c-0.434-0.188-0.938-0.297-1.469-0.297s-1.035 0.109-1.493 0.306l0.025-0.009c-0.896 0.397-1.421 1.043-1.395 2.049 0.022 0.944 0.639 1.671 1.627 1.986 0.253 0.093 0.546 0.147 0.851 0.147 0.527 0 1.017-0.16 1.423-0.435l-0.009 0.006c0.176-0.11 0.308-0.507 0.551 0.059 0.176 0.419 0.804 0.191 1.208 0.14s0.206-0.466 0.213-0.734c0.022-0.951-0.018-1.902 0-2.849 0.044-1.223-0.367-2.203-1.516-2.702-0.432-0.225-0.944-0.357-1.487-0.357-0.762 0-1.463 0.26-2.019 0.697l0.007-0.005c-0.308 0.235-0.823 0.613-0.492 0.925s0.793 0.778 1.469 0.213c0.918-0.76 2.174-0.327 2.508 0.874zM54.126 17.349c-0.030-0.001-0.064-0.002-0.099-0.002-1.811 0-3.279 1.468-3.279 3.279 0 0.055 0.001 0.109 0.004 0.163l-0-0.008c-0.001 0.026-0.001 0.057-0.001 0.088 0 1.811 1.468 3.279 3.279 3.279 0.057 0 0.114-0.001 0.171-0.004l-0.008 0c1.817-0.077 3.26-1.569 3.26-3.397 0-1.852-1.481-3.358-3.323-3.399l-0.004-0zM43.328 20.72c-0.001 0.030-0.002 0.065-0.002 0.1 0 1.843 1.494 3.338 3.338 3.338 0.022 0 0.045-0 0.067-0.001l-0.003 0c0.043 0.002 0.094 0.003 0.145 0.003 1.878 0 3.4-1.522 3.4-3.4s-1.522-3.4-3.4-3.4c-0.022 0-0.045 0-0.067 0.001l0.003-0c-0.041-0.002-0.088-0.003-0.136-0.003-1.847 0-3.345 1.498-3.345 3.345 0 0.006 0 0.012 0 0.018v-0.001zM70.866 24.157c1.135 0 1.917-0.228 2.526-0.826 0.209-0.206 0.845-0.415 0.367-0.837-0.334-0.308-0.734-0.925-1.388-0.224-0.311 0.321-0.746 0.52-1.227 0.52-0.454 0-0.866-0.177-1.172-0.466l0.001 0.001c-0.367-0.338-0.433-0.547 0.129-0.76 1.149-0.437 2.28-0.922 3.418-1.395 0.279-0.117 0.617-0.18 0.4-0.657-0.422-0.933-0.999-1.693-2.016-2.005-0.298-0.111-0.642-0.176-1.001-0.176-0.915 0-1.732 0.418-2.271 1.074l-0.004 0.005c-0.546 0.605-0.88 1.411-0.88 2.294 0 0.524 0.117 1.020 0.328 1.465l-0.009-0.021c0.44 1.154 1.519 1.966 2.793 2.008l0.005 0zM99.91 17.592c-1.685-0.095-1.685-0.095-2.236 1.289-0.367 0.925-0.734 1.836-1.16 2.937-0.47-1.146-0.874-2.13-1.281-3.11-0.536-1.296-0.536-1.296-2.108-1.102 0.475 1.251 0.944 2.277 1.47 3.268l-0.075-0.154c1.102 1.858 1.322 3.65 0.022 5.508-0.057 0.097-0.11 0.209-0.153 0.327l-0.005 0.014c-0.022 0.036-0.036 0.080-0.036 0.127 0 0.083 0.041 0.156 0.105 0.2l0.001 0.001c0.308 0.228 1.421-0.026 1.583-0.397 1.267-2.926 2.552-5.879 3.866-8.908zM67.136 19.060c0-1.469-0.029-2.974 0-4.458 0-0.661-0.367-0.598-0.786-0.602s-0.782-0.048-0.775 0.606q0.048 4.369 0 8.732c0 0.584 0.235 0.672 0.734 0.654s0.859 0.048 0.834-0.661c-0.051-1.436-0.015-2.86-0.015-4.285zM84.863 19.060c0 1.425 0.026 2.846 0 4.267-0.018 0.569 0.202 0.712 0.709 0.654 0.408-0.044 0.881 0.165 0.874-0.599q-0.048-4.406 0-8.812c0-0.705-0.433-0.532-0.811-0.551s-0.793-0.073-0.771 0.591c0.026 1.465-0.007 2.952-0.007 4.436zM37.023 8.57c-0.316 1.102-1.212 1.605-2.155 1.259-0.715-0.254-1.218-0.925-1.218-1.713 0-0.244 0.048-0.477 0.136-0.689l-0.004 0.012c0.246-0.681 0.888-1.159 1.641-1.159 0.277 0 0.539 0.065 0.771 0.18l-0.010-0.005c0.29 0.136 0.632 0.639 0.903 0.048 0.228-0.492-0.305-0.613-0.591-0.734-0.32-0.159-0.697-0.252-1.096-0.252-0.601 0-1.153 0.211-1.586 0.564l0.005-0.004c-0.885 0.668-1.054 1.627-0.896 2.633 0.206 1.281 1.553 2.152 2.937 1.961 1.136-0.147 2.005-1.109 2.005-2.273v-0c0-0.386-0.081-0.591-0.518-0.569-0.507 0.026-1.013 0.018-1.52 0-0.312 0-0.455 0.084-0.452 0.422s0.191 0.338 0.433 0.334c0.389-0.018 0.793-0.015 1.215-0.015zM60.684 6.877c0.786 1.245 1.432 2.236 2.045 3.25 0.111 0.231 0.343 0.388 0.611 0.388 0.059 0 0.117-0.008 0.172-0.022l-0.005 0.001c0.433-0.095 0.235-0.463 0.239-0.709 0-1.171 0-2.343 0-3.514 0-0.286 0.14-0.694-0.397-0.672s-0.367 0.419-0.367 0.709c0 0.83 0 1.66 0 2.736-0.734-1.19-1.359-2.137-1.939-3.103-0.124-0.217-0.354-0.361-0.618-0.361-0.069 0-0.136 0.010-0.199 0.028l0.005-0.001c-0.433 0.066-0.29 0.43-0.29 0.683 0 1.204 0 2.409 0 3.613 0 0.264-0.103 0.584 0.367 0.606s0.367-0.305 0.386-0.573c-0.007-0.918-0.011-1.858-0.011-3.059zM56.686 5.537c-1.469 0-2.482 1.065-2.471 2.611-0.002 0.032-0.002 0.070-0.002 0.108 0 1.332 1.080 2.412 2.412 2.412 0.056 0 0.112-0.002 0.168-0.006l-0.008 0c1.37-0.010 2.476-1.122 2.476-2.493 0-0.027-0-0.054-0.001-0.081l0 0.004c0.001-0.020 0.001-0.044 0.001-0.068 0-1.375-1.115-2.489-2.489-2.489-0.030 0-0.060 0.001-0.090 0.002l0.004-0zM38.415 8.129c0 2.57 0 2.57 2.453 2.405 0.014-0.001 0.031-0.001 0.048-0.001s0.033 0.001 0.050 0.001l-0.002-0c0.228 0 0.452 0 0.466-0.323s-0.191-0.43-0.477-0.43c-0.367 0-0.698-0.022-1.043 0-0.485 0.037-0.734-0.048-0.734-0.643s0.187-0.716 0.734-0.734c0.422 0 1.219 0.415 1.237-0.327s-0.786-0.316-1.215-0.367-0.775 0.059-0.778-0.61 0.294-0.716 0.797-0.676c0.128 0.008 0.277 0.012 0.428 0.012s0.3-0.005 0.448-0.013l-0.020 0.001c0.275 0 0.606 0.044 0.617-0.389 0-0.488-0.367-0.437-0.665-0.441-0.569 0-1.142 0.026-1.707 0-0.488-0.026-0.687 0.136-0.657 0.643 0.048 0.624 0.022 1.259 0.022 1.891zM43.188 8.464c0 0.503 0 1.010 0 1.513 0 0.316 0 0.562 0.43 0.565s0.448-0.22 0.444-0.547c0-0.885 0.026-1.77 0-2.651-0.033-0.639 0.055-1.058 0.841-0.925 0.275 0.044 0.499-0.051 0.503-0.4s-0.18-0.43-0.481-0.426c-0.852 0-1.704 0-2.57 0-0.286 0-0.492 0.081-0.488 0.426 0 0.279 0.169 0.444 0.415 0.393 1.013-0.202 0.955 0.448 0.922 1.102-0.011 0.319 0 0.635 0 0.951zM50.245 8.445v0c0 0.507 0 1.013 0 1.516 0 0.286-0.048 0.573 0.393 0.588s0.481-0.264 0.477-0.61c0-0.885 0.029-1.77 0-2.651-0.033-0.624 0.099-0.973 0.808-0.859 0.327 0.051 0.554-0.066 0.536-0.459s-0.272-0.367-0.532-0.367h-2.368c-0.286 0-0.599-0.033-0.621 0.367s0.268 0.481 0.565 0.433c0.76-0.121 0.822 0.305 0.771 0.885-0.055 0.386-0.029 0.767-0.029 1.157zM48.314 8.155v-2.086c0-0.22 0-0.452-0.319-0.452s-0.441 0.136-0.437 0.452c0 1.322 0 2.644 0 3.966 0 0.275 0 0.485 0.389 0.488s0.367-0.231 0.367-0.492z"></path>
<path fill="#01d3fd" style="fill: var(--color4, #01d3fd)" d="M8.401 25.835c-0.437-0.334-0.433-0.823-0.433-1.296v-17.118c-0.007-0.057-0.011-0.123-0.011-0.19 0-0.366 0.121-0.704 0.326-0.975l-0.003 0.004c0.202 0.117 0.376 0.238 0.539 0.373l-0.007-0.005q4.678 4.689 9.345 9.385-4.876 4.917-9.756 9.822z"></path>
<path fill="#f3f3f3" style="fill: var(--color5, #f3f3f3)" d="M40.412 18.359h1.142c1.428 0 1.381 0 1.3 1.414-0.228 4.109-4.906 5.508-7.935 3.437-1.394-0.95-2.297-2.531-2.297-4.322 0-1.078 0.327-2.080 0.888-2.912l-0.012 0.019c0.968-1.434 2.587-2.364 4.423-2.364 1.087 0 2.098 0.326 2.94 0.885l-0.020-0.012c0.242 0.165 0.892 0.283 0.481 0.786-0.297 0.367-0.532 1.028-1.333 0.466-1.348-0.947-2.813-0.907-4.168 0.040-0.983 0.642-1.623 1.737-1.623 2.982 0 0.267 0.029 0.526 0.085 0.776l-0.004-0.024c0.217 1.536 1.377 2.75 2.867 3.044l0.023 0.004c1.689 0.404 3.488-0.51 3.988-1.957 0.187-0.54 0.103-0.76-0.507-0.734-0.694 0.033-1.399-0.029-2.093 0.022-0.61 0.040-0.657-0.268-0.654-0.734s0-0.878 0.683-0.815c0.617 0.051 1.223 0 1.825 0z"></path>
<path fill="#06ec78" style="fill: var(--color6, #06ec78)" d="M18.157 16.013q-4.671-4.693-9.345-9.378c-0.156-0.129-0.33-0.25-0.514-0.357l-0.019-0.010c0.775-1.102 1.616-0.261 2.236 0.077 3.734 2.038 7.417 4.179 11.115 6.282l-3.272 3.374z"></path>
<path fill="#ed354c" style="fill: var(--color7, #ed354c)" d="M18.157 16.013h0.195l3.191 3.341q-3.918 2.244-7.828 4.513c-1.23 0.705-2.467 1.403-3.716 2.078-0.529 0.286-1.102 0.551-1.597-0.092q4.88-4.924 9.756-9.84z"></path>
<path fill="#f3f3f3" style="fill: var(--color5, #f3f3f3)" d="M63.122 23.54c-1.303 0.878-2.526 0.826-3.672-0.059-0.827-0.597-1.358-1.558-1.358-2.643 0-0.322 0.047-0.634 0.134-0.927l-0.006 0.023c0.276-1.279 1.281-2.264 2.55-2.505l0.020-0.003c0.153-0.051 0.328-0.081 0.511-0.081 0.117 0 0.231 0.012 0.341 0.035l-0.011-0.002c0.8 0.246 1.579 0.463 2.427 0.184 0.404-0.132 0.624 0.066 0.617 0.551-0.026 1.931 0.033 3.863-0.033 5.794-0.059 1.704-0.837 2.75-2.141 3.132-1.469 0.426-2.908 0-3.712-1.179-0.151-0.217-0.679-0.554-0.121-0.8 0.367-0.158 0.797-0.786 1.274-0.084 0.305 0.508 0.853 0.843 1.478 0.843 0.283 0 0.55-0.068 0.786-0.19l-0.010 0.005c0.837-0.356 1.021-1.124 0.925-2.093zM63.247 20.731c-0.018-1.146-0.734-1.961-1.74-1.964-1.017 0.11-1.802 0.964-1.802 2.001 0 1.026 0.767 1.872 1.759 1.996l0.010 0.001c1.010 0.026 1.792-0.881 1.773-2.034z"></path>
<path fill="#f6f6f6" style="fill: var(--color8, #f6f6f6)" d="M77.241 18.976c0-1.428 0-2.853 0-4.281 0-0.51 0.092-0.734 0.665-0.709 1.010 0.044 2.027-0.022 3.040 0 1.913 0.073 3.202 1.399 3.161 3.198-0.037 1.707-1.414 2.963-3.272 2.985-2.023 0.026-2.023 0.026-2.023 2.093 0 0.253 0 0.507 0 0.76 0 0.87-0.466 1.182-1.3 0.925-0.367-0.117-0.25-0.393-0.253-0.613-0.026-1.439-0.018-2.901-0.018-4.358zM78.797 16.934c0 0.492 0 0.903 0 1.311 0 0.184-0.022 0.367 0.202 0.477 0.408 0.195 2.592-0.037 2.937-0.334 0.381-0.303 0.624-0.766 0.624-1.286 0-0.681-0.415-1.264-1.006-1.511l-0.011-0.004c-0.414-0.155-0.893-0.244-1.393-0.244-0.431 0-0.846 0.066-1.236 0.19l0.029-0.008c-0.4 0.114-0.055 0.977-0.147 1.41z"></path>
<path fill="#fac404" style="fill: var(--color9, #fac404)" d="M21.543 19.343l-3.183-3.341 3.279-3.382c1.285 0.734 2.57 1.428 3.844 2.203s1.193 1.66-0.037 2.379-2.603 1.425-3.903 2.141z"></path>
<path fill="#f3f3f3" style="fill: var(--color5, #f3f3f3)" d="M91.506 19.964c-0.334-1.201-1.59-1.634-2.515-0.83-0.657 0.565-1.16 0.059-1.469-0.213s0.184-0.69 0.492-0.925c0.549-0.431 1.25-0.691 2.012-0.691 0.543 0 1.055 0.132 1.505 0.366l-0.018-0.009c1.153 0.507 1.561 1.469 1.516 2.702-0.033 0.947 0 1.898 0 2.849 0 0.25 0.173 0.668-0.213 0.734s-1.032 0.279-1.208-0.14c-0.242-0.565-0.367-0.169-0.551-0.059-0.397 0.269-0.887 0.429-1.414 0.429-0.305 0-0.598-0.054-0.869-0.152l0.018 0.006c-0.988-0.316-1.605-1.043-1.627-1.986-0.026-1.006 0.499-1.652 1.395-2.049 0.445-0.199 0.965-0.315 1.511-0.315 0.517 0 1.010 0.104 1.458 0.291l-0.025-0.009zM90.301 20.929c-0.701 0.033-1.487 0.088-1.575 0.977-0.070 0.701 0.576 0.815 1.138 0.83 0.734 0 1.762-0.771 1.623-1.303s-0.723-0.444-1.186-0.503z"></path>
<path fill="#f3f3f3" style="fill: var(--color5, #f3f3f3)" d="M54.126 17.36c1.846 0.041 3.326 1.547 3.326 3.399 0 1.829-1.444 3.32-3.253 3.397l-0.007 0c-0.049 0.003-0.105 0.004-0.163 0.004-1.811 0-3.279-1.468-3.279-3.279 0-0.031 0-0.062 0.001-0.093l-0 0.005c-0.002-0.047-0.004-0.101-0.004-0.156 0-1.811 1.468-3.279 3.279-3.279 0.035 0 0.070 0.001 0.104 0.002l-0.005-0zM52.291 20.738c-0.001 0.028-0.002 0.061-0.002 0.094 0 1.029 0.793 1.874 1.802 1.954l0.007 0c1.066-0.034 1.918-0.907 1.918-1.978 0-0.026-0.001-0.052-0.002-0.078l0 0.004c0.002-0.035 0.004-0.076 0.004-0.117 0-1.030-0.835-1.865-1.865-1.865s-1.865 0.835-1.865 1.865c0 0.041 0.001 0.082 0.004 0.122l-0-0.006z"></path>
<path fill="#f3f3f3" style="fill: var(--color5, #f3f3f3)" d="M43.328 20.72c-0-0.005-0-0.011-0-0.017 0-1.847 1.498-3.345 3.345-3.345 0.048 0 0.095 0.001 0.143 0.003l-0.007-0c0.019-0 0.041-0.001 0.064-0.001 1.878 0 3.4 1.522 3.4 3.4s-1.522 3.4-3.4 3.4c-0.051 0-0.101-0.001-0.152-0.003l0.007 0c-0.019 0-0.041 0.001-0.064 0.001-1.843 0-3.338-1.494-3.338-3.338 0-0.035 0.001-0.070 0.002-0.105l-0 0.005zM44.884 20.779c-0.001 0.020-0.001 0.044-0.001 0.068 0 1.034 0.812 1.877 1.833 1.929l0.005 0c1.058-0.049 1.897-0.919 1.897-1.984 0-0.033-0.001-0.066-0.002-0.098l0 0.005c0-0.004 0-0.010 0-0.015 0-1.059-0.858-1.917-1.917-1.917-0.003 0-0.005 0-0.008 0h0c-1.007 0.044-1.807 0.872-1.807 1.886 0 0.045 0.002 0.089 0.005 0.132l-0-0.006z"></path>
<path fill="#f3f3f3" style="fill: var(--color5, #f3f3f3)" d="M70.866 24.157c-1.272-0.050-2.342-0.86-2.772-1.987l-0.007-0.021c-0.201-0.423-0.319-0.92-0.319-1.444 0-0.884 0.334-1.689 0.883-2.297l-0.003 0.003c0.543-0.661 1.36-1.079 2.275-1.079 0.359 0 0.703 0.064 1.021 0.182l-0.020-0.007c1.017 0.312 1.594 1.072 2.016 2.005 0.217 0.477-0.121 0.54-0.4 0.657-1.138 0.474-2.269 0.958-3.418 1.395-0.562 0.213-0.496 0.422-0.129 0.76 0.305 0.288 0.717 0.465 1.171 0.465 0.481 0 0.916-0.199 1.226-0.519l0-0c0.668-0.701 1.054-0.084 1.388 0.224 0.459 0.422-0.176 0.632-0.367 0.837-0.635 0.599-1.417 0.845-2.545 0.826zM72.269 19.384c-0.503-0.602-1.017-0.804-1.663-0.573-0.786 0.283-1.197 0.837-1.27 1.792z"></path>
<path fill="#f3f3f3" style="fill: var(--color5, #f3f3f3)" d="M99.903 17.592c-1.314 3.029-2.6 5.981-3.874 8.926-0.162 0.367-1.274 0.624-1.583 0.397-0.064-0.044-0.106-0.117-0.106-0.2 0-0.047 0.013-0.091 0.036-0.128l-0.001 0.001c0.047-0.132 0.101-0.245 0.163-0.351l-0.005 0.010c1.3-1.836 1.102-3.631-0.022-5.508-0.451-0.837-0.921-1.863-1.329-2.919l-0.066-0.195c1.572-0.213 1.572-0.213 2.108 1.102 0.408 0.98 0.811 1.964 1.281 3.11 0.433-1.102 0.793-2.031 1.16-2.937 0.551-1.403 0.551-1.403 2.236-1.307z"></path>
<path fill="#f3f3f3" style="fill: var(--color5, #f3f3f3)" d="M67.128 19.046c0 1.425-0.037 2.849 0 4.27 0.026 0.709-0.367 0.643-0.834 0.661s-0.734-0.070-0.734-0.654q0.044-4.369 0-8.732c0-0.654 0.345-0.61 0.775-0.606s0.804-0.059 0.786 0.602c-0.022 1.483 0.007 2.971 0.007 4.458z"></path>
<path fill="#fcfcfc" style="fill: var(--color10, #fcfcfc)" d="M84.856 19.046c0-1.469 0.033-2.971 0-4.454-0.022-0.665 0.367-0.61 0.771-0.591s0.819-0.154 0.811 0.551q-0.044 4.406 0 8.812c0 0.764-0.466 0.554-0.874 0.599-0.507 0.059-0.734-0.084-0.709-0.654 0.026-1.417 0-2.838 0-4.263z"></path>
<path fill="#ececec" style="fill: var(--color11, #ececec)" d="M37.023 8.57c-0.422 0-0.826 0-1.226 0-0.242 0-0.43 0-0.433-0.334s0.14-0.433 0.452-0.422c0.507 0.018 1.013 0.026 1.52 0 0.437-0.022 0.51 0.184 0.518 0.569-0.004 1.161-0.871 2.119-1.993 2.264l-0.011 0.001c-1.37 0.191-2.717-0.679-2.937-1.961-0.158-1.006 0-1.964 0.896-2.633 0.428-0.349 0.98-0.56 1.581-0.56 0.399 0 0.776 0.093 1.11 0.258l-0.015-0.007c0.286 0.132 0.819 0.253 0.591 0.734-0.272 0.591-0.613 0.088-0.903-0.048-0.218-0.106-0.474-0.167-0.745-0.167-0.758 0-1.403 0.485-1.642 1.161l-0.004 0.012c-0.082 0.199-0.129 0.43-0.129 0.673 0 0.793 0.509 1.467 1.218 1.714l0.013 0.004c0.929 0.345 1.836-0.154 2.141-1.259z"></path>
<path fill="#ececec" style="fill: var(--color11, #ececec)" d="M60.684 6.877c0 1.208 0 2.141 0 3.073 0 0.268 0.099 0.591-0.386 0.573s-0.367-0.341-0.367-0.606c0-1.204 0-2.409 0-3.613 0-0.253-0.143-0.617 0.29-0.683 0.058-0.017 0.125-0.027 0.194-0.027 0.264 0 0.494 0.144 0.616 0.358l0.002 0.003c0.58 0.966 1.193 1.913 1.939 3.103 0-1.076 0-1.906 0-2.736 0-0.29-0.136-0.683 0.367-0.709s0.397 0.386 0.397 0.672c0 1.171 0 2.343 0 3.514 0 0.246 0.195 0.613-0.239 0.709-0.050 0.013-0.108 0.021-0.167 0.021-0.269 0-0.501-0.157-0.61-0.384l-0.002-0.004c-0.602-1.028-1.248-2.020-2.034-3.264z"></path>
<path fill="#ececec" style="fill: var(--color11, #ececec)" d="M56.686 5.537c0.024-0.001 0.053-0.001 0.082-0.001 1.375 0 2.489 1.115 2.489 2.489 0 0.029-0.001 0.058-0.001 0.086l0-0.004c0.001 0.023 0.001 0.050 0.001 0.077 0 1.371-1.106 2.483-2.475 2.493h-0.001c-0.048 0.003-0.104 0.005-0.16 0.005-1.332 0-2.412-1.080-2.412-2.412 0-0.038 0.001-0.076 0.003-0.113l-0 0.005c-0.007-1.553 0.995-2.618 2.475-2.625zM58.426 8.071c0.002-0.034 0.004-0.073 0.004-0.112 0-0.925-0.75-1.674-1.674-1.674-0.031 0-0.062 0.001-0.093 0.003l0.004-0c-0.948 0.044-1.7 0.824-1.7 1.779 0 0.005 0 0.009 0 0.014v-0.001c-0 0.011-0 0.024-0 0.037 0 0.977 0.779 1.772 1.749 1.799l0.002 0c1.002 0 1.715-0.771 1.707-1.836z"></path>
<path fill="#d0d0d0" style="fill: var(--color12, #d0d0d0)" d="M38.415 8.129c0-0.632 0.026-1.267 0-1.898-0.029-0.507 0.169-0.668 0.657-0.643 0.565 0.029 1.138 0 1.707 0 0.316 0 0.672-0.048 0.665 0.441s-0.341 0.367-0.617 0.389c-0.128 0.008-0.277 0.012-0.428 0.012s-0.3-0.005-0.448-0.013l0.020 0.001c-0.503-0.040-0.804 0-0.797 0.676s0.367 0.543 0.778 0.61 1.23-0.367 1.215 0.367-0.815 0.312-1.237 0.327c-0.565 0.018-0.76 0.132-0.734 0.734s0.257 0.679 0.734 0.643c0.345-0.029 0.694 0 1.043 0 0.286 0 0.496 0.077 0.477 0.43s-0.239 0.319-0.466 0.323c-0.014-0.001-0.031-0.001-0.048-0.001s-0.033 0.001-0.050 0.001l0.002-0c-2.478 0.18-2.478 0.18-2.475-2.398z"></path>
<path fill="#d0d0d0" style="fill: var(--color12, #d0d0d0)" d="M43.203 8.464c0-0.316 0-0.632 0-0.947 0.033-0.657 0.092-1.307-0.922-1.102-0.246 0.051-0.411-0.114-0.415-0.393 0-0.345 0.202-0.426 0.488-0.426 0.856 0 1.707 0 2.57 0 0.301 0 0.485 0.092 0.481 0.426s-0.228 0.444-0.503 0.4c-0.786-0.132-0.874 0.286-0.841 0.925 0.044 0.881 0 1.766 0 2.651 0 0.327-0.037 0.551-0.444 0.547s-0.437-0.25-0.43-0.565c0.022-0.507 0.015-1.013 0.015-1.516z"></path>
<path fill="#d0d0d0" style="fill: var(--color12, #d0d0d0)" d="M50.245 8.445c0-0.367-0.026-0.76 0-1.135 0.051-0.58 0-1.006-0.771-0.885-0.297 0.048-0.587-0.022-0.565-0.433s0.334-0.367 0.621-0.367h2.368c0.261 0 0.518 0 0.532 0.367s-0.209 0.51-0.536 0.459c-0.709-0.114-0.841 0.235-0.808 0.859 0.048 0.881 0 1.766 0 2.651 0 0.345 0 0.628-0.477 0.61s-0.393-0.301-0.393-0.588c0-0.503 0-1.010 0-1.516z"></path>
<path fill="#ececec" style="fill: var(--color11, #ececec)" d="M48.314 8.144v1.887c0 0.261 0.026 0.499-0.367 0.492s-0.389-0.213-0.389-0.488c0-1.322 0-2.644 0-3.966 0-0.316 0.114-0.455 0.437-0.452s0.319 0.231 0.319 0.452z"></path>
<path fill="#080808" style="fill: var(--color13, #080808)" d="M63.247 20.731c0.018 1.153-0.764 2.060-1.773 2.049-1.038-0.088-1.848-0.952-1.848-2.005 0-1.065 0.828-1.937 1.875-2.008l0.006-0c1.002 0.004 1.722 0.819 1.74 1.964z"></path>
<path fill="#080808" style="fill: var(--color13, #080808)" d="M78.797 16.934c0.092-0.433-0.253-1.296 0.162-1.41 0.361-0.115 0.776-0.182 1.207-0.182 0.5 0 0.979 0.089 1.421 0.253l-0.028-0.009c0.602 0.251 1.017 0.835 1.017 1.515 0 0.52-0.242 0.984-0.621 1.284l-0.003 0.003c-0.367 0.297-2.545 0.529-2.937 0.334-0.224-0.11-0.198-0.294-0.202-0.477-0.018-0.408-0.015-0.819-0.015-1.311z"></path>
<path fill="#080808" style="fill: var(--color13, #080808)" d="M90.301 20.929c0.463 0.048 1.035-0.044 1.186 0.503s-0.881 1.333-1.623 1.333c-0.562 0-1.208-0.128-1.138-0.83 0.088-0.907 0.867-0.962 1.575-1.006z"></path>
<path fill="#080808" style="fill: var(--color13, #080808)" d="M52.28 20.738c-0.002-0.035-0.004-0.076-0.004-0.117 0-1.030 0.835-1.865 1.865-1.865s1.865 0.835 1.865 1.865c0 0.041-0.001 0.082-0.004 0.122l0-0.006c0.001 0.022 0.001 0.048 0.001 0.074 0 1.072-0.852 1.944-1.915 1.978l-0.003 0c-1.016-0.081-1.809-0.925-1.809-1.955 0-0.034 0.001-0.069 0.003-0.102l-0 0.005z"></path>
<path fill="#080808" style="fill: var(--color13, #080808)" d="M44.888 20.779c-0.003-0.038-0.004-0.081-0.004-0.125 0-1.026 0.818-1.86 1.838-1.887l0.002-0c0.002 0 0.005 0 0.007 0 1.059 0 1.917 0.858 1.917 1.917 0 0.005-0 0.010-0 0.015v-0.001c0.001 0.025 0.002 0.053 0.002 0.082 0 1.071-0.847 1.943-1.907 1.985l-0.004 0c-1.032-0.044-1.851-0.891-1.851-1.93 0-0.020 0-0.040 0.001-0.060l-0 0.003z"></path>
<path fill="#080808" style="fill: var(--color13, #080808)" d="M72.262 19.384l-2.937 1.219c0.073-0.955 0.485-1.509 1.27-1.792 0.639-0.231 1.164-0.029 1.667 0.573z"></path>
<path fill="#080808" style="fill: var(--color13, #080808)" d="M58.426 8.078c0 1.072-0.705 1.836-1.707 1.836-0.973-0.026-1.752-0.822-1.752-1.799 0-0.013 0-0.026 0-0.039l-0 0.002c0-0.003-0-0.006-0-0.009 0-0.955 0.752-1.735 1.696-1.779l0.004-0c0.026-0.002 0.057-0.002 0.089-0.002 0.925 0 1.674 0.75 1.674 1.674 0 0.041-0.001 0.081-0.004 0.122l0-0.005z"></path>
<path fill="#a5a5a5" style="fill: var(--color14, #a5a5a5)" d="M0 3.833q0.466-3.327 3.793-3.797c0.086 0.109 0.219 0.179 0.367 0.179s0.281-0.070 0.366-0.178l0.001-0.001c0.349 0 0.694-0.033 1.043-0.033h96.14c0.345 0 0.694 0.022 1.043 0.033 0.087 0.108 0.219 0.177 0.367 0.177s0.28-0.069 0.366-0.176l0.001-0.001c2.232 0.202 3.826 1.979 3.815 4.593q-0.040 11.357 0 22.718c0 2.702-1.685 4.428-3.815 4.601-0.059-0.095-0.114-0.088-0.165 0-0.411 0-0.823 0.033-1.234 0.033q-47.785 0-95.563 0c-0.367 0-0.698 0-1.046-0.029-0.117-0.18-0.239-0.18-0.367 0h-0.962c-0.114-0.187-0.231-0.191-0.367 0-2.028-0.151-3.635-1.761-3.781-3.776l-0.001-0.013c0.264-0.264 0.154-0.599 0.154-0.903q0-11.261 0-22.523c0.004-0.305 0.114-0.643-0.154-0.903zM53.645 31.211h48.799c2.794 0 4.072-1.289 4.068-4.065v-22.152c0-2.985-1.223-4.219-4.197-4.219h-97.223c-0.367 0-0.764 0-1.142 0.022-1.771 0.069-3.181 1.521-3.181 3.302 0 0.025 0 0.051 0.001 0.076l-0-0.004q0 11.849 0 23.691c-0 0.017-0 0.037-0 0.057 0 1.15 0.6 2.16 1.504 2.733l0.013 0.008c0.771 0.551 1.656 0.551 2.552 0.551q24.407 0 48.806 0z"></path>
<path fill="#929292" style="fill: var(--color2, #929292)" d="M3.793 31.945c0.125-0.184 0.242-0.18 0.367 0z"></path>
<path fill="#929292" style="fill: var(--color2, #929292)" d="M5.141 31.967c0.121-0.18 0.242-0.18 0.367 0z"></path>
<path fill="#929292" style="fill: var(--color2, #929292)" d="M103.325 31.963c0.051-0.095 0.106-0.103 0.165 0h-0.081z"></path>
</symbol>
<symbol id="icon-AppStore" viewBox="0 0 108 32">
<path fill="#abacaf" style="fill: var(--color15, #abacaf)" d="M53.887 0.041c16.558 0 33.115 0.037 49.677-0.041 0.024-0.001 0.053-0.001 0.081-0.001 2.301 0 4.166 1.865 4.166 4.166 0 0.015-0 0.029-0 0.044l0-0.002c-0.111 7.974-0.041 15.952-0.041 23.926 0.003 0.052 0.004 0.112 0.004 0.173 0 2.040-1.654 3.693-3.693 3.693-0.055 0-0.109-0.001-0.163-0.004l0.008 0h-100.122c-0.033 0.001-0.073 0.002-0.112 0.002-2.040 0-3.693-1.654-3.693-3.693 0-0.034 0-0.069 0.001-0.103l-0 0.005q0-12.111 0-24.218c0-2.397 1.54-3.948 3.922-3.948zM53.887 31.28h49.754c2.194 0 3.365-1.171 3.365-3.346q0-11.919 0-23.83c0.005-0.068 0.007-0.147 0.007-0.226 0-0.592-0.148-1.15-0.408-1.639l0.009 0.019c-0.783-1.344-2.050-1.581-3.453-1.581q-37.034 0-74.072 0h-24.783c-2.319 0.011-3.642 1.171-3.649 3.387q-0.048 11.959 0 23.926c0 2.19 1.259 3.324 3.453 3.324z"></path>
<path fill="#030303" style="fill: var(--color16, #030303)" d="M53.876 31.28h-49.765c-2.194 0-3.442-1.108-3.453-3.324q-0.055-11.941 0-23.893c0-2.194 1.33-3.361 3.649-3.365h24.787q37.038 0 74.072 0c1.403 0 2.67 0.236 3.453 1.581 0.251 0.47 0.399 1.028 0.399 1.62 0 0.080-0.003 0.159-0.008 0.237l0.001-0.011q0 11.919 0 23.83c0 2.175-1.171 3.346-3.365 3.346zM10.19 16.111c0.122 3.214 1.379 6.114 3.379 8.329l-0.010-0.012c0.894 0.923 1.946 1.256 3.117 0.709 0.642-0.325 1.401-0.515 2.203-0.515s1.561 0.19 2.232 0.528l-0.029-0.013c0.324 0.164 0.706 0.26 1.111 0.26 0.778 0 1.474-0.356 1.932-0.914l0.003-0.004c1.025-1.11 1.858-2.416 2.434-3.852l0.030-0.085c0.144-0.369 0.166-0.554-0.251-0.827-2.87-1.88-3.121-5.138-0.558-7.387 0.451-0.395 0.399-0.572 0.030-0.934-1.477-1.477-3.298-1.887-5.171-1.16-1.4 0.539-2.619 0.709-3.985 0-0.405-0.186-0.878-0.294-1.377-0.294-0.377 0-0.739 0.062-1.077 0.176l0.024-0.007c-2.523 0.672-4.052 2.918-4.037 6.002zM54.774 18.467c-0.244-0.225-0.118-0.48-0.203-0.669-0.255-0.561-0.765-0.218-1.156-0.288s-0.369 0.188-0.369 0.48c0.018 3.247 0.048 6.493 0.018 9.74 0 0.827 0.499 0.624 0.934 0.632s0.894 0.14 0.842-0.617c-0.063-1.019 0-2.050 0-3.165 1.847 1.171 3.664 0.994 4.731-0.369s1.208-3.804 0.369-5.248c-0.512-0.958-1.505-1.599-2.648-1.599-0.146 0-0.29 0.010-0.43 0.031l0.016-0.002c-0.84 0.094-1.574 0.489-2.103 1.072l-0.002 0.003zM45.98 18.467c-0.247-0.225-0.166-0.432-0.203-0.609-0.163-0.709-0.739-0.273-1.108-0.369s-0.465 0.14-0.462 0.499c0.022 3.243 0.055 6.489 0.026 9.736 0 0.842 0.524 0.595 0.949 0.617s0.875 0.114 0.824-0.628c-0.070-1.016 0-2.042 0-3.176 2.356 1.703 4.842 0.51 5.429-1.71 0.133-0.459 0.21-0.986 0.21-1.531 0-0.227-0.013-0.451-0.039-0.671l0.003 0.027c-0.174-1.367-0.687-2.556-2.057-3.077-0.35-0.151-0.757-0.239-1.184-0.239-0.964 0-1.824 0.447-2.383 1.145l-0.005 0.006zM33.791 25.319c0.776-0.343 1.717 0.532 2.054-0.79 0.207-0.82 0.207-1.972 0.853-2.338s1.732-0.089 2.622-0.14c0.047-0.011 0.1-0.017 0.155-0.017 0.369 0 0.673 0.279 0.712 0.638l0 0.003c0.204 0.847 0.446 1.572 0.741 2.27l-0.035-0.094c0.369 0.816 1.108 0.369 1.666 0.329 0.414-0.030 0.078-0.521 0-0.779-0.946-2.977-1.932-5.954-2.862-8.96-0.214-0.72-0.506-0.96-1.234-0.901s-1.392-0.111-1.514 0.923c-0.134 0.626-0.31 1.171-0.532 1.692l0.023-0.060c-0.861 2.685-1.721 5.37-2.637 8.244zM66.319 25.355c2.142 0.026 3.616-0.901 3.919-2.467 0.332-1.725-0.458-2.881-2.585-3.804-0.542-0.234-0.988-0.462-1.418-0.715l0.059 0.032c-0.424-0.216-0.709-0.649-0.709-1.149 0-0.109 0.013-0.214 0.039-0.315l-0.002 0.009c0.14-0.572 0.63-0.997 1.226-1.038l0.004-0c0.208-0.044 0.448-0.070 0.693-0.070 0.491 0 0.959 0.102 1.383 0.285l-0.023-0.009c0.369 0.166 0.661 0.236 0.694-0.281 0.030-0.369 0.639-0.875-0.218-1.134-1.293-0.369-2.585-0.473-3.819 0.092-1.004 0.421-1.696 1.395-1.696 2.531 0 0.143 0.011 0.283 0.032 0.42l-0.002-0.015c0.155 1.444 1.23 2.072 2.39 2.585 0.576 0.262 1.2 0.432 1.688 0.861 0.354 0.273 0.579 0.696 0.579 1.173 0 0.661-0.435 1.221-1.034 1.41l-0.010 0.003c-0.341 0.126-0.735 0.199-1.146 0.199-0.565 0-1.097-0.138-1.566-0.381l0.019 0.009c-0.632-0.299-0.824-0.174-1.005 0.484s0.048 0.809 0.539 0.971c0.59 0.208 1.27 0.33 1.979 0.332h0.001zM94.921 21.81c0.668 0 1.337 0 2.006 0 0.251 0 0.532 0.041 0.565-0.332 0.162-1.751-0.476-3.594-2.271-4.018-2.105-0.502-3.838 0.62-4.388 2.774-0.602 2.349 0.399 4.432 2.449 4.979 0.432 0.104 0.928 0.163 1.438 0.163 0.63 0 1.238-0.091 1.813-0.26l-0.045 0.011c0.524-0.129 0.621-0.369 0.495-0.883s-0.369-0.499-0.805-0.369c-0.379 0.111-0.814 0.175-1.265 0.175-0.288 0-0.57-0.026-0.843-0.076l0.028 0.004c-0.717-0.115-1.3-0.596-1.558-1.242l-0.005-0.014c-0.207-0.495-0.318-1.008 0.572-0.916 0.281 0.016 0.611 0.025 0.942 0.025 0.306 0 0.611-0.008 0.914-0.023l-0.042 0.002zM76.883 21.385c-0.026 2.386 1.359 3.952 3.531 3.993 2.404 0.041 3.956-1.507 4.004-3.996 0.044-2.349-1.452-3.97-3.671-3.989-2.375-0.015-3.834 1.492-3.863 3.993zM74.050 15.638c-0.776 0.31-1.921 0.037-1.699 1.477 0.081 0.554-0.369 0.403-0.65 0.369-0.58-0.037-0.484 0.347-0.495 0.691s-0.059 0.739 0.506 0.639 0.665 0.225 0.654 0.72c-0.030 1.108-0.018 2.216 0 3.343 0.026 1.95 1.060 2.774 2.955 2.452 0.584-0.096 0.499-0.436 0.502-0.816s-0.018-0.657-0.558-0.587c-0.886 0.114-1.178-0.44-1.182-1.223 0-0.89 0.066-1.791-0.022-2.674-0.1-0.986 0.214-1.396 1.219-1.219 0.451 0.081 0.694-0.048 0.68-0.602s-0.122-0.813-0.687-0.709c-1.005 0.185-1.367-0.236-1.197-1.211 0.003-0.055 0.005-0.119 0.005-0.183 0-0.165-0.011-0.327-0.033-0.485l0.002 0.018zM87.317 18.567c-0.004-0.079-0.007-0.171-0.007-0.264s0.003-0.185 0.007-0.277l-0.001 0.013c0.070-0.739-0.469-0.495-0.831-0.536-0.451-0.052-0.705 0.048-0.694 0.602 0.052 2.194 0.085 4.388 0.078 6.585 0 0.79 0.524 0.524 0.912 0.561s0.809 0.052 0.779-0.602c-0.048-1.108-0.033-2.216 0-3.324 0.037-1.477 0.502-2.035 1.961-2.297 0.816-0.148 0.284-0.739 0.369-1.138 0.122-0.458-0.222-0.499-0.58-0.48-0.838 0.026-1.374 0.536-1.994 1.156zM34.833 8.159v1.337c0 1.374 0 1.374 1.381 1.326 1.669-0.055 2.585-0.694 2.866-1.976 0.465-2.216-0.613-3.324-3.106-3.324-0.831 0-1.319 0.137-1.156 1.127 0.025 0.253 0.039 0.547 0.039 0.844 0 0.234-0.009 0.467-0.026 0.697l0.002-0.031zM22.585 5.618c0.026-0.62 0-0.654-0.506-0.58-1.825 0.259-3.586 2.253-3.66 4.107-0.022 0.532 0.151 0.62 0.661 0.543 1.839-0.277 3.42-2.079 3.505-4.070zM46.223 9.74c-0.233-0.92-0.447-1.651-0.591-2.393-0.081-0.421-0.347-0.399-0.628-0.369-0.447 0.048-0.255 0.369-0.196 0.58 0.251 0.916 0.521 1.825 0.794 2.737 0.081 0.273 0.155 0.524 0.558 0.506s0.488-0.188 0.576-0.502c0.188-0.657 0.406-1.311 0.65-2.079 0.233 0.768 0.44 1.4 0.613 2.039 0.085 0.299 0.151 0.513 0.536 0.543 0.458 0.030 0.506-0.262 0.602-0.569 0.262-0.846 0.554-1.684 0.787-2.541 0.059-0.211 0.388-0.558-0.085-0.698-0.414-0.122-0.613 0.081-0.698 0.521-0.137 0.68-0.369 1.337-0.587 2.161-0.251-0.853-0.458-1.518-0.643-2.19-0.074-0.251-0.103-0.495-0.451-0.513s-0.48 0.192-0.561 0.506c-0.203 0.698-0.425 1.389-0.691 2.264zM70.489 8.041c0-0.794 0-1.588 0-2.382 0-0.255-0.066-0.417-0.369-0.41s-0.506 0.052-0.491 0.41c0 0.188 0 0.369 0 0.569 0 0.536 0.144 1.108-0.79 0.739-0.123-0.042-0.264-0.067-0.411-0.067-0.499 0-0.932 0.28-1.151 0.691l-0.003 0.007c-0.25 0.376-0.399 0.838-0.399 1.335 0 0.407 0.1 0.79 0.276 1.127l-0.006-0.013c0.233 0.498 0.73 0.837 1.306 0.837 0.029 0 0.058-0.001 0.087-0.003l-0.004 0c0.547 0 1.023-0.495 1.662-0.122 0.314 0.181 0.292-0.284 0.295-0.513-0.011-0.742-0.015-1.474-0.015-2.205zM89.799 7.269c0-0.565 0-1.045 0-1.522 0-0.251 0.033-0.502-0.369-0.502s-0.473 0.196-0.469 0.532c0 1.496 0 2.995 0 4.491 0 0.344 0.059 0.521 0.462 0.528 0.491 0 0.369-0.321 0.369-0.58 0-0.606 0-1.211 0.022-1.813 0-0.002-0-0.004-0-0.006 0-0.408 0.331-0.739 0.739-0.739 0.033 0 0.065 0.002 0.096 0.006l-0.004-0c0.458 0 0.668 0.325 0.668 0.768 0 0.606 0 1.211 0 1.813 0 0.284-0.066 0.565 0.403 0.558s0.528-0.207 0.513-0.584c-0.022-0.48 0-0.957 0-1.437-0.037-1.765-0.798-2.253-2.445-1.514zM73.95 8.894c0 1.197 0.739 2.006 1.825 1.998 0.004 0 0.008 0 0.013 0 1.053 0 1.906-0.853 1.906-1.906 0-0.051-0.002-0.101-0.006-0.151l0 0.007c0-1.167-0.783-1.946-1.895-1.932s-1.858 0.801-1.858 1.983zM54.452 9.282h-0.033c0.013-0.186 0.021-0.402 0.021-0.62s-0.008-0.435-0.022-0.649l0.002 0.029c-0.046-0.648-0.583-1.156-1.238-1.156-0.122 0-0.24 0.018-0.351 0.050l0.009-0.002c-0.421 0.096-0.798 0.532-1.274 0.052-0.107-0.111-0.428-0.063-0.421 0.299 0.026 1.019 0.033 2.039 0.030 3.058 0 0.332 0.137 0.44 0.458 0.443s0.421-0.177 0.417-0.476c0-0.606 0-1.211 0.022-1.817 0.026-0.51 0.295-0.861 0.842-0.835s0.68 0.41 0.694 0.864c0 0.606 0 1.215 0 1.817 0 0.314 0.070 0.458 0.421 0.451s0.44-0.155 0.428-0.465-0.018-0.694-0.018-1.042zM95.597 9.101c0.295-0.27 1.108 0.521 1.156-0.513 0.007-0.053 0.010-0.114 0.010-0.176 0-0.745-0.54-1.363-1.25-1.485l-0.009-0.001c-0.109-0.026-0.235-0.042-0.364-0.042-0.682 0-1.265 0.423-1.501 1.020l-0.004 0.011c-0.151 0.292-0.24 0.637-0.24 1.003 0 0.475 0.149 0.915 0.404 1.275l-0.005-0.007c0.528 0.739 1.315 0.668 2.087 0.606 0.299-0.022 0.717 0.018 0.621-0.488s-0.454-0.074-0.683-0.133c-0.086-0.006-0.186-0.010-0.286-0.010s-0.201 0.004-0.3 0.010l0.013-0.001c-0.48-0.063-0.938-0.303-0.886-0.809s0.576-0.17 0.879-0.255c0.062-0.009 0.133-0.014 0.205-0.014 0.049 0 0.097 0.002 0.144 0.007l-0.006-0zM42.042 6.885c-1.145 0-1.891 0.827-1.873 2.054s0.776 1.972 1.884 1.943 1.817-0.846 1.821-2.024-0.75-1.961-1.865-1.958zM61.681 8.894c0-1.23-0.669-1.972-1.802-1.983s-1.902 0.801-1.895 2.024c0 1.156 0.79 1.976 1.869 1.954s1.828-0.809 1.828-1.994zM65.699 9.263c0-1.998-0.628-2.689-2.124-2.297-0.255 0.066-0.739 0.055-0.584 0.55s0.458 0.041 0.691 0.044c0.159 0 0.318-0.041 0.473-0.030 0.008-0 0.017-0.001 0.026-0.001 0.295 0 0.541 0.21 0.597 0.488l0.001 0.004c0.052 0.414-0.369 0.251-0.55 0.329s-0.447 0.066-0.65 0.144c-0.705 0.273-1.13 0.772-0.901 1.551s0.875 0.912 1.607 0.739c0.273-0.066 0.473-0.31 0.853-0.055s0.624-0.022 0.569-0.502c-0.016-0.191-0.025-0.413-0.025-0.637 0-0.112 0.002-0.224 0.007-0.335l-0.001 0.016zM78.851 8.79v1.44c0 0.295-0.037 0.561 0.417 0.561s0.451-0.211 0.443-0.536c0-0.572-0.033-1.149 0-1.717 0.037-0.48 0.266-0.872 0.82-0.883s0.739 0.428 0.739 0.901c0.026 0.572 0.022 1.145 0 1.717 0 0.351 0.063 0.524 0.465 0.521s0.41-0.185 0.403-0.476c0-0.702 0.033-1.407-0.030-2.102-0.103-1.108-0.971-1.581-1.991-1.145-0.155 0.066-0.27 0.369-0.458 0.199-0.946-0.765-0.827 0-0.835 0.569 0.011 0.321 0.015 0.654 0.015 0.957zM86.035 8.875c-0.010 0.155-0.015 0.336-0.015 0.519s0.006 0.364 0.016 0.544l-0.001-0.025c-0 0.004-0 0.009-0 0.014 0 0.504 0.408 0.912 0.912 0.912 0.069 0 0.137-0.008 0.202-0.022l-0.006 0.001c0.218-0.022 0.547 0.114 0.58-0.299 0.022-0.284-0.166-0.299-0.369-0.41-0.868-0.451-0.318-1.296-0.462-1.958-0.096-0.451 0.174-0.539 0.554-0.513 0.247 0.018 0.325-0.159 0.318-0.369s-0.177-0.314-0.391-0.307c-0.273 0-0.513 0-0.491-0.388 0-0.211 0.044-0.48-0.314-0.436-0.233 0.026-0.506 0.085-0.513 0.336 0 0.369-0.199 0.454-0.488 0.569-0.192 0.078-0.177 0.44-0.033 0.484 0.787 0.229 0.336 0.89 0.491 1.355zM56.735 8.041c0-0.739 0-1.477 0-2.216 0-0.277 0.059-0.576-0.399-0.595s-0.425 0.259-0.425 0.558c0 1.477 0 2.933 0 4.403 0 0.27-0.085 0.569 0.392 0.58 0.536 0 0.432-0.336 0.432-0.635-0.011-0.683-0.011-1.389-0.011-2.087z"></path>
<path fill="#fcfcfc" style="fill: var(--color10, #fcfcfc)" d="M10.19 16.111c0-3.084 1.514-5.33 4.037-5.998 0.314-0.107 0.677-0.169 1.053-0.169 0.499 0 0.972 0.108 1.398 0.303l-0.021-0.009c1.367 0.709 2.585 0.539 3.985 0 1.887-0.739 3.693-0.318 5.171 1.16 0.369 0.369 0.421 0.539-0.030 0.934-2.563 2.246-2.312 5.503 0.558 7.387 0.417 0.273 0.395 0.473 0.251 0.827-0.61 1.521-1.448 2.825-2.485 3.941l0.007-0.008c-0.462 0.562-1.157 0.918-1.936 0.918-0.405 0-0.787-0.096-1.125-0.267l0.014 0.007c-0.642-0.325-1.401-0.515-2.203-0.515s-1.561 0.19-2.232 0.528l0.029-0.013c-1.171 0.547-2.216 0.214-3.117-0.709-1.984-2.206-3.236-5.105-3.353-8.294l-0.001-0.023z"></path>
<path fill="#f3f3f3" style="fill: var(--color5, #f3f3f3)" d="M54.774 18.467c0.532-0.586 1.265-0.981 2.090-1.073l0.015-0.001c0.111-0.015 0.239-0.023 0.369-0.023 1.146 0 2.142 0.645 2.644 1.591l0.008 0.016c0.846 1.444 0.676 3.934-0.369 5.248s-2.877 1.529-4.731 0.369c0 1.108-0.048 2.146 0 3.165 0.052 0.757-0.414 0.628-0.842 0.617s-0.942 0.196-0.934-0.632c0.030-3.247 0-6.493-0.018-9.74 0-0.292 0-0.543 0.369-0.48s0.901-0.273 1.156 0.288c0.133 0.177 0 0.432 0.244 0.654zM54.818 21.452c0 1.847 0.82 2.777 2.216 2.526 0.964-0.17 1.596-1.108 1.651-2.486 0.066-1.544-0.739-2.678-1.902-2.718-1.256-0.041-1.969 0.89-1.98 2.585z"></path>
<path fill="#f3f3f3" style="fill: var(--color5, #f3f3f3)" d="M45.98 18.486c0.564-0.693 1.417-1.132 2.372-1.132 0.433 0 0.846 0.090 1.219 0.253l-0.020-0.008c1.37 0.521 1.884 1.71 2.057 3.077 0.023 0.193 0.037 0.417 0.037 0.644 0 0.545-0.077 1.072-0.22 1.571l0.010-0.040c-0.587 2.216-3.073 3.413-5.429 1.71 0 1.134-0.055 2.161 0 3.176 0.052 0.739-0.369 0.654-0.824 0.628s-0.957 0.225-0.949-0.617c0.030-3.247 0-6.493-0.026-9.736 0-0.369 0.078-0.591 0.462-0.499s0.931-0.347 1.108 0.369c0.022 0.17-0.044 0.377 0.203 0.602zM46.006 21.44c0 1.551 0.454 2.345 1.455 2.548 1.285 0.259 2.157-0.536 2.39-2.179s-0.595-2.955-1.847-3.021-1.998 0.89-1.998 2.633z"></path>
<path fill="#f6f6f6" style="fill: var(--color8, #f6f6f6)" d="M33.802 25.337c0.92-2.873 1.777-5.54 2.637-8.244 0.195-0.461 0.366-1.007 0.484-1.573l0.010-0.060c0.122-1.034 0.824-0.864 1.514-0.923s1.019 0.181 1.234 0.901c0.912 3.006 1.917 5.983 2.87 8.979 0.081 0.259 0.417 0.739 0 0.779-0.539 0.033-1.311 0.488-1.666-0.329-0.26-0.603-0.502-1.328-0.685-2.077l-0.020-0.099c-0.039-0.362-0.343-0.641-0.713-0.641-0.055 0-0.109 0.006-0.16 0.018l0.005-0.001c-0.89 0.052-1.946-0.247-2.622 0.14s-0.646 1.518-0.853 2.338c-0.318 1.307-1.259 0.447-2.035 0.79zM36.934 20.765h2.349c0.214 0 0.403-0.052 0.321-0.318-0.425-1.367-0.861-2.729-1.33-4.211z"></path>
<path fill="#f6f6f6" style="fill: var(--color8, #f6f6f6)" d="M66.331 25.37c-0.019 0-0.042 0-0.065 0-0.682 0-1.338-0.112-1.95-0.32l0.043 0.013c-0.491-0.163-0.705-0.369-0.539-0.971s0.369-0.783 1.005-0.484c0.45 0.235 0.982 0.373 1.547 0.373 0.411 0 0.805-0.073 1.169-0.206l-0.024 0.008c0.61-0.191 1.044-0.751 1.044-1.413 0-0.476-0.226-0.9-0.576-1.17l-0.003-0.003c-0.488-0.428-1.108-0.598-1.688-0.861-1.16-0.528-2.235-1.156-2.39-2.585-0.021-0.127-0.033-0.273-0.033-0.422 0-1.137 0.693-2.112 1.681-2.526l0.018-0.007c1.252-0.565 2.526-0.48 3.819-0.092 0.857 0.259 0.247 0.739 0.218 1.134-0.033 0.517-0.31 0.447-0.694 0.281-0.401-0.175-0.869-0.277-1.36-0.277-0.245 0-0.485 0.025-0.716 0.074l0.023-0.004c-0.597 0.051-1.080 0.482-1.21 1.047l-0.002 0.009c-0.024 0.092-0.037 0.198-0.037 0.306 0 0.5 0.285 0.933 0.702 1.146l0.007 0.003c0.371 0.221 0.817 0.45 1.278 0.652l0.081 0.032c2.113 0.923 2.903 2.079 2.585 3.804-0.318 1.562-1.791 2.489-3.934 2.46z"></path>
<path fill="#f3f3f3" style="fill: var(--color5, #f3f3f3)" d="M94.921 21.81c-0.271 0.015-0.588 0.024-0.907 0.024s-0.636-0.009-0.951-0.025l0.044 0.002c-0.89-0.092-0.779 0.421-0.572 0.916 0.262 0.66 0.845 1.141 1.551 1.254l0.011 0.002c0.245 0.046 0.527 0.072 0.815 0.072 0.45 0 0.886-0.064 1.297-0.184l-0.033 0.008c0.428-0.122 0.668-0.181 0.805 0.369s0.030 0.739-0.495 0.883c-0.53 0.158-1.138 0.248-1.768 0.248-0.51 0-1.006-0.059-1.482-0.172l0.044 0.009c-2.050-0.547-3.051-2.63-2.449-4.979 0.55-2.153 2.283-3.276 4.388-2.774 1.795 0.425 2.434 2.268 2.271 4.018-0.033 0.369-0.314 0.332-0.565 0.332-0.661 0-1.33-0.004-2.006-0.004zM94.087 20.569c0.156-0.009 0.339-0.014 0.523-0.014s0.367 0.005 0.548 0.015l-0.025-0.001c0.779 0.078 0.861-0.259 0.602-0.894-0.171-0.555-0.635-0.97-1.206-1.070l-0.009-0.001c-0.098-0.021-0.211-0.034-0.327-0.034-0.553 0-1.041 0.279-1.331 0.704l-0.004 0.006c-0.244 0.336-0.554 0.739-0.369 1.108s0.624 0.107 0.946 0.155c0.152 0.018 0.327 0.029 0.505 0.029 0.055 0 0.109-0.001 0.164-0.003l-0.008 0z"></path>
<path fill="#f6f6f6" style="fill: var(--color8, #f6f6f6)" d="M76.883 21.385c0.030-2.5 1.477-4.007 3.863-3.993 2.216 0 3.716 1.64 3.671 3.989-0.048 2.489-1.599 4.037-4.004 3.996-2.172-0.041-3.557-1.607-3.531-3.993zM78.622 21.404c0 1.54 0.772 2.648 1.847 2.722s1.943-0.883 2.12-2.482c0.166-1.511-0.709-2.922-1.847-3.010-1.223-0.092-2.138 1.112-2.12 2.789z"></path>
<path fill="#f6f6f6" style="fill: var(--color8, #f6f6f6)" d="M74.050 15.638c0.021 0.147 0.034 0.317 0.034 0.489 0 0.059-0.001 0.118-0.004 0.177l0-0.008c-0.17 0.975 0.192 1.396 1.197 1.211 0.565-0.103 0.676 0.192 0.687 0.709s-0.229 0.683-0.68 0.602c-1.005-0.177-1.319 0.233-1.219 1.219 0.089 0.883 0 1.784 0.022 2.674 0 0.783 0.295 1.337 1.182 1.223 0.539-0.070 0.565 0.199 0.558 0.587s0.081 0.739-0.502 0.816c-1.906 0.321-2.955-0.502-2.955-2.452 0-1.108-0.022-2.216 0-3.343 0-0.495-0.055-0.824-0.654-0.72s-0.513-0.281-0.506-0.639-0.085-0.739 0.495-0.691c0.27 0 0.739 0.17 0.65-0.369-0.225-1.448 0.92-1.175 1.695-1.485z"></path>
<path fill="#f6f6f6" style="fill: var(--color8, #f6f6f6)" d="M87.317 18.567c0.621-0.62 1.156-1.13 2.009-1.175 0.369-0.018 0.702 0.022 0.58 0.48-0.103 0.369 0.428 0.99-0.369 1.138-1.477 0.262-1.924 0.801-1.961 2.297-0.026 1.108-0.041 2.216 0 3.324 0.030 0.654-0.34 0.643-0.779 0.602s-0.916 0.229-0.912-0.561c0-2.198-0.026-4.392-0.078-6.585 0-0.554 0.244-0.654 0.694-0.602 0.369 0.041 0.901-0.196 0.831 0.536-0.011 0.122-0.017 0.265-0.017 0.409 0 0.048 0.001 0.097 0.002 0.145l-0-0.007z"></path>
<path fill="#f3f3f3" style="fill: var(--color5, #f3f3f3)" d="M34.833 8.159c0.020-0.228 0.032-0.494 0.032-0.763s-0.012-0.534-0.034-0.797l0.002 0.034c-0.163-0.99 0.325-1.127 1.156-1.127 2.493 0 3.572 1.108 3.106 3.324-0.266 1.282-1.197 1.921-2.866 1.976-1.378 0.048-1.378 0.048-1.381-1.326zM35.745 8.085c-0.014 0.129-0.022 0.278-0.022 0.428s0.008 0.3 0.024 0.447l-0.002-0.018c0.081 0.399-0.31 0.994 0.244 1.175 0.127 0.033 0.273 0.052 0.423 0.052 0.459 0 0.877-0.177 1.189-0.467l-0.001 0.001c0.776-0.632 0.894-2.216 0.225-2.955-0.318-0.367-0.785-0.597-1.305-0.597-0.194 0-0.38 0.032-0.554 0.091l0.012-0.004c-0.521 0.155-0.151 0.779-0.225 1.178-0.012 0.112-0.019 0.243-0.019 0.375 0 0.103 0.004 0.206 0.013 0.307l-0.001-0.013z"></path>
<path fill="#f6f6f6" style="fill: var(--color8, #f6f6f6)" d="M22.585 5.618c-0.085 1.991-1.666 3.793-3.505 4.063-0.51 0.078-0.683 0-0.661-0.543 0.074-1.847 1.847-3.849 3.66-4.107 0.502-0.066 0.532-0.033 0.506 0.587z"></path>
<path fill="#ececec" style="fill: var(--color11, #ececec)" d="M46.209 9.74c0.266-0.879 0.488-1.566 0.676-2.264 0.081-0.314 0.192-0.524 0.561-0.506s0.369 0.262 0.451 0.513c0.185 0.672 0.392 1.337 0.643 2.19 0.229-0.824 0.451-1.477 0.587-2.161 0.085-0.44 0.284-0.643 0.698-0.521 0.473 0.14 0.144 0.488 0.085 0.698-0.233 0.857-0.524 1.695-0.787 2.541-0.096 0.307-0.144 0.598-0.602 0.569-0.369-0.030-0.451-0.244-0.536-0.543-0.174-0.639-0.369-1.271-0.613-2.039-0.244 0.768-0.462 1.422-0.65 2.079-0.089 0.314-0.211 0.484-0.576 0.502s-0.476-0.233-0.558-0.506c-0.273-0.912-0.543-1.821-0.794-2.737-0.059-0.214-0.251-0.532 0.196-0.58 0.281-0.030 0.547-0.052 0.628 0.369 0.144 0.742 0.358 1.474 0.591 2.393z"></path>
<path fill="#f3f3f3" style="fill: var(--color5, #f3f3f3)" d="M70.475 8.041c0 0.739 0 1.477 0 2.194 0 0.229 0 0.694-0.295 0.513-0.639-0.369-1.108 0.126-1.662 0.122-0.025 0.002-0.054 0.002-0.083 0.002-0.576 0-1.073-0.339-1.302-0.828l-0.004-0.009c-0.17-0.324-0.27-0.707-0.27-1.114 0-0.497 0.149-0.959 0.405-1.344l-0.006 0.009c0.223-0.418 0.656-0.698 1.155-0.698 0.147 0 0.289 0.024 0.421 0.069l-0.009-0.003c0.934 0.369 0.801-0.192 0.79-0.739 0-0.188 0-0.369 0-0.569 0-0.369 0.196-0.403 0.491-0.41s0.369 0.155 0.369 0.41c-0.004 0.805 0 1.599 0 2.393zM69.621 8.923c0-0.687-0.155-1.337-0.923-1.319s-0.934 0.632-0.934 1.304 0.192 1.193 0.897 1.23c0.816 0.041 0.92-0.609 0.96-1.215z"></path>
<path fill="#f3f3f3" style="fill: var(--color5, #f3f3f3)" d="M89.784 7.269c1.647-0.739 2.408-0.244 2.438 1.507 0 0.48-0.018 0.957 0 1.437 0 0.369-0.066 0.58-0.513 0.584s-0.403-0.273-0.403-0.558c0-0.602 0-1.208 0-1.813 0-0.443-0.211-0.739-0.668-0.768-0.028-0.004-0.060-0.006-0.092-0.006-0.408 0-0.739 0.331-0.739 0.739 0 0.002 0 0.004 0 0.006v-0c-0.037 0.602 0 1.208-0.022 1.813 0 0.259 0.115 0.587-0.369 0.58-0.403 0-0.465-0.185-0.462-0.528 0-1.496 0-2.995 0-4.491 0-0.336 0.063-0.536 0.469-0.532s0.369 0.251 0.369 0.502c-0.007 0.484-0.007 0.964-0.007 1.529z"></path>
<path fill="#ececec" style="fill: var(--color11, #ececec)" d="M73.935 8.894c0-1.182 0.739-1.965 1.847-1.983s1.88 0.765 1.895 1.932c0.003 0.043 0.005 0.093 0.005 0.144 0 1.053-0.853 1.906-1.906 1.906-0.004 0-0.009-0-0.014-0h0.001c-1.097 0.007-1.836-0.801-1.828-1.998zM74.848 8.934c0 0.617 0.155 1.248 0.92 1.259s0.964-0.639 0.975-1.271-0.174-1.367-0.99-1.348c-0.75 0.018-0.905 0.668-0.905 1.359z"></path>
<path fill="#ececec" style="fill: var(--color11, #ececec)" d="M54.438 9.282c0 0.347 0 0.698 0 1.049s-0.085 0.458-0.428 0.465-0.428-0.137-0.421-0.451c0-0.602 0-1.211 0-1.817 0-0.454-0.174-0.842-0.694-0.864s-0.816 0.325-0.842 0.835c-0.033 0.606-0.026 1.211-0.022 1.817 0 0.299-0.063 0.48-0.417 0.476s-0.458-0.111-0.458-0.443c0-1.019 0-2.039-0.030-3.058 0-0.369 0.314-0.41 0.421-0.299 0.476 0.48 0.853 0.044 1.274-0.052 0.103-0.031 0.221-0.048 0.343-0.048 0.656 0 1.192 0.508 1.238 1.152l0 0.004c0.013 0.186 0.021 0.402 0.021 0.62s-0.008 0.435-0.022 0.649l0.002-0.029z"></path>
<path fill="#f3f3f3" style="fill: var(--color5, #f3f3f3)" d="M95.583 9.101c-0.055-0.007-0.12-0.011-0.185-0.011s-0.129 0.004-0.192 0.012l0.008-0.001c-0.303 0.085-0.827-0.229-0.879 0.255s0.406 0.739 0.886 0.809c0.086-0.006 0.186-0.010 0.286-0.010s0.201 0.004 0.3 0.010l-0.013-0.001c0.229 0.059 0.584-0.369 0.683 0.133s-0.321 0.465-0.621 0.488c-0.772 0.063-1.559 0.129-2.087-0.606-0.25-0.354-0.399-0.794-0.399-1.268 0-0.366 0.089-0.711 0.246-1.016l-0.006 0.012c0.24-0.609 0.823-1.031 1.505-1.031 0.129 0 0.254 0.015 0.375 0.044l-0.011-0.002c0.719 0.123 1.259 0.742 1.259 1.486 0 0.062-0.004 0.123-0.011 0.183l0.001-0.007c-0.037 1.042-0.85 0.251-1.145 0.521zM95.162 8.495c0.166-0.262 0.739 0.281 0.713-0.351-0.015-0.349-0.302-0.626-0.653-0.626-0.016 0-0.031 0.001-0.047 0.002l0.002-0c-0.027-0.003-0.058-0.005-0.089-0.005-0.399 0-0.725 0.317-0.738 0.713l-0 0.001c0.018 0.462 0.51 0.114 0.813 0.266z"></path>
<path fill="#ececec" style="fill: var(--color11, #ececec)" d="M42.009 6.899c1.108 0 1.847 0.772 1.847 1.972s-0.739 1.994-1.821 2.024-1.847-0.739-1.884-1.943 0.713-2.050 1.858-2.054zM42.922 9.045c0-0.872-0.369-1.477-0.883-1.503s-1.078 0.62-1.034 1.352c0.037 0.617 0.177 1.289 0.957 1.296s0.905-0.643 0.96-1.145z"></path>
<path fill="#f3f3f3" style="fill: var(--color5, #f3f3f3)" d="M61.681 8.894c0 1.186-0.739 1.969-1.828 1.994s-1.847-0.798-1.869-1.954c0-1.223 0.739-2.031 1.895-2.024s1.802 0.753 1.802 1.983zM58.837 8.864c0 0.72 0.406 1.348 0.946 1.337 0.801-0.018 0.949-0.65 1.016-1.256 0.078-0.72-0.454-1.477-0.979-1.404-0.75 0.1-0.905 0.698-0.982 1.322z"></path>
<path fill="#f3f3f3" style="fill: var(--color5, #f3f3f3)" d="M65.688 9.271c-0.009 0.143-0.014 0.31-0.014 0.478s0.005 0.335 0.015 0.501l-0.001-0.023c0.055 0.48-0.203 0.739-0.569 0.502s-0.58 0-0.853 0.055c-0.739 0.181-1.374 0.078-1.607-0.739s0.196-1.278 0.901-1.551c0.203-0.078 0.443-0.066 0.65-0.144s0.602 0.085 0.55-0.329c-0.057-0.282-0.303-0.492-0.598-0.492-0.009 0-0.018 0-0.028 0.001l0.001-0c-0.155 0-0.314 0.033-0.473 0.030-0.233 0-0.536 0.44-0.691-0.044s0.329-0.484 0.584-0.55c1.503-0.384 2.131 0.307 2.131 2.305zM64.868 9.359c0.030-0.321-0.096-0.51-0.428-0.44-0.425 0.092-0.912 0.14-0.923 0.739-0.003 0.020-0.005 0.043-0.005 0.066 0 0.261 0.212 0.473 0.473 0.473 0.019 0 0.037-0.001 0.055-0.003l-0.002 0c0.004 0 0.010 0 0.015 0 0.451 0 0.816-0.365 0.816-0.816 0-0.007-0-0.013-0-0.020l0 0.001z"></path>
<path fill="#f6f6f6" style="fill: var(--color8, #f6f6f6)" d="M78.84 8.798c0-0.318 0-0.635 0-0.957 0-0.58-0.111-1.333 0.835-0.569 0.188 0.151 0.303-0.133 0.458-0.199 1.019-0.436 1.887 0.037 1.991 1.145 0.063 0.694 0 1.4 0.030 2.102 0 0.292-0.037 0.469-0.403 0.476s-0.48-0.17-0.465-0.521c0-0.572 0.022-1.145 0-1.717-0.022-0.473-0.155-0.912-0.739-0.901s-0.783 0.403-0.82 0.883c-0.041 0.569-0.018 1.145 0 1.717 0 0.325 0 0.539-0.443 0.536s-0.421-0.266-0.417-0.561z"></path>
<path fill="#ececec" style="fill: var(--color11, #ececec)" d="M86.024 8.883c-0.155-0.465 0.295-1.108-0.513-1.348-0.144-0.044-0.159-0.406 0.033-0.484 0.288-0.114 0.473-0.207 0.488-0.569 0-0.251 0.281-0.31 0.513-0.336 0.369-0.044 0.329 0.225 0.314 0.436-0.022 0.388 0.218 0.395 0.491 0.388 0.214 0 0.369 0.059 0.391 0.307s-0.070 0.388-0.318 0.369c-0.369-0.026-0.65 0.063-0.554 0.513 0.144 0.661-0.406 1.507 0.462 1.958 0.214 0.111 0.403 0.126 0.369 0.41-0.033 0.414-0.369 0.277-0.58 0.299-0.059 0.014-0.126 0.021-0.196 0.021-0.504 0-0.912-0.408-0.912-0.912 0-0.005 0-0.010 0-0.015v0.001c-0.006-0.127-0.010-0.275-0.010-0.424 0-0.216 0.008-0.43 0.023-0.642l-0.002 0.028z"></path>
<path fill="#fcfcfc" style="fill: var(--color10, #fcfcfc)" d="M56.724 8.048c0 0.698 0 1.403 0 2.105 0 0.299 0.103 0.646-0.432 0.635-0.476 0-0.392-0.31-0.392-0.58 0-1.477 0-2.936 0-4.403 0-0.299-0.030-0.576 0.425-0.558s0.399 0.318 0.399 0.595c0.004 0.735 0 1.47 0 2.205z"></path>
<path fill="#080808" style="fill: var(--color13, #080808)" d="M54.818 21.455v-0.096c0-1.692 0.739-2.622 1.98-2.585 1.175 0.041 1.969 1.175 1.902 2.718-0.055 1.367-0.687 2.316-1.651 2.486-1.411 0.255-2.246-0.691-2.231-2.523z"></path>
<path fill="#080808" style="fill: var(--color13, #080808)" d="M46.006 21.422c0-1.754 0.739-2.715 2.002-2.652s2.076 1.415 1.847 3.021-1.108 2.438-2.39 2.179c-1.005-0.192-1.459-0.986-1.459-2.548z"></path>
<path fill="#080808" style="fill: var(--color13, #080808)" d="M36.934 20.765l1.326-4.513c0.469 1.477 0.905 2.844 1.33 4.211 0.081 0.266-0.107 0.318-0.321 0.318z"></path>
<path fill="#080808" style="fill: var(--color13, #080808)" d="M94.094 20.569c-0.1 0.008-0.217 0.012-0.334 0.012s-0.234-0.005-0.35-0.013l0.015 0.001c-0.321-0.048-0.787 0.207-0.946-0.155s0.14-0.783 0.369-1.108c0.293-0.431 0.782-0.709 1.335-0.709 0.116 0 0.229 0.012 0.338 0.035l-0.011-0.002c0.581 0.101 1.044 0.516 1.212 1.060l0.003 0.011c0.259 0.635 0.177 0.971-0.602 0.894-0.228-0.019-0.494-0.029-0.762-0.029-0.094 0-0.188 0.001-0.282 0.004l0.014-0z"></path>
<path fill="#080808" style="fill: var(--color13, #080808)" d="M78.622 21.422c-0.018-1.658 0.897-2.862 2.109-2.77 1.156 0.089 2.031 1.5 1.847 3.010-0.177 1.599-0.994 2.56-2.12 2.482s-1.817-1.2-1.836-2.722z"></path>
<path fill="#080808" style="fill: var(--color13, #080808)" d="M35.745 8.085c-0.010-0.1-0.015-0.217-0.015-0.334s0.006-0.234 0.016-0.349l-0.001 0.015c0.078-0.406-0.288-1.023 0.244-1.186 0.162-0.055 0.348-0.087 0.542-0.087 0.52 0 0.987 0.23 1.303 0.595l0.002 0.002c0.669 0.739 0.55 2.331-0.225 2.955-0.311 0.289-0.728 0.466-1.187 0.466-0.15 0-0.296-0.019-0.435-0.055l0.012 0.003c-0.554-0.181-0.163-0.776-0.244-1.175-0.018-0.144-0.028-0.31-0.028-0.479 0-0.131 0.006-0.26 0.018-0.387l-0.001 0.016z"></path>
<path fill="#080808" style="fill: var(--color13, #080808)" d="M69.621 8.923c-0.041 0.606-0.144 1.256-0.96 1.215-0.705-0.037-0.897-0.591-0.897-1.23s0.199-1.289 0.934-1.304 0.92 0.632 0.923 1.319z"></path>
<path fill="#080808" style="fill: var(--color13, #080808)" d="M74.848 8.934c0-0.691 0.155-1.341 0.905-1.359 0.816-0.018 0.997 0.683 0.99 1.348s-0.211 1.285-0.975 1.271-0.916-0.643-0.92-1.259z"></path>
<path fill="#080808" style="fill: var(--color13, #080808)" d="M95.162 8.495c-0.303-0.159-0.794 0.188-0.813-0.266 0.013-0.397 0.339-0.715 0.738-0.715 0.031 0 0.062 0.002 0.093 0.006l-0.004-0c0.013-0.001 0.029-0.002 0.045-0.002 0.351 0 0.638 0.277 0.653 0.624l0 0.001c0.015 0.639-0.547 0.096-0.713 0.351z"></path>
<path fill="#080808" style="fill: var(--color13, #080808)" d="M42.922 9.045c-0.055 0.502-0.177 1.156-0.96 1.145s-0.92-0.68-0.957-1.296c-0.044-0.739 0.499-1.392 1.034-1.352s0.898 0.632 0.883 1.503z"></path>
<path fill="#080808" style="fill: var(--color13, #080808)" d="M58.837 8.864c0.078-0.628 0.233-1.226 0.982-1.322 0.524-0.066 1.056 0.683 0.979 1.403-0.066 0.606-0.214 1.237-1.016 1.256-0.539 0.015-0.957-0.598-0.946-1.337z"></path>
<path fill="#080808" style="fill: var(--color13, #080808)" d="M64.868 9.359c0 0.009 0.001 0.019 0.001 0.030 0 0.451-0.365 0.816-0.816 0.816-0.005 0-0.011-0-0.016-0h0.001c-0.012 0.001-0.027 0.002-0.041 0.002-0.261 0-0.473-0.212-0.473-0.473 0-0.023 0.002-0.045 0.005-0.067l-0 0.003c0-0.609 0.499-0.657 0.923-0.739 0.321-0.066 0.447 0.107 0.417 0.428z"></path>
</symbol>
<symbol id="icon-DireccionDomicilioIcono" viewBox="0 0 32 32">
<path fill="#deaf06" style="fill: var(--color17, #deaf06)" d="M32 16.683l-4.928-5.227v-6.059c0.003-0.042 0.005-0.091 0.005-0.141 0-1.031-0.836-1.867-1.867-1.867s-1.867 0.836-1.867 1.867c0 0.050 0.002 0.099 0.006 0.147l-0-0.006v2.069l-3.723-3.893c-0.857-0.891-2.060-1.445-3.392-1.445s-2.535 0.554-3.391 1.443l-0.001 0.002-12.309 13.109c-0.33 0.374-0.531 0.867-0.531 1.408s0.201 1.034 0.533 1.41l-0.002-0.002c0.331 0.35 0.799 0.567 1.317 0.567s0.986-0.218 1.317-0.566l0.001-0.001 1.376-1.461c-0.008 0.047-0.013 0.1-0.013 0.155s0.005 0.108 0.014 0.16l-0.001-0.006v8.384c-0.001 0.030-0.001 0.065-0.001 0.1 0 1.855 1.457 3.37 3.289 3.462l0.008 0h5.333v-8.821h6.048v8.821h5.333c1.863-0.058 3.351-1.583 3.351-3.454 0-0.038-0.001-0.076-0.002-0.114l0 0.006v-8.384c0.008-0.047 0.013-0.1 0.013-0.155s-0.005-0.108-0.014-0.16l0.001 0.006 1.376 1.461c0.331 0.349 0.795 0.568 1.311 0.576l0.001 0c0.016 0 0.035 0.001 0.054 0.001 0.532 0 1.012-0.221 1.353-0.576l0.001-0.001c0.33-0.374 0.531-0.867 0.531-1.408s-0.201-1.034-0.533-1.41l0.002 0.002z"></path>
</symbol>
<symbol id="icon-EmailIcono" viewBox="0 0 32 32">
<path fill="#deaf06" style="fill: var(--color17, #deaf06)" d="M29.63 2.963h-26.88s11.378 9.481 12.018 10.086c0.319 0.253 0.728 0.405 1.171 0.405 0.489 0 0.935-0.185 1.272-0.49l-0.002 0.001c0.759-0.593 12.421-10.003 12.421-10.003z"></path>
<path fill="#deaf06" style="fill: var(--color17, #deaf06)" d="M16.948 18.88c-0.279 0.229-0.64 0.368-1.033 0.368-0.008 0-0.015-0-0.023-0h0.001c-0.417-0.004-0.798-0.156-1.093-0.405l0.003 0.002-14.803-12.397v20.397c-0.001 0.018-0.001 0.040-0.001 0.061 0 1.178 0.929 2.139 2.094 2.19l0.005 0h27.532c1.169-0.045 2.099-1.004 2.099-2.179 0-0.026-0-0.051-0.001-0.076l0 0.004v-19.899z"></path>
</symbol>
<symbol id="icon-FacebookSocialIcono" viewBox="0 0 32 32">
<path fill="#000" style="fill: var(--color18, #000)" d="M0 16.166c-0-0.039-0.001-0.085-0.001-0.131 0-8.855 7.178-16.033 16.033-16.033s16.033 7.178 16.033 16.033c0 8.789-7.073 15.927-15.837 16.032l-0.010 0c-0.095 0.002-0.206 0.003-0.318 0.003-8.782 0-15.901-7.119-15.901-15.901 0-0.001 0-0.002 0-0.003v0zM20.684 8.441c0.159-0.928 0.291-1.762 0.437-2.65-0.873-0.371-1.889-0.586-2.954-0.586-1.204 0-2.343 0.275-3.359 0.765l0.046-0.020c-2.12 1.166-1.577 3.405-1.855 5.3l-2.041 0.318v2.942l2.2 0.291v11.793h4.068v-11.846l2.862-0.265c0.305-2.319 0.305-2.319-2.849-3.445-0.013-2.504 0.119-2.677 3.445-2.597z"></path>
<path fill="#fff" style="fill: var(--color1, #fff)" d="M20.684 8.441c-3.326-0.079-3.525 0.093-3.472 2.65 3.154 1.126 3.154 1.126 2.849 3.445l-2.862 0.265v11.833h-4.041v-11.793l-2.2-0.291v-2.995l2.041-0.318c0.278-1.882-0.265-4.121 1.855-5.3 0.97-0.47 2.109-0.745 3.313-0.745 1.066 0 2.081 0.215 3.005 0.605l-0.051-0.019c-0.146 0.848-0.278 1.736-0.437 2.663z"></path>
</symbol>
<symbol id="icon-IntagramSocialIcono" viewBox="0 0 32 32">
<path fill="#000" style="fill: var(--color18, #000)" d="M15.978 32c-8.808-0.037-15.934-7.186-15.934-16 0-8.837 7.163-16 16-16 8.802 0 15.944 7.107 16 15.896l0 0.005c0.001 0.069 0.002 0.149 0.002 0.231 0 8.764-7.105 15.869-15.869 15.869-0.070 0-0.139-0-0.209-0.001l0.011 0zM15.978 24.759h6.291c0.083 0.011 0.178 0.017 0.275 0.017 1.206 0 2.184-0.978 2.184-2.184 0-0.083-0.005-0.165-0.014-0.246l0.001 0.010q0-6.291 0-12.582c0.016-0.099 0.026-0.214 0.026-0.33 0-1.17-0.949-2.119-2.119-2.119-0.113 0-0.224 0.009-0.333 0.026l0.012-0.002c-4.194 0-8.377 0-12.571 0-0.094-0.015-0.203-0.023-0.314-0.023-1.17 0-2.119 0.949-2.119 2.119 0 0.101 0.007 0.2 0.021 0.297l-0.001-0.011c0 4.194 0 8.377 0 12.571 0 1.813 0.677 2.414 2.567 2.446s4.085 0.011 6.116 0.011z"></path>
<path fill="#fff" style="fill: var(--color1, #fff)" d="M16 24.759c-2.031 0-4.074 0-6.105 0s-2.556-0.633-2.567-2.446c0-4.194 0-8.377 0-12.571-0.015-0.094-0.023-0.201-0.023-0.311 0-1.17 0.949-2.119 2.119-2.119 0.12 0 0.238 0.010 0.352 0.029l-0.012-0.002c4.194 0 8.377 0 12.571 0 0.096-0.016 0.208-0.024 0.321-0.024 1.17 0 2.119 0.949 2.119 2.119 0 0.117-0.009 0.231-0.028 0.342l0.002-0.012q0 6.291 0 12.582c0.008 0.071 0.013 0.153 0.013 0.236 0 1.206-0.978 2.184-2.184 2.184-0.097 0-0.192-0.006-0.286-0.019l0.011 0.001h-6.302zM22.072 14.537l-0.524 0.306c0 0.109-0.142 0.218-0.131 0.317 0.030 0.218 0.048 0.47 0.048 0.725 0 2.979-2.352 5.408-5.301 5.532l-0.011 0c-3.036 0.12-5.002-1.966-5.461-5.81 0-0.317-0.382-0.601-0.579-0.906-0.262 0.328-0.732 0.633-0.754 0.961-0.039 0.745-0.061 1.617-0.061 2.495 0 1.209 0.042 2.408 0.124 3.595l-0.009-0.16c0 0.426 0.896 1.092 1.398 1.092 3.473 0.098 6.957 0 10.441 0.066 1.016 0 1.584-0.339 1.573-1.442 0-1.802 0-3.604 0-5.395-0.171-0.53-0.428-0.988-0.759-1.382l0.005 0.006zM16.12 12.724c-0.019-0-0.042-0.001-0.064-0.001-1.81 0-3.276 1.467-3.276 3.276s1.467 3.276 3.276 3.276c1.779 0 3.226-1.417 3.275-3.184l0-0.005c0.001-0.026 0.001-0.057 0.001-0.088 0-1.787-1.43-3.24-3.209-3.276l-0.003-0zM19.397 11.031c-0.218 1.442 0.579 1.715 1.791 1.737s1.616-0.655 1.627-1.78-0.426-1.726-1.682-1.726-1.977 0.404-1.758 1.769z"></path>
<path fill="#000" style="fill: var(--color18, #000)" d="M22.072 14.537c0.292 0.397 0.518 0.865 0.649 1.37l0.006 0.028c0.076 1.791 0 3.593 0 5.395 0 1.092-0.557 1.442-1.573 1.442-3.484 0-6.968 0-10.441-0.066-0.502 0-1.365-0.688-1.398-1.092-0.074-1.028-0.116-2.227-0.116-3.435 0-0.878 0.022-1.75 0.066-2.617l-0.005 0.122c0-0.328 0.491-0.633 0.754-0.961 0.197 0.306 0.535 0.59 0.579 0.906 0.513 3.844 2.479 5.93 5.461 5.81 2.96-0.124 5.312-2.554 5.312-5.533 0-0.256-0.017-0.508-0.051-0.754l0.003 0.029c0-0.098 0.087-0.207 0.131-0.317z"></path>
<path fill="#000" style="fill: var(--color18, #000)" d="M16.12 12.724c1.752 0.073 3.144 1.511 3.144 3.274 0 1.81-1.467 3.276-3.276 3.276s-3.276-1.467-3.276-3.276c0-0.034 0.001-0.067 0.002-0.101l-0 0.005c0.053-1.768 1.499-3.181 3.275-3.181 0.047 0 0.093 0.001 0.139 0.003l-0.007-0z"></path>
<path fill="#000" style="fill: var(--color18, #000)" d="M19.375 11.031c-0.218-1.365 0.459-1.758 1.737-1.769s1.693 0.524 1.682 1.726-0.306 1.791-1.627 1.78-2.010-0.295-1.791-1.737z"></path>
</symbol>
<symbol id="icon-LinkedinSocialIcono" viewBox="0 0 32 32">
<path fill="#000" style="fill: var(--color18, #000)" d="M32.014 15.63c0.002 0.094 0.003 0.204 0.003 0.315 0 8.817-7.147 15.964-15.964 15.964s-15.964-7.147-15.964-15.964c0-8.545 6.714-15.522 15.154-15.944l0.038-0.002c0.231-0.012 0.501-0.019 0.772-0.019 8.706 0 15.784 6.969 15.96 15.632l0 0.017zM20.405 22.509h2.554c0-2.351 0.087-4.571 0-6.777 0.003-0.049 0.005-0.107 0.005-0.165 0-1.555-1.261-2.815-2.815-2.815-0.233 0-0.46 0.028-0.677 0.082l0.019-0.004c-0.999 0.222-1.876 0.527-2.704 0.918l0.077-0.033c0.032-0.128 0.067-0.234 0.108-0.338l-0.006 0.018-2.612-0.479v9.622h2.525c0-2.046-0.087-3.962 0-5.805-0.003-0.037-0.004-0.080-0.004-0.123 0-1.010 0.819-1.829 1.829-1.829 0.058 0 0.115 0.003 0.171 0.008l-0.007-0.001c1.277 0 1.451 1.030 1.451 2.061 0 1.843 0 3.686 0 5.66zM9.186 13.061v9.535h2.307v-9.535zM9.186 11.799l2.424-0.189v-2.191h-2.482z"></path>
<path fill="#fff" style="fill: var(--color1, #fff)" d="M20.317 22.509c0-1.974 0-3.817 0-5.66 0-1.030-0.218-2.003-1.451-2.061-0.052-0.005-0.113-0.008-0.175-0.008-1.010 0-1.829 0.819-1.829 1.829 0 0.018 0 0.036 0.001 0.055l-0-0.003c-0.116 1.901 0 3.817 0 5.805h-2.569v-9.564l2.612 0.479c-0.035 0.085-0.069 0.191-0.097 0.3l-0.004 0.019c0.75-0.358 1.627-0.663 2.542-0.869l0.085-0.016c0.198-0.050 0.424-0.078 0.658-0.078 1.555 0 2.815 1.261 2.815 2.815 0 0.058-0.002 0.116-0.005 0.173l0-0.008c0.102 2.206 0 4.426 0 6.777z"></path>
<path fill="#fff" style="fill: var(--color1, #fff)" d="M9.186 13.061h2.307v9.535h-2.307z"></path>
<path fill="#fff" style="fill: var(--color1, #fff)" d="M9.128 11.755v-2.337h2.482v2.191z"></path>
</symbol>
<symbol id="icon-LupaFomularioIcono" viewBox="0 0 32 32">
<path fill="#009498" style="fill: var(--color19, #009498)" d="M15.997 31.496c-8.56 0-15.499-6.939-15.499-15.499s6.939-15.499 15.499-15.499c8.56 0 15.499 6.939 15.499 15.499v0c0 8.56-6.939 15.499-15.499 15.499v0z"></path>
<path fill="#009498" style="fill: var(--color19, #009498)" d="M15.997 1.002c0.002 0 0.004 0 0.006 0 8.285 0 15.001 6.716 15.001 15.001s-6.716 15.001-15.001 15.001c-8.285 0-15.001-6.716-15.001-15.001 0-0.002 0-0.004 0-0.006v0c0.013-8.277 6.719-14.983 14.994-14.995h0.001zM15.997 0c-0.002 0-0.004 0-0.006 0-8.838 0-16.003 7.165-16.003 16.003s7.165 16.003 16.003 16.003c8.838 0 16.003-7.165 16.003-16.003 0-0.002 0-0.004 0-0.006v0c0-8.835-7.162-15.997-15.997-15.997v0z"></path>
<path fill="#000" style="fill: var(--color18, #000)" d="M23.326 12.466c1.285-0.182 2.769-0.286 4.278-0.286 1.041 0 2.071 0.049 3.087 0.146l-0.13-0.010c-1.69-6.584-7.572-11.373-14.573-11.373-8.297 0-15.023 6.726-15.023 15.023 0 3.382 1.118 6.503 3.004 9.014l-0.028-0.039c2.375-6.078 9.897-11.209 19.385-12.477z"></path>
<path fill="#fff" style="fill: var(--color1, #fff)" d="M25.546 22.861c0.094-0.105 0.152-0.245 0.152-0.398 0-0.173-0.073-0.328-0.19-0.437l-0-0-4.982-4.517c-0.104-0.094-0.243-0.151-0.395-0.151-0.172 0-0.326 0.073-0.434 0.19l-0 0-1.777 1.965c-0.094 0.104-0.151 0.242-0.151 0.393 0 0.173 0.075 0.329 0.195 0.437l0.001 0 4.982 4.522c0.104 0.094 0.242 0.151 0.393 0.151 0.173 0 0.329-0.075 0.437-0.195l0-0.001z"></path>
<path fill="#fff" style="fill: var(--color1, #fff)" d="M13.623 6.98c0.001 0 0.003 0 0.004 0 3.598 0 6.515 2.917 6.515 6.515s-2.917 6.515-6.515 6.515c-3.598 0-6.515-2.917-6.515-6.515 0-2.833 1.809-5.244 4.334-6.141l0.046-0.014c0.635-0.227 1.368-0.359 2.131-0.36h0zM13.623 8.746c-0.556 0-1.088 0.097-1.582 0.276l0.032-0.010c-1.904 0.648-3.249 2.42-3.249 4.506 0 2.623 2.126 4.749 4.749 4.749 0.017 0 0.035-0 0.052-0l-0.003 0c1.864-0.009 3.475-1.084 4.255-2.646l0.012-0.028c0.308-0.612 0.488-1.334 0.488-2.098 0-2.623-2.126-4.749-4.749-4.749-0.002 0-0.005 0-0.007 0h0z"></path>
</symbol>
<symbol id="icon-TelefonoContactoIcono" viewBox="0 0 32 32">
<path fill="#deaf06" style="fill: var(--color17, #deaf06)" d="M16.245 8.141h3.144c1.471-0.046 2.646-1.25 2.646-2.728 0-0.034-0.001-0.067-0.002-0.1l0 0.005v-2.494c0.001-0.028 0.002-0.062 0.002-0.095 0-1.478-1.175-2.682-2.642-2.728l-0.004-0h-3.144c-1.468 0-3.012 1.976-4.104 4.706-1.139 3.113-1.798 6.707-1.798 10.455 0 0.269 0.003 0.536 0.010 0.803l-0.001-0.040c-0.006 0.23-0.010 0.501-0.010 0.773 0 3.641 0.659 7.128 1.865 10.349l-0.067-0.204c1.092 2.758 2.635 4.706 4.104 4.706h3.144c1.473-0.057 2.646-1.265 2.646-2.746 0-0.027-0-0.054-0.001-0.081l0 0.004v-2.485c0.001-0.026 0.001-0.056 0.001-0.086 0-1.48-1.174-2.686-2.641-2.737l-0.005-0h-3.144c-1.995 0-2.56-5.374-2.56-7.642s0.565-7.633 2.56-7.633z"></path>
</symbol>
<symbol id="icon-TwitterSocialIcono" viewBox="0 0 32 32">
<path fill="#000" style="fill: var(--color18, #000)" d="M15.94 0c0.018-0 0.038-0 0.059-0 8.837 0 16 7.163 16 16s-7.163 16-16 16c-8.837 0-16-7.163-16-16 0-0.050 0-0.101 0.001-0.151l-0 0.008c0.007-8.759 7.109-15.857 15.869-15.857 0.025 0 0.050 0 0.076 0h-0.004zM16.561 13.134c-3.876-0.28-7.289-2.063-9.695-4.762l-0.012-0.014c-1.194 2.388-0.466 4.203 0.955 6.042l-1.469-0.167-0.454 0.394 2.878 4.119-1.361 0.358 4.442 3.451-5.648 1.839c7.224 4.621 17.516 0.107 19.463-8.561 0.466-2.078 0.179-4.43 2.281-5.97l-1.552 0.227 1.075-1.839c-0.060-0.155-0.131-0.298-0.203-0.442-1.481 1.194-2.71 0.8-4.143 0-0.556-0.254-1.205-0.402-1.889-0.402-0.494 0-0.969 0.077-1.415 0.22l0.033-0.009c-2.496 0.74-3.439 2.687-3.284 5.516z"></path>
<path fill="#fff" style="fill: var(--color1, #fff)" d="M16.561 13.134c-0.155-2.782 0.788-4.776 3.331-5.481 0.413-0.134 0.889-0.21 1.382-0.21 0.684 0 1.334 0.148 1.918 0.413l-0.029-0.012c1.433 0.812 2.663 1.194 4.143 0 0.072 0.143 0.143 0.287 0.203 0.442l-1.122 1.791 1.552-0.227c-2.102 1.552-1.815 3.904-2.281 5.97-1.946 8.669-12.239 13.134-19.463 8.561l5.648-1.803-4.442-3.475 1.361-0.394-2.878-4.155 0.454-0.394 1.469 0.167c-1.421-1.839-2.101-3.666-0.955-6.042 2.409 2.74 5.822 4.548 9.658 4.845l0.049 0.003z"></path>
</symbol>
<symbol id="icon-paint-format" viewBox="0 0 32 32">
<path d="M32 18v-12h-6v-2c0-1.1-0.9-2-2-2h-22c-1.1 0-2 0.9-2 2v6c0 1.1 0.9 2 2 2h22c1.1 0 2-0.9 2-2v-2h4v8h-18v4h-1c-0.552 0-1 0.448-1 1v10c0 0.552 0.448 1 1 1h4c0.552 0 1-0.448 1-1v-10c0-0.552-0.448-1-1-1h-1v-2h18zM24 6h-22v-2h22v2z"></path>
</symbol>
<symbol id="icon-cart" viewBox="0 0 32 32">
<path d="M12 29c0 1.657-1.343 3-3 3s-3-1.343-3-3c0-1.657 1.343-3 3-3s3 1.343 3 3z"></path>
<path d="M32 29c0 1.657-1.343 3-3 3s-3-1.343-3-3c0-1.657 1.343-3 3-3s3 1.343 3 3z"></path>
<path d="M32 16v-12h-24c0-1.105-0.895-2-2-2h-6v2h4l1.502 12.877c-0.915 0.733-1.502 1.859-1.502 3.123 0 2.209 1.791 4 4 4h24v-2h-24c-1.105 0-2-0.895-2-2 0-0.007 0-0.014 0-0.020l26-3.98z"></path>
</symbol>
<symbol id="icon-location" viewBox="0 0 32 32">
<path d="M16 0c-5.523 0-10 4.477-10 10 0 10 10 22 10 22s10-12 10-22c0-5.523-4.477-10-10-10zM16 16c-3.314 0-6-2.686-6-6s2.686-6 6-6 6 2.686 6 6-2.686 6-6 6z"></path>
</symbol>
<symbol id="icon-mobile" viewBox="0 0 32 32">
<path d="M23 0h-14c-1.65 0-3 1.35-3 3v26c0 1.65 1.35 3 3 3h14c1.65 0 3-1.35 3-3v-26c0-1.65-1.35-3-3-3zM12 1.5h8v1h-8v-1zM16 30c-1.105 0-2-0.895-2-2s0.895-2 2-2 2 0.895 2 2-0.895 2-2 2zM24 24h-16v-20h16v20z"></path>
</symbol>
<symbol id="icon-spinner3" viewBox="0 0 32 32">
<path d="M16 9.472c-1.030 0-1.865-0.835-1.865-1.865v-5.596c0-1.030 0.835-1.865 1.865-1.865s1.865 0.835 1.865 1.865v5.596c0 1.030-0.835 1.865-1.865 1.865z"></path>
<path d="M16 31.155c-0.644 0-1.166-0.522-1.166-1.166v-5.596c0-0.644 0.522-1.166 1.166-1.166s1.166 0.522 1.166 1.166v5.596c0 0.644-0.522 1.166-1.166 1.166z"></path>
<path d="M11.805 10.48c-0.604 0-1.192-0.314-1.516-0.875l-2.798-4.846c-0.483-0.836-0.196-1.906 0.64-2.389s1.906-0.196 2.389 0.64l2.798 4.846c0.483 0.836 0.196 1.906-0.64 2.389-0.275 0.159-0.576 0.235-0.873 0.235z"></path>
<path d="M22.995 29.164c-0.363 0-0.715-0.188-0.91-0.525l-2.798-4.846c-0.29-0.502-0.118-1.143 0.384-1.433s1.143-0.118 1.433 0.384l2.798 4.846c0.29 0.502 0.118 1.143-0.384 1.433-0.165 0.095-0.346 0.141-0.524 0.141z"></path>
<path d="M8.729 13.436c-0.277 0-0.557-0.070-0.814-0.219l-4.846-2.798c-0.781-0.451-1.048-1.449-0.597-2.229s1.449-1.048 2.229-0.597l4.846 2.798c0.781 0.451 1.048 1.449 0.597 2.229-0.302 0.524-0.851 0.816-1.415 0.816z"></path>
<path d="M28.114 23.927c-0.158 0-0.319-0.040-0.465-0.125l-4.846-2.798c-0.446-0.258-0.599-0.828-0.341-1.274s0.828-0.599 1.274-0.341l4.846 2.798c0.446 0.258 0.599 0.828 0.341 1.274-0.173 0.299-0.486 0.466-0.809 0.466z"></path>
<path d="M7.607 17.515h-5.596c-0.837 0-1.516-0.678-1.516-1.515s0.678-1.515 1.516-1.515h5.596c0.837 0 1.516 0.678 1.516 1.515s-0.678 1.515-1.516 1.515z"></path>
<path d="M29.989 16.933c-0 0 0 0 0 0h-5.596c-0.515-0-0.933-0.418-0.933-0.933s0.418-0.933 0.933-0.933c0 0 0 0 0 0h5.596c0.515 0 0.933 0.418 0.933 0.933s-0.418 0.933-0.933 0.933z"></path>
<path d="M3.886 24.394c-0.483 0-0.954-0.251-1.213-0.7-0.386-0.669-0.157-1.525 0.512-1.911l4.846-2.798c0.669-0.387 1.525-0.157 1.911 0.512s0.157 1.525-0.512 1.911l-4.846 2.798c-0.22 0.127-0.461 0.188-0.698 0.188z"></path>
<path d="M23.27 12.736c-0.322 0-0.636-0.167-0.809-0.466-0.258-0.446-0.105-1.016 0.341-1.274l4.846-2.798c0.446-0.257 1.016-0.105 1.274 0.341s0.105 1.016-0.341 1.274l-4.846 2.798c-0.147 0.085-0.307 0.125-0.465 0.125z"></path>
<path d="M9.004 29.397c-0.218 0-0.438-0.055-0.64-0.172-0.613-0.354-0.823-1.138-0.469-1.752l2.798-4.846c0.354-0.613 1.138-0.823 1.752-0.469s0.823 1.138 0.469 1.752l-2.798 4.846c-0.237 0.411-0.668 0.641-1.112 0.641z"></path>
<path d="M20.196 9.664c-0.158 0-0.319-0.040-0.465-0.125-0.446-0.258-0.599-0.828-0.341-1.274l2.798-4.846c0.258-0.446 0.828-0.599 1.274-0.341s0.599 0.828 0.341 1.274l-2.798 4.846c-0.173 0.299-0.486 0.466-0.809 0.466z"></path>
</symbol>
<symbol id="icon-key" viewBox="0 0 32 32">
<path d="M22 0c-5.523 0-10 4.477-10 10 0 0.626 0.058 1.238 0.168 1.832l-12.168 12.168v6c0 1.105 0.895 2 2 2h2v-2h4v-4h4v-4h4l2.595-2.595c1.063 0.385 2.209 0.595 3.405 0.595 5.523 0 10-4.477 10-10s-4.477-10-10-10zM24.996 10.004c-1.657 0-3-1.343-3-3s1.343-3 3-3 3 1.343 3 3-1.343 3-3 3z"></path>
</symbol>
<symbol id="icon-cog" viewBox="0 0 32 32">
<path d="M29.181 19.070c-1.679-2.908-0.669-6.634 2.255-8.328l-3.145-5.447c-0.898 0.527-1.943 0.829-3.058 0.829-3.361 0-6.085-2.742-6.085-6.125h-6.289c0.008 1.044-0.252 2.103-0.811 3.070-1.679 2.908-5.411 3.897-8.339 2.211l-3.144 5.447c0.905 0.515 1.689 1.268 2.246 2.234 1.676 2.903 0.672 6.623-2.241 8.319l3.145 5.447c0.895-0.522 1.935-0.82 3.044-0.82 3.35 0 6.067 2.725 6.084 6.092h6.289c-0.003-1.034 0.259-2.080 0.811-3.038 1.676-2.903 5.399-3.894 8.325-2.219l3.145-5.447c-0.899-0.515-1.678-1.266-2.232-2.226zM16 22.479c-3.578 0-6.479-2.901-6.479-6.479s2.901-6.479 6.479-6.479c3.578 0 6.479 2.901 6.479 6.479s-2.901 6.479-6.479 6.479z"></path>
</symbol>
<symbol id="icon-truck" viewBox="0 0 32 32">
<path d="M32 18l-4-8h-6v-4c0-1.1-0.9-2-2-2h-18c-1.1 0-2 0.9-2 2v16l2 2h2.536c-0.341 0.588-0.536 1.271-0.536 2 0 2.209 1.791 4 4 4s4-1.791 4-4c0-0.729-0.196-1.412-0.536-2h11.073c-0.341 0.588-0.537 1.271-0.537 2 0 2.209 1.791 4 4 4s4-1.791 4-4c0-0.729-0.196-1.412-0.537-2h2.537v-6zM22 18v-6h4.146l3 6h-7.146z"></path>
</symbol>
<symbol id="icon-whatsapp" viewBox="0 0 32 32">
<path d="M27.281 4.65c-2.994-3-6.975-4.65-11.219-4.65-8.738 0-15.85 7.112-15.85 15.856 0 2.794 0.731 5.525 2.119 7.925l-2.25 8.219 8.406-2.206c2.319 1.262 4.925 1.931 7.575 1.931h0.006c0 0 0 0 0 0 8.738 0 15.856-7.113 15.856-15.856 0-4.238-1.65-8.219-4.644-11.219zM16.069 29.050v0c-2.369 0-4.688-0.637-6.713-1.837l-0.481-0.288-4.987 1.306 1.331-4.863-0.313-0.5c-1.325-2.094-2.019-4.519-2.019-7.012 0-7.269 5.912-13.181 13.188-13.181 3.519 0 6.831 1.375 9.319 3.862 2.488 2.494 3.856 5.8 3.856 9.325-0.006 7.275-5.919 13.188-13.181 13.188zM23.294 19.175c-0.394-0.2-2.344-1.156-2.706-1.288s-0.625-0.2-0.894 0.2c-0.262 0.394-1.025 1.288-1.256 1.556-0.231 0.262-0.462 0.3-0.856 0.1s-1.675-0.619-3.188-1.969c-1.175-1.050-1.975-2.35-2.206-2.744s-0.025-0.613 0.175-0.806c0.181-0.175 0.394-0.463 0.594-0.694s0.262-0.394 0.394-0.662c0.131-0.262 0.069-0.494-0.031-0.694s-0.894-2.15-1.219-2.944c-0.319-0.775-0.65-0.669-0.894-0.681-0.231-0.012-0.494-0.012-0.756-0.012s-0.694 0.1-1.056 0.494c-0.363 0.394-1.387 1.356-1.387 3.306s1.419 3.831 1.619 4.1c0.2 0.262 2.794 4.269 6.769 5.981 0.944 0.406 1.681 0.65 2.256 0.837 0.95 0.3 1.813 0.256 2.494 0.156 0.762-0.113 2.344-0.956 2.675-1.881s0.331-1.719 0.231-1.881c-0.094-0.175-0.356-0.275-0.756-0.475z"></path>
</symbol>
</defs>
</svg>
