<svg xmlns="http://www.w3.org/2000/svg" xmlns:xlink="http://www.w3.org/1999/xlink" viewBox="0 0 436.99 121.39"><defs><style>.cls-1{isolation:isolate;}.cls-2{fill:url(#linear-gradient);}.cls-3{opacity:0.64;mix-blend-mode:screen;fill:url(#radial-gradient);}</style><linearGradient id="linear-gradient" x1="218.5" y1="-1.22" x2="218.5" y2="120.98" gradientUnits="userSpaceOnUse"><stop offset="0.1" stop-color="#ff9b0c"/><stop offset="0.25" stop-color="#ff9b0c"/><stop offset="0.82" stop-color="#ff800c"/><stop offset="1" stop-color="#ff800c"/></linearGradient><radialGradient id="radial-gradient" cx="204.84" cy="-135.55" r="585.07" gradientUnits="userSpaceOnUse"><stop offset="0" stop-color="#fff"/><stop offset="0.01" stop-color="#fbfbfb"/><stop offset="0.13" stop-color="#c1c1c1"/><stop offset="0.25" stop-color="#8e8e8e"/><stop offset="0.37" stop-color="#626262"/><stop offset="0.5" stop-color="#3f3f3f"/><stop offset="0.62" stop-color="#232323"/><stop offset="0.74" stop-color="#101010"/><stop offset="0.87" stop-color="#040404"/><stop offset="1"/></radialGradient></defs><title>BtnOrange</title><g class="cls-1"><g id="Capa_2" data-name="Capa 2"><g id="Capa_1-2" data-name="Capa 1"><path class="cls-2" d="M376.3,121.39H60.69A60.7,60.7,0,0,1,0,60.69H0A60.69,60.69,0,0,1,60.69,0H376.3A60.69,60.69,0,0,1,437,60.69h0A60.7,60.7,0,0,1,376.3,121.39Z"/><path class="cls-3" d="M376.3,11.56H60.69A49.19,49.19,0,0,0,11.56,60.69c0,1.19.1,2.36.18,3.53H425.25c.08-1.17.18-2.34.18-3.53A49.19,49.19,0,0,0,376.3,11.56Z"/></g></g></g></svg>