<svg xmlns="http://www.w3.org/2000/svg" viewBox="0 0 292.24 87.15"><defs><style>.cls-1{fill:#929292;}.cls-1,.cls-10,.cls-11,.cls-12,.cls-13,.cls-2,.cls-3,.cls-4,.cls-5,.cls-6,.cls-7,.cls-8,.cls-9{fill-rule:evenodd;}.cls-2{fill:#010101;}.cls-3{fill:#01d3fd;}.cls-4{fill:#f3f3f3;}.cls-5{fill:#06ec78;}.cls-6{fill:#ed354c;}.cls-7{fill:#f6f6f6;}.cls-8{fill:#fac404;}.cls-9{fill:#fcfcfc;}.cls-10{fill:#ececec;}.cls-11{fill:#d0d0d0;}.cls-12{fill:#080808;}.cls-13{fill:#a5a5a5;}</style></defs><title>GooglePlay</title><g id="Capa_2" data-name="Capa 2"><g id="Capa_1-2" data-name="Capa 1"><path class="cls-1" d="M0,10.44c.73.71.43,1.63.43,2.46q0,30.66,0,61.34c0,.83.3,1.74-.42,2.46Q0,43.57,0,10.44Z"/><path class="cls-1" d="M12.34.09a1.27,1.27,0,0,1-2,0Z"/><path class="cls-1" d="M281.84.12a1.28,1.28,0,0,1-2,0Z"/><path class="cls-2" d="M146.1,85Q79.65,85,13.18,85C10.74,85,8.33,85,6.23,83.5a8.81,8.81,0,0,1-4.14-7.62q0-32.26,0-64.52a9,9,0,0,1,8.66-9.19c1-.07,2.07-.06,3.11-.06h264.8c8.1,0,11.44,3.36,11.43,11.49V74C290.11,81.53,286.63,85,279,85ZM58.67,52.68c3.54-2,7.12-3.83,10.61-5.87s3.39-4.5.1-6.48-7-4-10.47-6c-10.07-5.73-20.1-11.56-30.27-17.11-1.69-.92-4-3.17-6.08-.21a4.37,4.37,0,0,0-.86,3.16V66.83c0,1.29,0,2.62,1.18,3.53,1.35,1.75,2.91,1,4.35.25C30.63,68.77,34,66.87,37.35,65Q48,58.83,58.67,52.68ZM110.06,50c-1.64,0-3.29.11-4.92,0-1.85-.17-1.85.88-1.86,2.22s.12,2.15,1.78,2c1.89-.14,3.81,0,5.7-.06,1.66-.08,1.89.52,1.38,2-1.36,3.94-6.26,6.43-10.86,5.33a9.81,9.81,0,0,1-7.87-8.3,9.67,9.67,0,0,1,4.2-10.17c3.69-2.58,7.68-2.69,11.35-.11,2.18,1.53,2.82-.29,3.63-1.27,1.12-1.37-.65-1.69-1.31-2.14a14.49,14.49,0,0,0-20,4.06A14.2,14.2,0,0,0,95.1,63.24c8.25,5.65,21,1.83,21.61-9.36.22-3.87.35-3.86-3.54-3.85Zm61.85,14.08c.26,2.64-.24,4.73-2.55,5.7A4.68,4.68,0,0,1,163.22,68c-1.3-1.91-2.5-.2-3.47.23-1.52.67-.08,1.59.33,2.18,2.19,3.18,6.12,4.37,10.11,3.21,3.55-1,5.67-3.89,5.83-8.53.18-5.26,0-10.52.09-15.78,0-1.32-.58-1.86-1.68-1.5-2.31.76-4.43.17-6.61-.5a4.49,4.49,0,0,0-2.29.13,8.78,8.78,0,0,0-7,6.83A8.85,8.85,0,0,0,161.9,64C165,66.36,168.36,66.5,171.91,64.11Zm38.45-12.43c0,4,0,8,0,11.92,0,.6-.35,1.35.69,1.67,2.27.7,3.53-.15,3.54-2.52,0-.69,0-1.38,0-2.07,0-5.63,0-5.63,5.51-5.7,5.06-.06,8.81-3.48,8.91-8.13.11-4.9-3.4-8.51-8.61-8.71-2.76-.11-5.53.07-8.28,0-1.56-.07-1.84.54-1.81,1.93C210.41,43.91,210.36,47.79,210.36,51.68Zm38.85,2.69a10.3,10.3,0,0,0-8,0c-2.44,1.08-3.87,2.84-3.8,5.58.06,2.57,1.74,4.55,4.43,5.41a6.93,6.93,0,0,0,6.17-.77c.48-.3.84-1.38,1.5.16.48,1.14,2.19.52,3.29.38s.56-1.27.58-2c.06-2.59-.05-5.18,0-7.76.12-3.33-1-6-4.13-7.36a8.92,8.92,0,0,0-9.53.91c-.84.64-2.24,1.67-1.34,2.52s2.16,2.12,4,.58C244.88,49.92,248.3,51.1,249.21,54.37Zm-101.8-7.09a8.93,8.93,0,0,0-9.19,9.35,8.93,8.93,0,0,0,9.37,9.16,9.26,9.26,0,0,0-.18-18.51ZM118,56.43a9.09,9.09,0,0,0,9.26,9.36,9.26,9.26,0,1,0,.22-18.51A9.11,9.11,0,0,0,118,56.43Zm75,9.36c3.09,0,5.22-.62,6.88-2.25.57-.56,2.3-1.13,1-2.28-.91-.84-2-2.52-3.78-.61a4.65,4.65,0,0,1-6.53.15c-1-.92-1.18-1.49.35-2.07,3.13-1.19,6.21-2.51,9.31-3.8.76-.32,1.68-.49,1.09-1.79-1.15-2.54-2.72-4.61-5.49-5.46a8,8,0,0,0-8.92,2.46,9.34,9.34,0,0,0-1.53,10.18A8.42,8.42,0,0,0,193,65.79Zm79.1-17.88c-4.59-.26-4.59-.26-6.09,3.51-1,2.52-2,5-3.16,8-1.28-3.12-2.38-5.8-3.49-8.47-1.46-3.53-1.46-3.53-5.74-3a77.65,77.65,0,0,0,3.8,8.48c3,5.06,3.6,9.94.06,15a5.64,5.64,0,0,0-.43.93.66.66,0,0,0,.19.89c.84.62,3.87-.07,4.31-1.08C265,64.2,268.5,56.16,272.08,47.91Zm-89.26,4c0-4-.08-8.1,0-12.14,0-1.8-1-1.63-2.14-1.64s-2.13-.13-2.11,1.65q.13,11.9,0,23.78c0,1.59.64,1.83,2,1.78s2.34.13,2.27-1.8C182.72,59.63,182.82,55.75,182.82,51.87Zm48.28,0c0,3.88.07,7.75,0,11.62-.05,1.55.55,1.94,1.93,1.78,1.11-.12,2.4.45,2.38-1.63q-.13-12,0-24c0-1.92-1.18-1.45-2.21-1.5s-2.16-.2-2.1,1.61C231.19,43.78,231.1,47.83,231.1,51.87ZM100.83,23.34c-.86,3-3.3,4.37-5.87,3.43A4.94,4.94,0,0,1,92,20.26a4.74,4.74,0,0,1,6.54-2.68c.79.37,1.72,1.74,2.46.13.62-1.34-.83-1.67-1.61-2a6.84,6.84,0,0,0-7.29.84c-2.41,1.82-2.87,4.43-2.44,7.17.56,3.49,4.23,5.86,8,5.34a6.24,6.24,0,0,0,5.46-6.19c0-1.05-.22-1.61-1.41-1.55-1.38.07-2.76.05-4.14,0-.85,0-1.24.23-1.23,1.15s.52.92,1.18.91C98.58,23.33,99.68,23.34,100.83,23.34Zm64.44-4.61c2.14,3.39,3.9,6.09,5.57,8.85a1.84,1.84,0,0,0,2.12,1c1.18-.26.64-1.26.65-1.93,0-3.19,0-6.38,0-9.57,0-.78.38-1.89-1.08-1.83s-1,1.14-1,1.93c0,2.26,0,4.52,0,7.45-2-3.24-3.7-5.82-5.28-8.45a1.93,1.93,0,0,0-2.21-.91c-1.18.18-.79,1.17-.79,1.86,0,3.28,0,6.56,0,9.84,0,.72-.28,1.59,1,1.65s1-.83,1.05-1.56C165.28,24.56,165.27,22,165.27,18.73Zm-10.89-3.65c-4,0-6.76,2.9-6.73,7.11a6.57,6.57,0,0,0,7,6.85,6.79,6.79,0,0,0,6.74-7A6.78,6.78,0,0,0,154.38,15.08Zm-49.76,7.06c0,7,0,7,6.68,6.55a2.26,2.26,0,0,1,.26,0c.62,0,1.23,0,1.27-.88s-.52-1.17-1.3-1.17c-1,0-1.9-.06-2.84,0-1.32.1-2-.13-2-1.75s.51-1.95,2-2c1.15,0,3.32,1.13,3.37-.89s-2.14-.86-3.31-1-2.11.16-2.12-1.66.8-1.95,2.17-1.84a20.11,20.11,0,0,0,2.33,0c.75,0,1.65.12,1.68-1.06,0-1.33-1-1.19-1.81-1.2-1.55,0-3.11.07-4.65,0-1.33-.07-1.87.37-1.79,1.75C104.69,18.69,104.62,20.42,104.62,22.14Zm13,.91c0,1.37,0,2.75,0,4.12,0,.86,0,1.53,1.17,1.54s1.22-.6,1.21-1.49c0-2.41.07-4.82,0-7.22-.09-1.74.15-2.88,2.29-2.52.75.12,1.36-.14,1.37-1.09s-.49-1.17-1.31-1.16c-2.32,0-4.64,0-7,0-.78,0-1.34.22-1.33,1.16,0,.76.46,1.21,1.13,1.07,2.76-.55,2.6,1.22,2.51,3C117.63,21.33,117.66,22.19,117.66,23.05ZM136.84,23h0c0,1.38,0,2.76,0,4.13,0,.78-.13,1.56,1.07,1.6s1.31-.72,1.3-1.66c0-2.41.08-4.82,0-7.22-.09-1.7.27-2.65,2.2-2.34.89.14,1.51-.18,1.46-1.25s-.74-1-1.45-1h-6.45c-.78,0-1.63-.09-1.69,1s.73,1.31,1.54,1.18c2.07-.33,2.24.83,2.1,2.41C136.77,20.9,136.84,21.94,136.84,23Zm-5.26-.79V16.53c0-.6,0-1.23-.87-1.23s-1.2.37-1.19,1.23c0,3.6,0,7.2,0,10.8,0,.75,0,1.32,1.06,1.33s1-.63,1-1.34Z"/><path class="cls-3" d="M22.88,70.36c-1.19-.91-1.18-2.24-1.18-3.53V20.21a4.41,4.41,0,0,1,.85-3.16,10.76,10.76,0,0,1,1.45,1Q36.74,30.82,49.45,43.61,36.17,57,22.88,70.36Z"/><path class="cls-4" d="M110.06,50h3.11c3.89,0,3.76,0,3.54,3.85-.62,11.19-13.36,15-21.61,9.36a14.2,14.2,0,0,1-3.87-19.65,14.49,14.49,0,0,1,20-4.06c.66.45,2.43.77,1.31,2.14-.81,1-1.45,2.8-3.63,1.27-3.67-2.58-7.66-2.47-11.35.11a9.67,9.67,0,0,0-4.2,10.17,9.81,9.81,0,0,0,7.87,8.3c4.6,1.1,9.5-1.39,10.86-5.33.51-1.47.28-2.07-1.38-2-1.89.09-3.81-.08-5.7.06-1.66.11-1.79-.73-1.78-2s0-2.39,1.86-2.22C106.77,50.14,108.42,50,110.06,50Z"/><path class="cls-5" d="M49.45,43.61Q36.73,30.83,24,18.07a10.76,10.76,0,0,0-1.45-1c2.11-3,4.4-.71,6.09.21,10.17,5.55,20.2,11.38,30.27,17.11L50,43.58Z"/><path class="cls-6" d="M49.45,43.61l.53,0,8.69,9.1Q48,58.82,37.35,65c-3.35,1.92-6.72,3.82-10.12,5.66-1.44.78-3,1.5-4.35-.25Q36.17,57,49.45,43.61Z"/><path class="cls-4" d="M171.91,64.11c-3.55,2.39-6.88,2.25-10-.16a8.85,8.85,0,0,1-3.35-9.66,8.78,8.78,0,0,1,7-6.83,4.49,4.49,0,0,1,2.29-.13c2.18.67,4.3,1.26,6.61.5,1.1-.36,1.7.18,1.68,1.5-.07,5.26.09,10.52-.09,15.78-.16,4.64-2.28,7.49-5.83,8.53-4,1.16-7.92,0-10.11-3.21-.41-.59-1.85-1.51-.33-2.18,1-.43,2.17-2.14,3.47-.23a4.68,4.68,0,0,0,6.14,1.79C171.67,68.84,172.17,66.75,171.91,64.11Zm.34-7.65c-.05-3.12-2-5.34-4.74-5.35A5.48,5.48,0,0,0,167.42,62C170.17,62.07,172.3,59.6,172.25,56.46Z"/><path class="cls-7" d="M210.36,51.68c0-3.89,0-7.77,0-11.66,0-1.39.25-2,1.81-1.93,2.75.12,5.52-.06,8.28,0,5.21.2,8.72,3.81,8.61,8.71-.1,4.65-3.85,8.07-8.91,8.13-5.51.07-5.51.07-5.51,5.7,0,.69,0,1.38,0,2.07,0,2.37-1.27,3.22-3.54,2.52-1-.32-.68-1.07-.69-1.67C210.34,59.63,210.36,55.65,210.36,51.68Zm4.24-5.56c0,1.34,0,2.46,0,3.57,0,.5-.06,1,.55,1.3,1.11.53,7.06-.1,8-.91a4.46,4.46,0,0,0-1.07-7.63,11.16,11.16,0,0,0-7.08-.17C213.91,42.59,214.85,44.94,214.6,46.12Z"/><path class="cls-8" d="M58.67,52.68,50,43.58l8.93-9.21c3.5,2,7,3.89,10.47,6s3.25,4.52-.1,6.48S62.21,50.73,58.67,52.68Z"/><path class="cls-4" d="M249.21,54.37c-.91-3.27-4.33-4.45-6.85-2.26-1.79,1.54-3.16.16-4-.58s.5-1.88,1.34-2.52a8.92,8.92,0,0,1,9.53-.91c3.14,1.38,4.25,4,4.13,7.36-.09,2.58,0,5.17,0,7.76,0,.68.47,1.82-.58,2s-2.81.76-3.29-.38c-.66-1.54-1-.46-1.5-.16a6.93,6.93,0,0,1-6.17.77c-2.69-.86-4.37-2.84-4.43-5.41-.07-2.74,1.36-4.5,3.8-5.58A10.3,10.3,0,0,1,249.21,54.37ZM245.93,57c-1.91.09-4.05.24-4.29,2.66-.19,1.91,1.57,2.22,3.1,2.26,2,0,4.8-2.1,4.42-3.55S247.19,57.16,245.93,57Z"/><path class="cls-4" d="M147.41,47.28a9.26,9.26,0,0,1,.18,18.51,8.93,8.93,0,0,1-9.37-9.16A8.93,8.93,0,0,1,147.41,47.28Zm-5,9.2a5.34,5.34,0,0,0,4.92,5.58,5.39,5.39,0,0,0,5.22-5.59,5.08,5.08,0,1,0-10.14,0Z"/><path class="cls-4" d="M118,56.43a9.11,9.11,0,0,1,9.48-9.15,9.26,9.26,0,1,1-.22,18.51A9.09,9.09,0,0,1,118,56.43Zm4.24.16a5.26,5.26,0,0,0,5,5.44,5.41,5.41,0,0,0,5.16-5.66,5.22,5.22,0,0,0-5.24-5.26A5.14,5.14,0,0,0,122.25,56.59Z"/><path class="cls-4" d="M193,65.79a8.42,8.42,0,0,1-7.57-5.47,9.34,9.34,0,0,1,1.53-10.18,8,8,0,0,1,8.92-2.46c2.77.85,4.34,2.92,5.49,5.46.59,1.3-.33,1.47-1.09,1.79-3.1,1.29-6.18,2.61-9.31,3.8-1.53.58-1.35,1.15-.35,2.07a4.65,4.65,0,0,0,6.53-.15c1.82-1.91,2.87-.23,3.78.61,1.25,1.15-.48,1.72-1,2.28C198.2,65.17,196.07,65.84,193,65.79Zm3.82-13c-1.37-1.64-2.77-2.19-4.53-1.56-2.14.77-3.26,2.28-3.46,4.88Z"/><path class="cls-4" d="M272.08,47.91C268.5,56.16,265,64.2,261.53,72.22c-.44,1-3.47,1.7-4.31,1.08a.66.66,0,0,1-.19-.89,5.64,5.64,0,0,1,.43-.93c3.54-5,3-9.89-.06-15a77.65,77.65,0,0,1-3.8-8.48c4.28-.58,4.28-.58,5.74,3,1.11,2.67,2.21,5.35,3.49,8.47,1.18-3,2.16-5.53,3.16-8C267.49,47.65,267.49,47.65,272.08,47.91Z"/><path class="cls-4" d="M182.82,51.87c0,3.88-.1,7.76,0,11.63.07,1.93-1,1.75-2.27,1.8s-2-.19-2-1.78q.12-11.9,0-23.78c0-1.78.94-1.66,2.11-1.65s2.19-.16,2.14,1.64C182.74,43.77,182.82,47.82,182.82,51.87Z"/><path class="cls-9" d="M231.1,51.87c0-4,.09-8.09,0-12.13-.06-1.81,1-1.66,2.1-1.61s2.23-.42,2.21,1.5q-.12,12,0,24c0,2.08-1.27,1.51-2.38,1.63-1.38.16-2-.23-1.93-1.78C231.17,59.62,231.1,55.75,231.1,51.87Z"/><path class="cls-10" d="M100.83,23.34c-1.15,0-2.25,0-3.34,0-.66,0-1.17,0-1.18-.91s.38-1.18,1.23-1.15c1.38.05,2.76.07,4.14,0,1.19-.06,1.39.5,1.41,1.55A6.24,6.24,0,0,1,97.63,29c-3.73.52-7.4-1.85-8-5.34-.43-2.74,0-5.35,2.44-7.17a6.84,6.84,0,0,1,7.29-.84c.78.36,2.23.69,1.61,2-.74,1.61-1.67.24-2.46-.13A4.74,4.74,0,0,0,92,20.26,4.94,4.94,0,0,0,95,26.77C97.53,27.71,100,26.35,100.83,23.34Z"/><path class="cls-10" d="M165.27,18.73c0,3.29,0,5.83,0,8.37,0,.73.27,1.61-1.05,1.56s-1-.93-1-1.65c0-3.28,0-6.56,0-9.84,0-.69-.39-1.68.79-1.86a1.93,1.93,0,0,1,2.21.91c1.58,2.63,3.25,5.21,5.28,8.45,0-2.93,0-5.19,0-7.45,0-.79-.37-1.86,1-1.93s1.08,1.05,1.08,1.83c0,3.19,0,6.38,0,9.57,0,.67.53,1.67-.65,1.93a1.84,1.84,0,0,1-2.12-1C169.17,24.82,167.41,22.12,165.27,18.73Z"/><path class="cls-10" d="M154.38,15.08a6.78,6.78,0,0,1,7,7,6.79,6.79,0,0,1-6.74,7,6.57,6.57,0,0,1-7-6.85C147.62,18,150.35,15.1,154.38,15.08Zm4.74,6.9a4.56,4.56,0,0,0-4.79-4.86A4.85,4.85,0,0,0,149.7,22a4.9,4.9,0,0,0,4.77,5C157.2,27,159.14,24.9,159.12,22Z"/><path class="cls-11" d="M104.62,22.14c0-1.72.07-3.45,0-5.17-.08-1.38.46-1.82,1.79-1.75,1.54.08,3.1,0,4.65,0,.86,0,1.83-.13,1.81,1.2s-.93,1-1.68,1.06a20.11,20.11,0,0,1-2.33,0c-1.37-.11-2.19,0-2.17,1.84s1,1.48,2.12,1.66,3.35-1,3.31,1-2.22.85-3.37.89c-1.54.05-2.07.36-2,2s.7,1.85,2,1.75c.94-.08,1.89,0,2.84,0,.78,0,1.35.21,1.3,1.17s-.65.87-1.27.88a2.26,2.26,0,0,0-.26,0C104.61,29.16,104.61,29.16,104.62,22.14Z"/><path class="cls-11" d="M117.66,23.05c0-.86,0-1.72,0-2.58.09-1.79.25-3.56-2.51-3-.67.14-1.12-.31-1.13-1.07,0-.94.55-1.16,1.33-1.16,2.33,0,4.65,0,7,0,.82,0,1.32.25,1.31,1.16s-.62,1.21-1.37,1.09c-2.14-.36-2.38.78-2.29,2.52.12,2.4,0,4.81,0,7.22,0,.89-.1,1.5-1.21,1.49s-1.19-.68-1.17-1.54C117.68,25.8,117.66,24.42,117.66,23.05Z"/><path class="cls-11" d="M136.84,23c0-1-.07-2.07,0-3.09.14-1.58,0-2.74-2.1-2.41-.81.13-1.6-.06-1.54-1.18s.91-1,1.69-1h6.45c.71,0,1.41,0,1.45,1s-.57,1.39-1.46,1.25c-1.93-.31-2.29.64-2.2,2.34.13,2.4,0,4.81,0,7.22,0,.94,0,1.71-1.3,1.66s-1.07-.82-1.07-1.6c0-1.37,0-2.75,0-4.13Z"/><path class="cls-10" d="M131.58,22.18v5.14c0,.71.07,1.36-1,1.34s-1.06-.58-1.06-1.33c0-3.6,0-7.2,0-10.8,0-.86.31-1.24,1.19-1.23s.87.63.87,1.23Z"/><path class="cls-12" d="M172.25,56.46c.05,3.14-2.08,5.61-4.83,5.58a5.48,5.48,0,0,1,.09-10.93C170.24,51.12,172.2,53.34,172.25,56.46Z"/><path class="cls-12" d="M214.6,46.12c.25-1.18-.69-3.53.44-3.84a11.16,11.16,0,0,1,7.08.17,4.46,4.46,0,0,1,1.07,7.63c-1,.81-6.93,1.44-8,.91-.61-.3-.54-.8-.55-1.3C214.59,48.58,214.6,47.46,214.6,46.12Z"/><path class="cls-12" d="M245.93,57c1.26.13,2.82-.12,3.23,1.37S246.76,62,244.74,62c-1.53,0-3.29-.35-3.1-2.26C241.88,57.27,244,57.12,245.93,57Z"/><path class="cls-12" d="M142.38,56.48a5.08,5.08,0,1,1,10.14,0,5.39,5.39,0,0,1-5.22,5.59A5.34,5.34,0,0,1,142.38,56.48Z"/><path class="cls-12" d="M122.25,56.59a5.14,5.14,0,0,1,5-5.48,5.22,5.22,0,0,1,5.24,5.26A5.41,5.41,0,0,1,127.29,62,5.26,5.26,0,0,1,122.25,56.59Z"/><path class="cls-12" d="M196.8,52.79l-8,3.32c.2-2.6,1.32-4.11,3.46-4.88C194,50.6,195.43,51.15,196.8,52.79Z"/><path class="cls-12" d="M159.12,22c0,2.92-1.92,5-4.65,5a4.9,4.9,0,0,1-4.77-5,4.85,4.85,0,0,1,4.63-4.87A4.56,4.56,0,0,1,159.12,22Z"/><path class="cls-13" d="M0,10.44Q1.27,1.38,10.33.1a1.27,1.27,0,0,0,2,0c.95,0,1.89-.09,2.84-.09H277c.94,0,1.89.06,2.84.09a1.28,1.28,0,0,0,2,0c6.08.55,10.42,5.39,10.39,12.51q-.11,30.93,0,61.87c0,7.36-4.59,12.06-10.39,12.53-.16-.26-.31-.24-.45,0-1.12,0-2.24.09-3.36.09q-130.14,0-260.26,0c-1,0-1.9,0-2.85-.08-.32-.49-.65-.49-1,0H11.3c-.31-.51-.63-.52-1,0A11.13,11.13,0,0,1,0,76.7c.72-.72.42-1.63.42-2.46q0-30.67,0-61.34C.43,12.07.73,11.15,0,10.44ZM146.1,85H279c7.61,0,11.09-3.51,11.08-11.07V13.6c0-8.13-3.33-11.49-11.43-11.49H13.87c-1,0-2.08,0-3.11.06A9,9,0,0,0,2.1,11.36q0,32.27,0,64.52A8.81,8.81,0,0,0,6.23,83.5C8.33,85,10.74,85,13.18,85Q79.65,85,146.1,85Z"/><path class="cls-1" d="M10.33,87c.34-.5.66-.49,1,0Z"/><path class="cls-1" d="M14,87.06c.33-.49.66-.49,1,0Z"/><path class="cls-1" d="M281.4,87.05c.14-.26.29-.28.45,0l-.22,0Z"/></g></g></svg>