<svg xmlns="http://www.w3.org/2000/svg" viewBox="0 0 12.41 33.56"><defs><style>.cls-1{fill:#deaf06;}</style></defs><title>TelefonoContactoIcono</title><g id="Capa_2" data-name="Capa 2"><g id="Capa_1-2" data-name="Capa 1"><path class="cls-1" d="M6.26,8.65H9.6a2.9,2.9,0,0,0,2.81-3V3A2.9,2.9,0,0,0,9.6,0H6.26C4.7,0,3.06,2.1,1.9,5A33.26,33.26,0,0,0,0,16.92a31.36,31.36,0,0,0,1.9,11.6c1.16,2.93,2.8,5,4.36,5H9.6a2.92,2.92,0,0,0,2.81-3V27.88a2.91,2.91,0,0,0-2.81-3H6.26c-2.12,0-2.72-5.71-2.72-8.12S4.14,8.65,6.26,8.65Z"/></g></g></svg>