<svg xmlns="http://www.w3.org/2000/svg" viewBox="0 0 34.5 34.5"><defs><style>.cls-1{fill:none;stroke:#fff;stroke-miterlimit:10;}.cls-2{fill:#fff;fill-rule:evenodd;}</style></defs><title>WhiteMail</title><g id="Capa_2" data-name="Capa 2"><g id="Capa_1-2" data-name="Capa 1"><circle class="cls-1" cx="17.25" cy="17.25" r="16.75"/><path class="cls-2" d="M28.33,10.39v13.9a2.2,2.2,0,0,1-2.14,1.77c-5.87,0-11.73,0-17.6,0a2.09,2.09,0,0,1-2-1.43c0-.11-.09-.23-.14-.35V10.39A2.21,2.21,0,0,1,8.59,8.61h17.6a2.09,2.09,0,0,1,2,1.38C28.22,10.13,28.28,10.26,28.33,10.39Zm-2.19.41a3,3,0,0,0-2,.38c-2.06,1.33-4.18,2.59-6.26,3.89a.74.74,0,0,1-.94,0c-2.1-1.33-4.25-2.59-6.34-3.95a3,3,0,0,0-1.94-.34V23.87h2.2V14.3l6.54,4.14L24,14.26v9.6h2.16Z"/></g></g></svg>