<svg xmlns="http://www.w3.org/2000/svg" xmlns:xlink="http://www.w3.org/1999/xlink" viewBox="0 0 263.72 73.26"><defs><style>.cls-1{isolation:isolate;}.cls-2{fill:url(#linear-gradient);}.cls-3{opacity:0.64;mix-blend-mode:screen;fill:url(#radial-gradient);}</style><linearGradient id="linear-gradient" x1="131.86" y1="-0.73" x2="131.86" y2="73.01" gradientUnits="userSpaceOnUse"><stop offset="0.1" stop-color="#63aa00"/><stop offset="0.25" stop-color="#72aa00"/><stop offset="0.82" stop-color="#328e00"/><stop offset="1" stop-color="#068e00"/></linearGradient><radialGradient id="radial-gradient" cx="123.62" cy="-81.81" r="353.1" gradientUnits="userSpaceOnUse"><stop offset="0" stop-color="#fff"/><stop offset="0.01" stop-color="#fbfbfb"/><stop offset="0.13" stop-color="#c1c1c1"/><stop offset="0.25" stop-color="#8e8e8e"/><stop offset="0.37" stop-color="#626262"/><stop offset="0.5" stop-color="#3f3f3f"/><stop offset="0.62" stop-color="#232323"/><stop offset="0.74" stop-color="#101010"/><stop offset="0.87" stop-color="#040404"/><stop offset="1"/></radialGradient></defs><title>BtnGreen_1</title><g class="cls-1"><g id="Capa_2" data-name="Capa 2"><g id="Capa_1-2" data-name="Capa 1"><path class="cls-2" d="M227.1,73.26H36.63A36.63,36.63,0,0,1,0,36.63H0A36.63,36.63,0,0,1,36.63,0H227.1a36.62,36.62,0,0,1,36.62,36.63h0A36.62,36.62,0,0,1,227.1,73.26Z"/><path class="cls-3" d="M227.1,7H36.63A29.68,29.68,0,0,0,7,36.63c0,.72.06,1.42.11,2.13H256.64c.05-.71.11-1.41.11-2.13A29.68,29.68,0,0,0,227.1,7Z"/></g></g></g></svg>