<svg xmlns="http://www.w3.org/2000/svg" xmlns:xlink="http://www.w3.org/1999/xlink" viewBox="0 0 385.2 87.94"><defs><style>.cls-1{isolation:isolate;}.cls-2{fill:url(#linear-gradient);}.cls-3{opacity:0.64;mix-blend-mode:screen;fill:url(#radial-gradient);}</style><linearGradient id="linear-gradient" x1="192.6" y1="-0.88" x2="192.6" y2="87.64" gradientUnits="userSpaceOnUse"><stop offset="0.1" stop-color="#ff1c21"/><stop offset="0.25" stop-color="#df1c21"/><stop offset="0.82" stop-color="#9f0021"/><stop offset="1" stop-color="#760021"/></linearGradient><radialGradient id="radial-gradient" cx="53.38" cy="67.61" r="311.21" gradientTransform="translate(92.1 -190.28) scale(1.66 1.36)" gradientUnits="userSpaceOnUse"><stop offset="0" stop-color="#fff"/><stop offset="0.01" stop-color="#fbfbfb"/><stop offset="0.13" stop-color="#c1c1c1"/><stop offset="0.25" stop-color="#8e8e8e"/><stop offset="0.37" stop-color="#626262"/><stop offset="0.5" stop-color="#3f3f3f"/><stop offset="0.62" stop-color="#232323"/><stop offset="0.74" stop-color="#101010"/><stop offset="0.87" stop-color="#040404"/><stop offset="1"/></radialGradient></defs><title>BtnRed</title><g class="cls-1"><g id="Capa_2" data-name="Capa 2"><g id="Capa_1-2" data-name="Capa 1"><path class="cls-2" d="M331.7,87.94H53.5C24,87.94,0,68.25,0,44H0C0,19.69,24,0,53.5,0H331.7c29.55,0,53.5,19.69,53.5,44h0C385.2,68.25,361.25,87.94,331.7,87.94Z"/><path class="cls-3" d="M331.7,8.38H53.5c-23.88,0-43.31,16-43.31,35.59,0,.86.09,1.71.16,2.55h364.5c.08-.84.16-1.69.16-2.55C375,24.34,355.58,8.38,331.7,8.38Z"/></g></g></g></svg>