<svg xmlns="http://www.w3.org/2000/svg" viewBox="0 0 30.46 26.4"><defs><style>.cls-1{fill:#deaf06;}</style></defs><title>DireccionDomicilioIcono</title><g id="Capa_2" data-name="Capa 2"><g id="Capa_1-2" data-name="Capa 1"><path class="cls-1" d="M30,13.64l-4.62-4.9V3.06a1.75,1.75,0,1,0-3.49,0V5L18.4,1.35a4.41,4.41,0,0,0-6.36,0L.5,13.64a2,2,0,0,0,0,2.64,1.7,1.7,0,0,0,2.47,0l1.29-1.37a.88.88,0,0,0,0,.29v7.86A3.25,3.25,0,0,0,7.35,26.4h5V18.13h5.67V26.4h5a3.24,3.24,0,0,0,3.14-3.34V15.2a.88.88,0,0,0,0-.29l1.29,1.37a1.73,1.73,0,0,0,1.23.54A1.76,1.76,0,0,0,30,16.28,2,2,0,0,0,30,13.64Z"/></g></g></svg>