<svg xmlns="http://www.w3.org/2000/svg" viewBox="0 0 24.2 24.15"><defs><style>.cls-1,.cls-2{fill-rule:evenodd;}.cls-2{fill:#fff;}</style></defs><title>FacebookSocialIcono</title><g id="Capa_2" data-name="Capa 2"><g id="Capa_1-2" data-name="Capa 1"><path class="cls-1" d="M0,12.2a12.1,12.1,0,1,1,12.24,12A12,12,0,0,1,0,12.2ZM15.61,6.37c.12-.7.22-1.33.33-2a5.84,5.84,0,0,0-4.73.12c-1.6.88-1.19,2.57-1.4,4l-1.54.24v2.22l1.66.22v8.9H13V11.13l2.16-.2c.23-1.75.23-1.75-2.15-2.6C13,6.44,13.1,6.31,15.61,6.37Z"/><path class="cls-2" d="M15.61,6.37c-2.51-.06-2.66.07-2.62,2,2.38.85,2.38.85,2.15,2.6l-2.16.2v8.93H9.93v-8.9l-1.66-.22V8.72l1.54-.24c.21-1.42-.2-3.11,1.4-4a5.84,5.84,0,0,1,4.73-.12C15.83,5,15.73,5.67,15.61,6.37Z"/></g></g></svg>