<svg xmlns="http://www.w3.org/2000/svg" xmlns:xlink="http://www.w3.org/1999/xlink" viewBox="0 0 57.8 57.81"><defs><style>.cls-1{isolation:isolate;}.cls-2{fill:#009498;}.cls-3{mix-blend-mode:screen;}.cls-4{fill:url(#linear-gradient);}.cls-5{fill:#fff;}</style><linearGradient id="linear-gradient" x1="2.97" y1="-10.25" x2="35.96" y2="39.55" gradientUnits="userSpaceOnUse"><stop offset="0" stop-color="#fff4cd"/><stop offset="1"/></linearGradient></defs><title>LupaFomularioIcono</title><g class="cls-1"><g id="Capa_2" data-name="Capa 2"><g id="Capa_1-2" data-name="Capa 1"><g id="Barra_de_búsqueda_2_-_Verde" data-name="Barra de búsqueda 2 - Verde"><path class="cls-2" d="M28.9,56.9a28,28,0,1,1,28-28A28,28,0,0,1,28.9,56.9Z"/><path class="cls-2" d="M28.9,1.81A27.1,27.1,0,1,1,1.81,28.9,27.13,27.13,0,0,1,28.9,1.81M28.9,0A28.91,28.91,0,1,0,57.8,28.9,28.9,28.9,0,0,0,28.9,0Z"/><g class="cls-3"><path class="cls-4" d="M42.14,22.52a58.12,58.12,0,0,1,13.07-.27A27.14,27.14,0,1,0,7.12,45.06C11.41,34.08,25,24.81,42.14,22.52Z"/></g><path class="cls-5" d="M46.15,41.3a1.08,1.08,0,0,0-.07-1.51l-9-8.16a1.07,1.07,0,0,0-1.5.07l-3.21,3.55a1.06,1.06,0,0,0,.08,1.5l9,8.17a1.06,1.06,0,0,0,1.5-.08Z"/><path class="cls-5" d="M24.61,12.61a11.77,11.77,0,1,1-3.85.65,11.79,11.79,0,0,1,3.85-.65m0,3.19a8.41,8.41,0,0,0-2.8.48h0A8.58,8.58,0,0,0,24.61,33a8.63,8.63,0,0,0,7.71-4.83A8.58,8.58,0,0,0,24.61,15.8Z"/></g></g></g></g></svg>