<svg xmlns="http://www.w3.org/2000/svg" viewBox="0 0 1326.88 331.79"><defs><style>.cls-1{fill:#284b6a;}.cls-1,.cls-10,.cls-11,.cls-12,.cls-13,.cls-14,.cls-15,.cls-16,.cls-17,.cls-18,.cls-19,.cls-2,.cls-20,.cls-21,.cls-22,.cls-23,.cls-24,.cls-25,.cls-26,.cls-27,.cls-3,.cls-4,.cls-5,.cls-6,.cls-7,.cls-8,.cls-9{fill-rule:evenodd;}.cls-2{fill:#345572;}.cls-3{fill:#345472;}.cls-4{fill:#345471;}.cls-5{fill:#30516f;}.cls-6{fill:#2f506e;}.cls-7{fill:#2e506e;}.cls-8{fill:#70869b;}.cls-9{fill:#365673;}.cls-10{fill:#4f6b84;}.cls-11{fill:#47647f;}.cls-12{fill:#3b5b77;}.cls-13{fill:#44627c;}.cls-14{fill:#4c6982;}.cls-15{fill:#44627d;}.cls-16{fill:#657d93;}.cls-17{fill:#4c6882;}.cls-18{fill:#375774;}.cls-19{fill:#45627d;}.cls-20{fill:#46647e;}.cls-21{fill:#536e86;}.cls-22{fill:#3a5a76;}.cls-23{fill:#647c92;}.cls-24{fill:#375773;}.cls-25{fill:#335471;}.cls-26{fill:#fbfbfc;}.cls-27{fill:#fcfcfd;}.cls-28{font-size:19.9px;font-family:MyriadPro-Regular, Myriad Pro;}.cls-29{letter-spacing:-0.03em;}.cls-30{letter-spacing:0em;}.cls-31{letter-spacing:0em;}.cls-32{letter-spacing:0.01em;}.cls-33{letter-spacing:0.01em;}.cls-34{letter-spacing:-0.01em;}.cls-35{letter-spacing:0.02em;}.cls-36{letter-spacing:-0.04em;}.cls-37{letter-spacing:0em;}.cls-38{letter-spacing:-0.01em;}.cls-39{letter-spacing:0em;}.cls-40{letter-spacing:0em;}.cls-41{letter-spacing:0em;}.cls-42{letter-spacing:-0.04em;}.cls-43{letter-spacing:-0.07em;}.cls-44{letter-spacing:0em;}.cls-45{letter-spacing:-0.01em;}.cls-46{letter-spacing:0em;}.cls-47{letter-spacing:-0.01em;}.cls-48{letter-spacing:0.01em;}.cls-49{letter-spacing:-0.01em;}.cls-50{letter-spacing:0em;}.cls-51{letter-spacing:0.02em;}.cls-52{letter-spacing:-0.01em;}.cls-53{letter-spacing:0.02em;}.cls-54{letter-spacing:-0.01em;}.cls-55{letter-spacing:0.01em;}.cls-56{letter-spacing:0.02em;}</style></defs><title>RoadMap_1</title><g id="Capa_2" data-name="Capa 2"><g id="Capa_1-2" data-name="Capa 1"><path class="cls-1" d="M1194.64,142.5c-7.19.82-12.67,4.15-15.49,11-1,2.46-2.59,2.91-5,2.91q-53.46-.1-106.92,0c-2.47,0-3.89-.67-4.94-3.07-3-6.72-8.26-10.55-15.63-10.63-7.63-.09-13.1,3.72-16.18,10.69-1,2.36-2.51,3-5,3q-83.88-.09-167.76,0c-2.5,0-3.81-.75-4.84-3.18-2.88-6.82-8.61-10.68-15.67-10.73-7.31,0-13.14,3.8-16.11,10.93-1,2.37-2.53,3-5,3q-54.35-.1-108.69,0c-2.46,0-3.79-.7-4.87-3.12-3-6.68-8.28-10.54-15.67-10.59-7.63-.05-13.09,3.84-16.13,10.78-1.08,2.47-2.63,2.93-5,2.92q-81.81-.06-163.62,0c-2.15,0-3.71-.33-4.6-2.66-2.47-6.48-7.63-9.73-14.13-11.22-2.18-.09-4.19.83-6.32,1.06-5.39.77-8.85,4.22-11,8.81-1.36,2.89-2.85,4.07-6.14,4.06q-52.23-.18-104.44,0c-3.2,0-4.84-.95-6.22-3.94-3-6.44-8.42-9.83-15.52-9.8a16.11,16.11,0,0,0-15.45,9.92c-1.4,3.08-3.1,3.82-6.24,3.82q-80.25-.13-160.49,0c-3.42,0-5.18-1-6.62-4.15-2.11-4.63-5.71-7.95-11.06-8.78-1.82,0-3.33-1.57-5.25-1-6.92,1-12.26,4.35-15,10.94-1.06,2.58-2.65,3-5,3q-45.49-.06-91,0c-2.37,0-4-1-5.79-2.27-3.29-2.32-6.79-2.12-9.62.83s-3,6.41-.35,9.59,6,4,9.43,1.55c2.47-1.75,5-1.9,7.8-1.9q43.71,0,87.43,0c3.72,0,6.16.48,8.38,4.46,6.59,11.77,22.71,11.59,29.45-.18,2-3.53,4.18-4.32,7.85-4.31q79.45.15,158.91,0c3.69,0,5.84.82,7.85,4.32,6.93,12,22.86,11.8,29.78-.32,1.73-3.05,3.53-4,6.86-4q52,.16,104,0c3.35,0,5.1,1,6.84,4,7.1,12.38,22.89,12.22,30.11-.25,1.59-2.75,3.18-3.78,6.38-3.78q81.23.17,162.45.1c1.85,0,4.06-.71,5,1.84,2.88,7.44,9.13,10.29,16.26,11.93,1.29.71,1.64-.59,2.36-1.11a15.09,15.09,0,0,0,12.86-9.09c1.43-3,3.36-3.66,6.43-3.65q53.46.13,106.92,0c3.45,0,5.08,1.2,6.79,4.14,7,12.05,22.86,12.11,29.86.07,1.87-3.21,3.76-4.22,7.33-4.21q82.41.17,164.81,0c3.5,0,5.66.66,7.4,4.12,2.59,5.15,7,8.44,13.13,8.63a3.09,3.09,0,0,0,3.7,0c6.38-.26,10.66-3.83,13.41-9.19,1.37-2.68,3-3.55,5.94-3.54q53.16.13,106.31,0c2.57,0,4.13.52,5.6,3,7.92,13.53,23.24,13.6,31,.17,1.42-2.45,2.87-3.21,5.51-3.21q46.65.11,93.32,0a10.81,10.81,0,0,1,6,1.94c3.8,2.37,7.22,1.45,9.87-2,2.42-3.11,2.06-6.4-.57-9.12-3-3.13-6.77-3.39-10-.61-2.06,1.76-4.13,1.93-6.5,1.93-30.32,0-60.64,0-91,.05-3.34,0-5.35-.71-6.73-4.08-2.34-5.78-7.48-8.33-13.2-9.85A2,2,0,0,0,1194.64,142.5Z"/><path class="cls-2" d="M333.82,222.19c3.12-.18,5-1.89,4.95-4.75,0-3.1-1.82-5.09-5.16-5a4.59,4.59,0,0,0-4.83,4.77C328.69,220.33,330.7,222.09,333.82,222.19Z"/><path class="cls-3" d="M1051.66,217.36c-.73-2.87-2.07-5-5.46-5a4.58,4.58,0,0,0-4.81,4.81c-.06,3.15,1.92,5,5.22,4.93C1049.65,222.08,1051,220.09,1051.66,217.36Z"/><path class="cls-4" d="M836.77,97.65c-2.83.35-4.68,2-4.72,4.86,0,3.24,2,5,5.15,5a4.57,4.57,0,0,0,4.82-4.81C842,99.7,840.1,97.81,836.77,97.65Z"/><path class="cls-5" d="M1196.2,107.53c2.91-.41,4.73-2,4.6-5-.14-3.3-2.22-5-5.42-4.73-3,.27-4.45,2.26-4.27,5.26S1193.28,107.4,1196.2,107.53Z"/><path class="cls-6" d="M687.78,222.14c2.75-.18,4.65-1.77,4.64-4.73,0-3.2-1.89-5.12-5.22-5-3.08.14-4.58,2.15-4.53,5.05S684.47,222.11,687.78,222.14Z"/><path class="cls-6" d="M487.13,102.62c-.19-2.87-1.69-4.78-4.68-4.86-3.26-.09-5.18,1.81-5.1,5.07.07,3,2,4.65,4.95,4.64S486.91,105.73,487.13,102.62Z"/><path class="cls-7" d="M130,97.66c-2.93.2-4.85,1.55-5.07,4.6s1.28,5,4.3,5.19c3.18.21,5.31-1.46,5.43-4.76C134.72,99.68,132.78,98.17,130,97.66Z"/><path class="cls-8" d="M1195.86,118.59a5.34,5.34,0,0,0,.11-6.77C1194.05,114.5,1194.84,116.55,1195.86,118.59Z"/><path class="cls-9" d="M687.2,208.94c1.46-3.56,1.55-5.39,0-8.63Z"/><path class="cls-10" d="M129.5,118.45c1.68-1.94,1.31-3.79.64-6.2C127.74,114.62,129,116.59,129.5,118.45Z"/><path class="cls-11" d="M482.35,119.58a10,10,0,0,0,.45-7.34C480.37,114.53,481,116.51,482.35,119.58Z"/><path class="cls-12" d="M687.3,194.09c1.36-2,1.59-3.85,0-6.41A7.77,7.77,0,0,0,687.3,194.09Z"/><path class="cls-13" d="M477.05,143.59a8.74,8.74,0,0,0,6.32-1.06c-.11-1.13-.23-2.26-.51-5.09C481.47,141.43,479.39,142.68,477.05,143.59Z"/><path class="cls-14" d="M129.47,131.49c1.52-1.74,1.56-3.5.08-6.13A7,7,0,0,0,129.47,131.49Z"/><path class="cls-15" d="M482.77,124.88c-2.09,3.25-1.74,5-.48,7.8C483.66,129.82,483.29,128,482.77,124.88Z"/><path class="cls-16" d="M1195.6,131.61c2-1.78,1.87-3.61.58-5.92C1193.93,127.72,1195,129.71,1195.6,131.61Z"/><path class="cls-17" d="M128.61,142.5c1.65.84,3.32,1.6,5.25,1-2.57-.37-2.83-3.18-4.8-5C128.87,140.24,128.74,141.37,128.61,142.5Z"/><path class="cls-18" d="M333.89,201.76a5.32,5.32,0,0,0-.15,5.63C335,205.44,334.22,203.58,333.89,201.76Z"/><path class="cls-19" d="M1046.87,201c-1.95,2.47-1.07,4.38-.86,6.91C1047.92,205.4,1047.1,203.49,1046.87,201Z"/><path class="cls-20" d="M333.79,194.9c.88-2.87,1-4.7,0-6.88C332.63,190.23,332.75,192.12,333.79,194.9Z"/><path class="cls-21" d="M1046.51,194.37c1.06-2.2,1.26-4.15-.14-6.29C1045.28,190.27,1045.12,192.23,1046.51,194.37Z"/><path class="cls-22" d="M689.05,176.93,686.69,178c0,1.09.1,2.19.17,3.43C689.2,180.48,688,178.22,689.05,176.93Z"/><path class="cls-20" d="M1048.28,176.92h-3.7c.55,1.39,1.1,2.79,1.84,4.65C1047.13,179.81,1047.71,178.36,1048.28,176.92Z"/><path class="cls-23" d="M1194.64,142.5h2.6c-.37-1.17.61-3.3-1.29-3.3S1195.06,141.35,1194.64,142.5Z"/><path class="cls-24" d="M836.85,112.07c-.56,2.94-1,4.77.37,6.62A6.51,6.51,0,0,0,836.85,112.07Z"/><path class="cls-25" d="M837.22,132.18c.84-2.55,1-4.19-.05-6.11C836,128,836.13,129.7,837.22,132.18Z"/><path class="cls-26" d="M695.91,160a9.23,9.23,0,1,0-9,9A9.17,9.17,0,0,0,695.91,160Z"/><path class="cls-27" d="M138.8,160a9.31,9.31,0,0,0-9.5-9.07,9,9,0,0,0-8.81,9,8.9,8.9,0,0,0,9.38,9A9.07,9.07,0,0,0,138.8,160Z"/><path class="cls-27" d="M1055.46,160.29a9,9,0,0,0-8.59-9.36,8.85,8.85,0,0,0-9.48,9,8.72,8.72,0,0,0,8.83,9A8.85,8.85,0,0,0,1055.46,160.29Z"/><path class="cls-27" d="M1204.19,160a9,9,0,0,0-9.39-9,9.25,9.25,0,0,0-8.89,9.05,9.07,9.07,0,0,0,9.48,9A8.91,8.91,0,0,0,1204.19,160Z"/><path class="cls-27" d="M334.07,150.92a9,9,0,0,0-9.35,8.63,8.79,8.79,0,0,0,8.5,9.41,8.65,8.65,0,0,0,9.54-8.85A8.78,8.78,0,0,0,334.07,150.92Z"/><path class="cls-27" d="M490.52,160a9,9,0,0,0-9.34-9.08,8.78,8.78,0,0,0-8.73,9,8.66,8.66,0,0,0,9.24,9.06A8.89,8.89,0,0,0,490.52,160Z"/><path class="cls-27" d="M846.18,160.14a9.12,9.12,0,0,0-8.81-9.22,9,9,0,0,0-9.41,9.14,8.82,8.82,0,0,0,9,8.93A9.14,9.14,0,0,0,846.18,160.14Z"/><text class="cls-28" transform="translate(87.01 212.41)">3Q - 2020</text><text class="cls-28" transform="translate(294.33 118.45)">4Q - 2020</text><text class="cls-28" transform="translate(445.26 212.41)">1Q - 2021</text><text class="cls-28" transform="translate(642.64 119.58)">2Q - 2021</text><text class="cls-28" transform="translate(803.52 210.67)">3Q - 2021</text><text class="cls-28" transform="translate(1005.87 124.88)">4Q - 2021</text><text class="cls-28" transform="translate(1166.75 210.58)">1Q - 2022</text><text class="cls-28" transform="translate(65.45 16.66)">Optimización Sitio <tspan class="cls-29"><tspan x="0" y="23.88">W</tspan><tspan class="cls-30" x="16.18" y="23.88">eb</tspan></tspan></text><text class="cls-28" transform="translate(249.55 293.65)"><tspan class="cls-31">R</tspan><tspan x="10.79" y="0">ea</tspan><tspan class="cls-32" x="30.35" y="0">c</tspan><tspan class="cls-30" x="39.53" y="0">t </tspan><tspan class="cls-33" x="50.33" y="0">M</tspan><tspan x="66.46" y="0">o</tspan><tspan class="cls-34" x="77.38" y="0">t</tspan><tspan x="83.85" y="0">or backend </tspan></text><text class="cls-28" transform="translate(269.45 326.82)"><tspan class="cls-33">S</tspan><tspan x="9.93" y="0">e</tspan><tspan class="cls-35" x="19.9" y="0">r</tspan><tspan x="26.91" y="0">vi</tspan><tspan class="cls-34" x="41.14" y="0">c</tspan><tspan class="cls-30" x="49.94" y="0">e</tspan><tspan class="cls-36" x="59.91" y="0"> </tspan><tspan class="cls-29" x="63.41" y="0">W</tspan><tspan x="79.59" y="0">o</tspan><tspan class="cls-37" x="90.52" y="0">r</tspan><tspan class="cls-30" x="97.11" y="0">ker</tspan></text><text class="cls-28" transform="translate(621.08 263.79)"><tspan class="cls-38">C</tspan><tspan x="11.33" y="0">o</tspan><tspan class="cls-39" x="22.25" y="0">n</tspan><tspan x="33.22" y="0">t</tspan><tspan class="cls-40" x="39.81" y="0">r</tspan><tspan class="cls-41" x="46.21" y="0">a</tspan><tspan class="cls-34" x="55.73" y="0">t</tspan><tspan x="62.2" y="0">o</tspan><tspan class="cls-42" x="73.12" y="0"> </tspan><tspan class="cls-43" x="76.53" y="0">T</tspan><tspan x="85.01" y="0">oken </tspan><tspan x="0" y="23.88">E</tspan><tspan class="cls-44" x="9.79" y="23.88">R</tspan><tspan x="20.56" y="23.88">C20 Block Chain </tspan></text><text class="cls-28" transform="translate(433.65 41.54)">Diseño y <tspan class="cls-37" x="75.55" y="0">D</tspan><tspan x="88.89" y="0">esa</tspan><tspan class="cls-37" x="116.33" y="0">r</tspan><tspan class="cls-45" x="122.92" y="0">r</tspan><tspan x="129.23" y="0">ollo</tspan><tspan class="cls-46" x="0" y="23.88">A</tspan><tspan x="12.12" y="23.88">plic</tspan><tspan class="cls-41" x="41.72" y="23.88">a</tspan><tspan x="51.23" y="23.88">ti</tspan><tspan class="cls-47" x="62.48" y="23.88">v</tspan><tspan x="71.85" y="23.88">o</tspan><tspan class="cls-48" x="0" y="47.77">I</tspan><tspan class="cls-39" x="4.96" y="47.77">n</tspan><tspan class="cls-34" x="15.92" y="47.77">t</tspan><tspan x="22.39" y="47.77">e</tspan><tspan class="cls-49" x="32.36" y="47.77">g</tspan><tspan class="cls-40" x="43.37" y="47.77">r</tspan><tspan class="cls-50" x="49.78" y="47.77">acion pagos</tspan></text><text class="cls-28" transform="translate(793.57 61.44)">Lanzamie<tspan class="cls-39" x="79.37" y="0">n</tspan><tspan class="cls-34" x="90.34" y="0">t</tspan><tspan x="96.81" y="0">o </tspan><tspan class="cls-51" x="0" y="23.88">O</tspan><tspan class="cls-52" x="14.03" y="23.88">f</tspan><tspan class="cls-30" x="19.58" y="23.88">e</tspan><tspan class="cls-53" x="29.56" y="23.88">r</tspan><tspan x="36.54" y="23.88">ta Dai</tspan><tspan class="cls-34" x="84.45" y="23.88">c</tspan><tspan x="93.25" y="23.88">o</tspan></text><text class="cls-28" transform="translate(959.43 263.79)">Neighbor <tspan class="cls-54" x="82.88" y="0">a</tspan><tspan class="cls-41" x="92.31" y="0">w</tspan><tspan x="106.88" y="0">a</tspan><tspan class="cls-45" x="116.47" y="0">r</tspan><tspan class="cls-30" x="122.78" y="0">eness </tspan><tspan x="0" y="23.88">ne</tspan><tspan class="cls-55" x="21.02" y="23.88">t</tspan><tspan class="cls-47" x="27.78" y="23.88">w</tspan><tspan x="42.23" y="23.88">o</tspan><tspan class="cls-37" x="53.16" y="23.88">r</tspan><tspan class="cls-56" x="59.75" y="23.88">k</tspan><tspan x="69.42" y="23.88">ing</tspan></text><text class="cls-28" transform="translate(1160.12 64.76)"><tspan class="cls-33">M</tspan><tspan class="cls-50" x="16.12" y="0">apa est</tspan><tspan class="cls-40" x="75.29" y="0">r</tspan><tspan class="cls-41" x="81.7" y="0">a</tspan><tspan class="cls-34" x="91.21" y="0">t</tspan><tspan class="cls-30" x="97.68" y="0">e</tspan><tspan class="cls-34" x="107.65" y="0">g</tspan><tspan x="118.66" y="0">i</tspan><tspan class="cls-49" x="123.32" y="0">c</tspan><tspan x="132.12" y="0">o</tspan></text><text class="cls-28" transform="translate(284.38 262.13)">D<tspan class="cls-41" x="13.25" y="0">a</tspan><tspan x="22.77" y="0">ta bases </tspan></text><text class="cls-28" transform="translate(63.79 66.42)"><tspan class="cls-31">R</tspan><tspan x="10.79" y="0">ed neu</tspan><tspan class="cls-47" x="68.19" y="0">r</tspan><tspan x="74.5" y="0">onal de </tspan><tspan x="0" y="23.88">empa</tspan><tspan class="cls-45" x="47.49" y="23.88">r</tspan><tspan x="53.8" y="23.88">e</tspan><tspan class="cls-39" x="63.77" y="23.88">n</tspan><tspan x="74.74" y="23.88">tamie</tspan><tspan class="cls-41" x="122.14" y="23.88">n</tspan><tspan class="cls-49" x="133.11" y="23.88">t</tspan><tspan x="139.58" y="23.88">o</tspan></text></g></g></svg>